{"glyphs":{"0":{"ha":825,"x_min":76,"x_max":749,"o":"m 418 -18 q 297 2 351 -18 q 201 63 243 22 q 132 163 160 103 q 90 300 104 222 q 76 474 76 378 q 90 645 76 568 q 132 781 104 722 q 201 881 160 840 q 296 943 242 922 q 415 964 350 964 q 532 943 479 964 q 625 881 585 922 q 693 781 665 840 q 735 644 721 721 q 749 472 749 567 q 735 301 749 378 q 694 164 721 224 q 626 64 667 104 q 534 3 586 24 q 418 -18 482 -18 m 411 65 q 535 97 488 65 q 610 179 583 129 q 649 285 638 229 q 664 389 661 340 q 667 465 667 438 l 667 474 q 638 694 667 603 q 553 834 610 786 q 414 882 497 882 q 272 834 329 882 q 187 695 215 786 q 158 472 158 604 q 187 252 158 343 q 272 113 215 161 q 411 65 328 65 z "},"1":{"ha":550,"x_min":75,"x_max":474,"o":"m 433 -15 q 403 -6 411 -15 q 394 26 394 4 l 394 914 q 403 946 394 938 q 435 954 413 954 q 465 944 457 954 q 474 911 474 935 l 474 25 q 465 -6 474 3 q 433 -15 457 -15 m 146 619 q 116 604 128 604 q 89 622 104 604 q 76 651 75 639 q 96 679 78 664 l 394 939 q 424 953 411 954 q 451 935 436 951 q 465 906 467 919 q 444 878 464 893 l 146 619 z "},"2":{"ha":844,"x_min":76,"x_max":768,"o":"m 118 0 q 91 13 104 0 q 78 43 78 26 q 77 79 78 61 q 84 115 76 97 q 117 150 92 133 q 287 261 207 210 q 432 360 367 313 q 544 456 497 408 q 615 556 590 504 q 640 667 640 607 q 612 785 640 738 q 530 858 583 833 q 401 882 476 882 q 300 865 344 882 q 224 816 256 849 q 176 737 193 783 q 160 632 160 690 q 157 604 160 614 q 146 591 154 594 q 118 588 138 588 q 89 594 97 588 q 79 614 81 601 q 78 643 78 626 q 99 778 78 718 q 163 879 121 838 q 264 942 204 921 q 400 964 324 964 q 574 931 501 964 q 685 829 646 897 q 724 657 724 761 q 713 578 724 617 q 678 501 701 539 q 618 424 654 463 q 533 343 582 385 q 419 256 483 301 q 278 161 356 211 l 157 83 l 728 83 q 752 79 743 83 q 765 66 761 75 q 768 40 768 57 q 764 16 768 25 q 751 3 760 7 q 725 0 742 0 l 118 0 z "},"3":{"ha":825,"x_min":76,"x_max":749,"o":"m 413 -17 q 281 4 340 -17 q 178 61 222 25 q 108 143 133 97 q 76 239 82 189 q 118 275 76 275 q 144 270 136 275 q 155 253 151 265 q 163 219 158 240 q 219 128 182 164 q 307 76 257 93 q 414 58 357 58 q 546 86 489 58 q 635 163 603 114 q 667 272 667 211 q 635 376 667 331 q 549 447 603 421 q 426 472 494 472 q 392 476 404 472 q 376 490 381 481 q 372 514 372 499 q 376 538 372 529 q 392 550 381 546 q 428 554 404 554 q 538 576 493 554 q 605 633 582 599 q 628 706 628 668 q 602 802 628 760 q 531 868 576 844 q 424 892 485 892 q 338 879 376 892 q 266 841 299 867 q 204 774 233 815 q 178 749 188 751 q 143 763 168 747 q 128 777 133 769 q 126 794 122 785 q 152 837 136 814 q 192 883 168 860 q 249 924 217 906 q 324 955 282 943 q 421 967 367 967 q 542 947 488 967 q 633 892 596 926 q 691 811 671 857 q 711 713 711 765 q 693 630 711 669 q 644 560 675 590 q 578 514 614 531 q 656 470 624 499 q 708 407 688 442 q 739 338 729 372 q 749 275 749 303 q 706 126 749 193 q 588 22 664 60 q 413 -17 513 -17 z "},"4":{"ha":753,"x_min":76,"x_max":676,"o":"m 633 -15 q 609 -11 618 -15 q 597 2 600 -7 q 593 26 593 11 l 593 304 l 118 304 q 94 309 104 304 q 81 323 85 314 q 76 346 76 332 q 78 359 76 353 q 81 372 79 365 l 247 925 q 265 959 256 954 q 296 961 275 964 q 327 946 318 958 q 329 911 336 933 l 169 379 l 593 379 l 593 921 q 597 940 593 933 q 611 951 601 947 q 636 954 621 954 q 660 950 651 954 q 673 937 669 946 q 676 913 676 928 l 676 24 q 672 1 676 10 q 659 -12 668 -8 q 633 -15 650 -15 z "},"5":{"ha":728,"x_min":76,"x_max":651,"o":"m 358 -18 q 282 -12 317 -18 q 217 3 247 -7 q 158 29 186 14 q 103 65 131 44 q 83 81 90 75 q 76 97 76 88 q 79 110 76 103 q 90 129 82 117 q 108 148 100 143 q 122 153 117 153 q 134 150 126 153 q 156 135 142 147 q 202 101 178 117 q 261 75 226 85 q 349 65 296 65 q 463 92 414 65 q 540 168 513 118 q 568 286 568 218 q 540 401 568 351 q 463 480 511 451 q 354 508 414 508 q 301 502 328 508 q 252 484 275 496 q 211 454 229 472 q 199 442 203 446 q 190 436 196 439 q 171 431 181 431 q 140 438 161 431 q 113 451 122 444 q 103 475 103 458 l 165 910 q 172 933 168 924 q 183 949 175 943 q 207 954 192 956 l 582 954 q 603 950 596 954 q 615 937 611 946 q 618 913 618 928 q 615 890 618 899 q 603 878 611 882 q 582 875 596 875 l 244 875 l 194 533 q 244 563 217 551 q 299 582 271 575 q 354 589 328 589 l 365 589 q 474 566 422 589 q 565 503 525 543 q 628 410 604 463 q 651 297 651 357 q 613 133 651 204 q 508 22 574 63 q 358 -18 442 -18 z "},"6":{"ha":751,"x_min":76,"x_max":675,"o":"m 386 -15 q 219 27 289 -15 q 113 154 150 69 q 76 364 76 239 q 101 565 76 472 q 172 730 125 657 q 283 855 218 803 q 431 934 349 907 q 608 961 513 961 q 629 957 622 961 q 640 944 636 953 q 643 919 643 935 q 639 895 643 904 q 626 883 635 886 q 601 879 617 879 q 461 860 526 879 q 342 805 396 842 q 248 714 288 768 q 187 589 208 660 q 164 432 165 518 l 140 401 q 193 483 157 447 q 282 540 229 519 q 399 561 335 561 q 548 526 486 561 q 642 427 610 490 q 675 281 675 364 q 641 125 675 192 q 542 22 607 58 q 386 -15 478 -15 m 381 60 q 497 87 449 60 q 572 162 546 114 q 597 272 597 210 q 573 382 597 335 q 502 456 549 429 q 390 483 456 483 q 270 457 321 483 q 193 384 219 431 q 167 276 167 338 q 192 164 167 213 q 266 88 218 115 q 381 60 314 60 z "},"7":{"ha":783,"x_min":76,"x_max":707,"o":"m 279 -15 q 255 -13 264 -15 q 242 -6 246 -11 q 238 7 238 -1 q 267 181 238 94 q 342 351 296 268 q 440 510 389 433 q 534 653 490 586 q 603 777 578 721 q 621 874 628 833 l 117 874 q 92 878 101 874 q 80 891 83 882 q 76 915 76 900 q 79 939 76 931 q 90 951 82 947 q 108 954 97 954 l 667 954 q 690 947 682 954 q 703 928 699 940 q 707 899 707 917 q 679 770 707 836 q 608 634 651 704 q 514 490 564 564 q 420 337 464 415 q 349 176 376 258 q 321 4 321 93 q 317 -7 321 -3 q 303 -13 313 -11 q 279 -15 294 -15 z "},"8":{"ha":785,"x_min":76,"x_max":708,"o":"m 397 -18 q 229 17 301 -18 q 117 114 157 51 q 76 261 76 176 q 84 324 76 293 q 106 384 92 356 q 140 437 119 413 q 185 480 160 461 q 239 511 210 499 q 186 549 210 526 q 145 600 163 572 q 119 658 128 628 q 110 719 110 689 q 146 851 110 794 q 247 938 182 907 q 397 969 311 969 q 543 938 481 969 q 640 851 606 907 q 675 719 675 794 q 669 670 675 694 q 653 622 664 646 q 628 578 643 599 q 594 541 613 558 q 553 511 575 524 q 605 479 581 499 q 648 435 629 460 q 681 383 667 411 q 701 324 694 354 q 708 261 708 293 q 686 147 708 199 q 623 59 664 96 q 524 2 582 22 q 397 -18 467 -18 m 394 50 q 516 76 464 50 q 597 151 568 103 q 626 261 626 199 q 597 374 626 326 q 515 449 568 422 q 392 476 463 476 q 269 449 322 476 q 188 374 217 422 q 158 261 158 326 q 188 151 158 199 q 270 76 217 103 q 394 50 324 50 m 394 535 q 499 558 454 535 q 568 622 543 581 q 593 719 593 664 q 568 814 593 774 q 498 876 543 854 q 393 899 453 899 q 289 876 333 899 q 219 814 244 854 q 194 719 194 774 q 219 622 194 664 q 290 558 244 581 q 394 535 335 535 z "},"9":{"ha":751,"x_min":76,"x_max":675,"o":"m 143 -12 q 123 -8 131 -12 q 112 5 115 -4 q 108 29 108 14 q 113 53 108 44 q 126 66 117 63 q 150 69 135 69 q 290 88 225 69 q 410 144 356 107 q 503 235 464 181 q 565 360 543 289 q 588 517 586 431 l 611 547 q 558 467 594 503 q 470 410 522 431 q 353 390 418 390 q 204 425 267 390 q 109 523 142 460 q 76 668 76 586 q 110 824 76 757 q 210 927 144 890 q 365 964 275 964 q 532 921 463 964 q 638 794 601 878 q 675 585 675 710 q 651 384 675 476 q 580 219 626 292 q 468 94 533 146 q 321 15 403 42 q 143 -12 239 -12 m 361 465 q 482 492 432 465 q 558 565 532 518 q 585 672 585 613 q 559 785 585 736 q 486 861 533 833 q 371 889 439 889 q 254 862 303 889 q 180 788 206 835 q 154 676 154 740 q 178 567 154 615 q 249 492 203 519 q 361 465 296 465 z "},"A":{"ha":974,"x_min":19,"x_max":954,"o":"m 946 44 q 953 22 953 32 q 948 3 954 11 q 928 -11 942 -4 q 892 -13 906 -21 q 869 14 879 -6 l 486 839 l 104 17 q 81 -11 94 -4 q 44 -10 68 -18 q 25 5 31 -4 q 22 28 19 14 q 33 60 25 42 l 449 929 q 465 947 454 940 q 488 954 475 954 q 503 951 496 954 q 515 943 510 949 q 525 928 521 938 l 946 44 m 211 288 l 239 357 l 736 357 l 763 288 l 211 288 z "},"Á":{"ha":974,"x_min":19,"x_max":954,"o":"m 946 44 q 953 22 953 32 q 948 3 954 11 q 928 -11 942 -4 q 892 -13 906 -21 q 869 14 879 -6 l 486 839 l 104 17 q 81 -11 94 -4 q 44 -10 68 -18 q 25 5 31 -4 q 22 28 19 14 q 33 60 25 42 l 449 929 q 465 947 454 940 q 488 954 475 954 q 503 951 496 954 q 515 943 510 949 q 525 928 521 938 l 946 44 m 211 288 l 239 357 l 736 357 l 763 288 l 211 288 m 447 1029 q 416 1026 426 1022 q 399 1051 406 1031 q 397 1082 392 1071 q 419 1100 401 1093 l 631 1174 q 661 1175 650 1181 q 678 1149 672 1169 q 679 1119 685 1129 q 654 1101 674 1108 l 447 1029 z "},"Â":{"ha":974,"x_min":19,"x_max":954,"o":"m 946 44 q 953 22 953 32 q 948 3 954 11 q 928 -11 942 -4 q 892 -13 906 -21 q 869 14 879 -6 l 486 839 l 104 17 q 81 -11 94 -4 q 44 -10 68 -18 q 25 5 31 -4 q 22 28 19 14 q 33 60 25 42 l 449 929 q 465 947 454 940 q 488 954 475 954 q 503 951 496 954 q 515 943 510 949 q 525 928 521 938 l 946 44 m 211 288 l 239 357 l 736 357 l 763 288 l 211 288 m 482 1186 q 491 1185 488 1186 q 500 1182 494 1185 l 638 1110 q 667 1088 661 1100 q 661 1057 672 1076 q 639 1034 650 1038 q 614 1039 628 1031 l 482 1113 l 350 1039 q 326 1035 338 1032 q 303 1060 314 1039 q 299 1090 293 1079 q 326 1110 306 1100 l 464 1182 q 473 1185 469 1185 q 482 1186 476 1186 z "},"Ä":{"ha":974,"x_min":19,"x_max":954,"o":"m 946 44 q 953 22 953 32 q 948 3 954 11 q 928 -11 942 -4 q 892 -13 906 -21 q 869 14 879 -6 l 486 839 l 104 17 q 81 -11 94 -4 q 44 -10 68 -18 q 25 5 31 -4 q 22 28 19 14 q 33 60 25 42 l 449 929 q 465 947 454 940 q 488 954 475 954 q 503 951 496 954 q 515 943 510 949 q 525 928 521 938 l 946 44 m 211 288 l 239 357 l 736 357 l 763 288 l 211 288 m 563 1067 q 529 1074 539 1067 q 517 1092 519 1081 q 515 1115 515 1104 q 517 1138 515 1128 q 529 1156 519 1149 q 563 1163 539 1163 q 597 1156 588 1163 q 609 1138 607 1149 q 611 1115 611 1126 q 609 1092 611 1104 q 597 1074 607 1081 q 563 1067 588 1067 m 410 1067 q 375 1074 385 1067 q 363 1092 365 1081 q 361 1115 361 1104 q 363 1138 361 1128 q 375 1156 365 1149 q 410 1163 385 1163 q 443 1156 433 1163 q 455 1138 453 1149 q 457 1115 457 1126 q 455 1092 457 1104 q 443 1074 453 1081 q 410 1067 433 1067 z "},"À":{"ha":974,"x_min":19,"x_max":954,"o":"m 946 44 q 953 22 953 32 q 948 3 954 11 q 928 -11 942 -4 q 892 -13 906 -21 q 869 14 879 -6 l 486 839 l 104 17 q 81 -11 94 -4 q 44 -10 68 -18 q 25 5 31 -4 q 22 28 19 14 q 33 60 25 42 l 449 929 q 465 947 454 940 q 488 954 475 954 q 503 951 496 954 q 515 943 510 949 q 525 928 521 938 l 946 44 m 211 288 l 239 357 l 736 357 l 763 288 l 211 288 m 503 1043 l 296 1115 q 272 1133 278 1122 q 272 1163 267 1143 q 290 1189 279 1183 q 319 1188 301 1194 l 531 1114 q 554 1096 550 1107 q 551 1065 558 1085 q 534 1040 544 1044 q 503 1043 524 1036 z "},"Å":{"ha":974,"x_min":19,"x_max":954,"o":"m 946 44 q 953 22 953 32 q 948 3 954 11 q 928 -11 942 -4 q 892 -13 906 -21 q 869 14 879 -6 l 486 839 l 104 17 q 81 -11 94 -4 q 44 -10 68 -18 q 25 5 31 -4 q 22 28 19 14 q 33 60 25 42 l 449 929 q 465 947 454 940 q 488 954 475 954 q 503 951 496 954 q 515 943 510 949 q 525 928 521 938 l 946 44 m 211 288 l 239 357 l 736 357 l 763 288 l 211 288 m 482 1033 q 411 1053 443 1033 q 359 1105 379 1072 q 339 1176 339 1138 q 358 1248 339 1215 q 410 1300 378 1281 q 481 1319 442 1319 q 553 1301 521 1319 q 606 1250 586 1282 q 625 1178 625 1218 q 606 1105 625 1138 q 553 1053 586 1072 q 482 1033 521 1033 m 482 1096 q 538 1120 515 1096 q 561 1179 561 1144 q 539 1235 561 1213 q 481 1257 517 1257 q 424 1233 447 1257 q 401 1178 401 1210 q 424 1119 401 1143 q 482 1096 447 1096 z "},"Ã":{"ha":974,"x_min":19,"x_max":954,"o":"m 946 44 q 953 22 953 32 q 948 3 954 11 q 928 -11 942 -4 q 892 -13 906 -21 q 869 14 879 -6 l 486 839 l 104 17 q 81 -11 94 -4 q 44 -10 68 -18 q 25 5 31 -4 q 22 28 19 14 q 33 60 25 42 l 449 929 q 465 947 454 940 q 488 954 475 954 q 503 951 496 954 q 515 943 510 949 q 525 928 521 938 l 946 44 m 211 288 l 239 357 l 736 357 l 763 288 l 211 288 m 403 1157 q 463 1141 438 1157 q 509 1110 488 1125 q 550 1094 531 1094 q 570 1100 560 1094 q 590 1114 581 1106 q 603 1132 599 1122 q 624 1150 608 1146 q 653 1146 639 1154 q 668 1134 661 1142 q 675 1119 675 1126 q 658 1070 675 1093 q 613 1033 640 1047 q 550 1019 585 1019 q 499 1035 525 1019 q 450 1066 474 1050 q 403 1082 426 1082 q 370 1072 388 1082 q 346 1046 353 1061 q 326 1033 340 1036 q 297 1035 311 1029 q 281 1055 286 1042 q 282 1079 276 1068 q 311 1118 292 1100 q 355 1147 331 1136 q 403 1157 379 1157 z "},"Æ":{"ha":1594,"x_min":54,"x_max":1511,"o":"m 894 -15 q 875 -9 885 -15 q 859 8 865 -3 q 853 29 853 18 l 853 881 l 128 -4 q 110 -20 119 -17 q 92 -18 101 -24 q 71 -1 82 -12 q 56 22 58 13 q 59 40 54 31 q 74 60 64 49 l 803 940 q 819 952 810 950 q 843 954 828 954 l 1471 954 q 1495 950 1486 954 q 1508 937 1504 946 q 1511 913 1511 928 q 1508 888 1511 897 q 1498 875 1506 879 q 1478 871 1490 871 l 938 871 l 938 515 l 1310 515 q 1334 511 1325 515 q 1347 498 1343 507 q 1350 474 1350 489 q 1346 449 1350 458 q 1333 436 1342 440 q 1308 432 1324 432 l 938 432 l 938 68 l 1479 68 q 1499 64 1492 68 q 1508 51 1506 60 q 1511 26 1511 42 q 1507 2 1511 11 q 1494 -11 1503 -7 q 1469 -15 1485 -15 l 894 -15 m 308 285 l 347 353 l 883 353 l 883 285 l 308 285 z "},"B":{"ha":900,"x_min":89,"x_max":824,"o":"m 126 -15 q 106 -9 115 -15 q 93 10 97 -3 q 89 40 89 22 l 89 901 q 94 931 89 919 q 108 948 99 942 q 128 954 117 954 l 536 954 q 669 921 613 954 q 756 831 725 888 q 786 707 788 775 q 776 629 788 667 q 744 561 765 592 q 690 511 722 531 q 762 451 732 490 q 808 363 792 413 q 824 260 824 314 q 802 151 822 201 q 745 64 782 101 q 658 6 708 26 q 550 -15 608 -15 l 126 -15 m 171 60 l 536 60 q 652 86 606 60 q 722 161 699 113 q 744 275 744 210 q 727 371 744 335 q 681 426 710 407 q 619 453 653 446 q 556 462 586 461 q 503 463 525 463 l 394 463 q 367 473 376 463 q 358 504 358 483 q 368 533 358 524 q 394 542 378 542 l 503 542 q 563 543 528 542 q 631 556 597 544 q 688 600 665 568 q 710 693 710 632 q 659 832 710 786 q 494 878 608 878 l 171 878 l 171 60 z "},"C":{"ha":943,"x_min":86,"x_max":860,"o":"m 565 -14 q 411 10 483 -14 q 279 77 339 33 q 176 183 219 121 q 110 320 133 244 q 86 482 86 396 q 110 640 86 567 q 176 772 133 714 q 279 873 219 831 q 411 938 339 915 q 565 963 483 961 q 683 949 635 963 q 763 921 732 936 q 806 897 793 906 q 838 874 822 888 q 857 846 854 861 q 856 825 860 832 q 849 811 853 818 q 835 797 843 801 q 817 793 826 793 q 794 801 804 793 q 769 819 785 810 q 733 839 761 825 q 662 865 706 853 q 560 878 618 878 q 405 849 476 878 q 281 766 333 819 q 199 639 228 713 q 169 475 169 565 q 199 310 169 385 q 281 183 228 236 q 405 100 333 129 q 560 71 476 71 q 662 83 618 71 q 733 110 706 96 q 769 129 761 125 q 794 146 785 138 q 817 154 804 154 q 835 151 826 154 q 849 138 843 147 q 856 124 853 132 q 857 101 860 115 q 838 73 854 86 q 806 50 822 60 q 762 27 793 43 q 682 -1 731 11 q 565 -14 633 -14 z "},"Ç":{"ha":943,"x_min":86,"x_max":860,"o":"m 565 -14 q 411 10 483 -14 q 279 77 339 33 q 176 183 219 121 q 110 320 133 244 q 86 482 86 396 q 110 640 86 567 q 176 772 133 714 q 279 873 219 831 q 411 938 339 915 q 565 963 483 961 q 683 949 635 963 q 763 921 732 936 q 806 897 793 906 q 838 874 822 888 q 857 846 854 861 q 856 825 860 832 q 849 811 853 818 q 835 797 843 801 q 817 793 826 793 q 794 801 804 793 q 769 819 785 810 q 733 839 761 825 q 662 865 706 853 q 560 878 618 878 q 405 849 476 878 q 281 766 333 819 q 199 639 228 713 q 169 475 169 565 q 199 310 169 385 q 281 183 228 236 q 405 100 333 129 q 560 71 476 71 q 662 83 618 71 q 733 110 706 96 q 769 129 761 125 q 794 146 785 138 q 817 154 804 154 q 835 151 826 154 q 849 138 843 147 q 856 124 853 132 q 857 101 860 115 q 838 73 854 86 q 806 50 822 60 q 762 27 793 43 q 682 -1 731 11 q 565 -14 633 -14 m 519 -218 q 463 -206 492 -218 q 432 -179 433 -193 q 440 -154 431 -168 q 457 -137 451 -140 q 468 -133 463 -133 q 491 -142 474 -133 q 521 -151 508 -151 q 564 -134 546 -151 q 582 -92 582 -117 q 565 -49 582 -67 q 521 -31 547 -31 q 483 -41 497 -31 q 465 -51 469 -51 q 455 -47 461 -51 q 440 -28 449 -42 q 433 -12 435 -18 q 432 -3 431 -7 q 449 15 435 6 q 483 30 463 24 q 521 36 503 36 q 585 19 557 36 q 631 -27 614 1 q 649 -90 649 -56 q 632 -154 649 -125 q 586 -201 615 -183 q 519 -218 557 -218 z "},"D":{"ha":978,"x_min":107,"x_max":878,"o":"m 147 -15 q 126 -10 135 -15 q 112 6 117 -4 q 107 28 107 15 l 107 914 q 112 937 107 928 q 126 951 117 946 q 149 956 136 956 l 433 954 q 620 922 538 954 q 760 827 703 889 q 848 676 818 765 q 878 475 878 588 q 847 269 878 360 q 759 115 817 178 q 618 18 701 51 q 429 -15 535 -15 l 147 -15 m 189 68 l 433 68 q 628 116 547 68 q 751 253 708 164 q 794 468 794 343 q 751 685 794 594 q 627 823 708 775 q 432 871 546 871 l 189 871 l 189 68 z "},"Ð":{"ha":1019,"x_min":35,"x_max":933,"o":"m 203 -15 q 181 -10 190 -15 q 167 6 172 -4 q 163 28 163 15 l 163 914 q 167 937 163 928 q 182 951 172 946 q 204 956 192 956 l 489 954 q 676 922 593 954 q 816 827 758 889 q 903 676 874 765 q 933 475 933 588 q 903 269 933 360 q 815 115 872 178 q 674 18 757 51 q 485 -15 590 -15 l 203 -15 m 244 68 l 489 68 q 683 116 603 68 q 807 253 764 164 q 850 468 850 343 q 807 685 850 594 q 683 823 764 775 q 488 871 601 871 l 244 871 l 244 68 m 76 439 q 52 442 61 439 q 39 455 43 446 q 35 479 35 464 q 38 505 35 496 q 51 518 42 514 q 74 522 60 522 l 457 522 q 481 518 472 522 q 492 505 489 514 q 496 479 496 496 q 492 455 496 464 q 478 442 488 446 q 454 439 469 439 l 76 439 z "},"E":{"ha":875,"x_min":124,"x_max":783,"o":"m 164 -15 q 140 -11 149 -15 q 127 3 131 -7 q 124 28 124 13 l 124 913 q 133 945 124 936 q 168 954 143 954 l 743 954 q 767 950 758 954 q 780 937 776 946 q 783 911 783 928 q 779 887 783 896 q 766 874 775 878 q 742 871 757 871 l 206 871 l 206 528 l 582 528 q 606 524 597 528 q 619 510 615 519 q 624 485 624 501 q 619 460 624 469 q 606 448 615 451 q 579 444 596 444 l 206 444 l 206 68 l 743 68 q 767 64 758 68 q 780 51 776 60 q 783 26 783 42 q 779 2 783 11 q 766 -11 775 -7 q 742 -15 757 -15 l 164 -15 z "},"É":{"ha":875,"x_min":124,"x_max":783,"o":"m 164 -15 q 140 -11 149 -15 q 127 3 131 -7 q 124 28 124 13 l 124 913 q 133 945 124 936 q 168 954 143 954 l 743 954 q 767 950 758 954 q 780 937 776 946 q 783 911 783 928 q 779 887 783 896 q 766 874 775 878 q 742 871 757 871 l 206 871 l 206 528 l 582 528 q 606 524 597 528 q 619 510 615 519 q 624 485 624 501 q 619 460 624 469 q 606 448 615 451 q 579 444 596 444 l 206 444 l 206 68 l 743 68 q 767 64 758 68 q 780 51 776 60 q 783 26 783 42 q 779 2 783 11 q 766 -11 775 -7 q 742 -15 757 -15 l 164 -15 m 418 1038 q 387 1035 397 1031 q 369 1060 376 1039 q 367 1090 363 1079 q 390 1108 372 1101 l 601 1182 q 632 1183 621 1189 q 649 1157 643 1178 q 650 1127 656 1138 q 625 1110 644 1117 l 418 1038 z "},"Ê":{"ha":875,"x_min":124,"x_max":783,"o":"m 164 -15 q 140 -11 149 -15 q 127 3 131 -7 q 124 28 124 13 l 124 913 q 133 945 124 936 q 168 954 143 954 l 743 954 q 767 950 758 954 q 780 937 776 946 q 783 911 783 928 q 779 887 783 896 q 766 874 775 878 q 742 871 757 871 l 206 871 l 206 528 l 582 528 q 606 524 597 528 q 619 510 615 519 q 624 485 624 501 q 619 460 624 469 q 606 448 615 451 q 579 444 596 444 l 206 444 l 206 68 l 743 68 q 767 64 758 68 q 780 51 776 60 q 783 26 783 42 q 779 2 783 11 q 766 -11 775 -7 q 742 -15 757 -15 l 164 -15 m 443 1186 q 452 1185 449 1186 q 461 1182 456 1185 l 599 1110 q 628 1088 622 1100 q 622 1057 633 1076 q 600 1034 611 1038 q 575 1039 589 1031 l 443 1113 l 311 1039 q 287 1035 299 1032 q 264 1060 275 1039 q 260 1090 254 1079 q 288 1110 267 1100 l 425 1182 q 434 1185 431 1185 q 443 1186 438 1186 z "},"Ë":{"ha":875,"x_min":124,"x_max":783,"o":"m 164 -15 q 140 -11 149 -15 q 127 3 131 -7 q 124 28 124 13 l 124 913 q 133 945 124 936 q 168 954 143 954 l 743 954 q 767 950 758 954 q 780 937 776 946 q 783 911 783 928 q 779 887 783 896 q 766 874 775 878 q 742 871 757 871 l 206 871 l 206 528 l 582 528 q 606 524 597 528 q 619 510 615 519 q 624 485 624 501 q 619 460 624 469 q 606 448 615 451 q 579 444 596 444 l 206 444 l 206 68 l 743 68 q 767 64 758 68 q 780 51 776 60 q 783 26 783 42 q 779 2 783 11 q 766 -11 775 -7 q 742 -15 757 -15 l 164 -15 m 524 1067 q 490 1074 500 1067 q 478 1092 481 1081 q 476 1115 476 1104 q 478 1138 476 1128 q 490 1156 481 1149 q 524 1163 500 1163 q 558 1156 549 1163 q 570 1138 568 1149 q 572 1115 572 1126 q 570 1092 572 1104 q 558 1074 568 1081 q 524 1067 549 1067 m 371 1067 q 336 1074 346 1067 q 324 1092 326 1081 q 322 1115 322 1104 q 324 1138 322 1128 q 336 1156 326 1149 q 371 1163 346 1163 q 404 1156 394 1163 q 416 1138 414 1149 q 418 1115 418 1126 q 416 1092 418 1104 q 404 1074 414 1081 q 371 1067 394 1067 z "},"È":{"ha":875,"x_min":124,"x_max":783,"o":"m 164 -15 q 140 -11 149 -15 q 127 3 131 -7 q 124 28 124 13 l 124 913 q 133 945 124 936 q 168 954 143 954 l 743 954 q 767 950 758 954 q 780 937 776 946 q 783 911 783 928 q 779 887 783 896 q 766 874 775 878 q 742 871 757 871 l 206 871 l 206 528 l 582 528 q 606 524 597 528 q 619 510 615 519 q 624 485 624 501 q 619 460 624 469 q 606 448 615 451 q 579 444 596 444 l 206 444 l 206 68 l 743 68 q 767 64 758 68 q 780 51 776 60 q 783 26 783 42 q 779 2 783 11 q 766 -11 775 -7 q 742 -15 757 -15 l 164 -15 m 449 1043 l 242 1115 q 218 1133 224 1122 q 218 1163 213 1143 q 236 1189 225 1183 q 265 1188 247 1194 l 476 1114 q 500 1096 496 1107 q 497 1065 504 1085 q 480 1040 490 1044 q 449 1043 469 1036 z "},"F":{"ha":885,"x_min":124,"x_max":782,"o":"m 164 -15 q 140 -11 149 -15 q 127 3 131 -7 q 124 28 124 13 l 124 913 q 133 945 124 936 q 168 954 143 954 l 743 954 q 767 950 758 954 q 778 937 775 946 q 782 911 782 928 q 778 887 782 896 q 765 874 774 878 q 740 871 756 871 l 206 871 l 206 528 l 581 528 q 605 524 596 528 q 618 510 614 519 q 622 485 622 501 q 618 460 622 469 q 605 448 614 451 q 579 444 596 444 l 206 444 l 206 26 q 201 2 206 11 q 188 -11 197 -7 q 164 -15 179 -15 z "},"G":{"ha":978,"x_min":88,"x_max":872,"o":"m 551 -14 q 356 20 442 -14 q 210 119 269 54 q 119 276 150 183 q 88 486 88 368 q 120 683 88 596 q 215 832 153 771 q 365 927 276 893 q 567 963 454 961 q 653 955 610 963 q 735 933 696 947 q 807 897 775 918 q 843 870 829 883 q 858 846 857 857 q 858 829 861 839 q 850 811 856 819 q 836 798 844 803 q 818 793 828 793 q 803 800 815 793 q 771 819 790 807 q 709 851 743 838 q 638 871 675 864 q 561 878 600 878 q 353 831 440 878 q 219 694 265 783 q 171 481 172 606 q 219 260 172 351 q 351 119 265 168 q 557 69 438 69 q 636 76 596 69 q 715 96 676 83 q 789 126 754 108 l 789 444 l 499 444 q 474 448 483 444 q 460 460 464 451 q 456 485 456 469 q 460 510 456 501 q 473 524 464 519 q 497 528 482 528 l 819 528 q 849 522 838 528 q 866 504 860 515 q 872 475 872 493 l 872 114 q 851 79 872 97 q 790 42 831 61 q 721 14 760 26 q 639 -6 682 1 q 551 -14 596 -14 z "},"H":{"ha":971,"x_min":122,"x_max":849,"o":"m 807 -15 q 783 -11 792 -15 q 770 3 774 -7 q 767 28 767 13 l 767 913 q 771 937 767 928 q 784 950 775 946 q 808 954 793 954 q 833 950 824 954 q 845 937 842 946 q 849 911 849 928 l 849 26 q 844 2 849 11 q 831 -11 840 -7 q 807 -15 822 -15 m 163 -15 q 138 -11 147 -15 q 126 3 129 -7 q 122 28 122 13 l 122 913 q 126 937 122 928 q 140 950 131 946 q 164 954 149 954 q 188 950 179 954 q 201 937 197 946 q 204 911 204 928 l 204 26 q 200 2 204 11 q 187 -11 196 -7 q 163 -15 178 -15 m 136 444 l 136 528 l 789 528 l 788 444 l 136 444 z "},"I":{"ha":290,"x_min":104,"x_max":186,"o":"m 144 -15 q 120 -11 129 -15 q 108 3 111 -7 q 104 28 104 13 l 104 913 q 108 937 104 928 q 122 950 113 946 q 146 954 131 954 q 170 950 161 954 q 183 937 179 946 q 186 911 186 928 l 186 26 q 182 2 186 11 q 169 -11 178 -7 q 144 -15 160 -15 z "},"Í":{"ha":290,"x_min":49,"x_max":342,"o":"m 144 -15 q 120 -11 129 -15 q 108 3 111 -7 q 104 28 104 13 l 104 913 q 108 937 104 928 q 122 950 113 946 q 146 954 131 954 q 170 950 161 954 q 183 937 179 946 q 186 911 186 928 l 186 26 q 182 2 186 11 q 169 -11 178 -7 q 144 -15 160 -15 m 104 1029 q 73 1026 83 1022 q 56 1051 63 1031 q 53 1082 49 1071 q 76 1100 58 1093 l 288 1174 q 318 1175 307 1181 q 335 1149 329 1169 q 336 1119 342 1129 q 311 1101 331 1108 l 104 1029 z "},"Î":{"ha":290,"x_min":-50,"x_max":329,"o":"m 144 -15 q 120 -11 129 -15 q 108 3 111 -7 q 104 28 104 13 l 104 913 q 108 937 104 928 q 122 950 113 946 q 146 954 131 954 q 170 950 161 954 q 183 937 179 946 q 186 911 186 928 l 186 26 q 182 2 186 11 q 169 -11 178 -7 q 144 -15 160 -15 m 139 1186 q 148 1185 144 1186 q 157 1182 151 1185 l 294 1110 q 324 1088 318 1100 q 318 1057 329 1076 q 296 1034 307 1038 q 271 1039 285 1031 l 139 1113 l 7 1039 q -17 1035 -6 1032 q -40 1060 -29 1039 q -44 1090 -50 1079 q -17 1110 -37 1100 l 121 1182 q 130 1185 126 1185 q 139 1186 133 1186 z "},"Ï":{"ha":290,"x_min":18,"x_max":268,"o":"m 144 -15 q 120 -11 129 -15 q 108 3 111 -7 q 104 28 104 13 l 104 913 q 108 937 104 928 q 122 950 113 946 q 146 954 131 954 q 170 950 161 954 q 183 937 179 946 q 186 911 186 928 l 186 26 q 182 2 186 11 q 169 -11 178 -7 q 144 -15 160 -15 m 219 1067 q 186 1074 196 1067 q 174 1092 176 1081 q 172 1115 172 1104 q 174 1138 172 1128 q 186 1156 176 1149 q 219 1163 196 1163 q 254 1156 244 1163 q 266 1138 264 1149 q 268 1115 268 1126 q 266 1092 268 1104 q 254 1074 264 1081 q 219 1067 244 1067 m 67 1067 q 32 1074 42 1067 q 20 1092 22 1081 q 18 1115 18 1104 q 20 1138 18 1128 q 32 1156 22 1149 q 67 1163 42 1163 q 100 1156 90 1163 q 112 1138 110 1149 q 114 1115 114 1126 q 112 1092 114 1104 q 100 1074 110 1081 q 67 1067 90 1067 z "},"Ì":{"ha":290,"x_min":-92,"x_max":200,"o":"m 144 -15 q 120 -11 129 -15 q 108 3 111 -7 q 104 28 104 13 l 104 913 q 108 937 104 928 q 122 950 113 946 q 146 954 131 954 q 170 950 161 954 q 183 937 179 946 q 186 911 186 928 l 186 26 q 182 2 186 11 q 169 -11 178 -7 q 144 -15 160 -15 m 144 1043 l -62 1115 q -86 1133 -81 1122 q -86 1163 -92 1143 q -68 1189 -79 1183 q -39 1188 -57 1194 l 172 1114 q 196 1096 192 1107 q 193 1065 200 1085 q 176 1040 186 1044 q 144 1043 165 1036 z "},"J":{"ha":763,"x_min":69,"x_max":636,"o":"m 346 -15 q 276 -8 311 -15 q 210 12 242 -1 q 150 44 178 25 q 100 85 122 63 q 78 108 86 99 q 69 125 69 118 q 76 143 69 133 q 88 157 83 153 q 106 172 100 169 q 119 175 113 175 q 143 163 135 175 q 178 129 151 151 q 221 101 194 117 q 281 74 247 85 q 351 63 314 63 q 444 82 406 63 q 506 137 482 101 q 542 220 531 172 q 554 324 554 268 l 554 901 q 558 933 554 921 q 572 949 563 944 q 599 954 582 954 q 621 950 613 954 q 633 937 629 946 q 636 911 636 928 l 636 313 q 619 178 636 239 q 566 75 601 118 q 476 8 531 32 q 346 -15 421 -15 z "},"K":{"ha":818,"x_min":110,"x_max":740,"o":"m 150 -15 q 126 -11 135 -15 q 113 2 117 -7 q 110 26 110 11 l 110 914 q 114 938 110 929 q 127 951 118 947 q 151 954 136 954 q 176 950 167 954 q 189 937 185 946 q 193 913 193 928 l 193 529 l 658 942 q 680 956 671 953 q 698 954 689 958 q 717 939 707 950 q 732 908 733 921 q 713 881 731 896 l 251 472 l 719 57 q 739 29 738 42 q 724 -1 740 17 q 705 -17 714 -12 q 687 -18 696 -21 q 665 -4 678 -15 l 193 414 l 193 25 q 189 1 193 10 q 176 -12 185 -8 q 150 -15 167 -15 z "},"L":{"ha":769,"x_min":97,"x_max":728,"o":"m 142 -15 q 115 -11 125 -15 q 101 2 106 -7 q 97 26 97 11 l 97 911 q 101 937 97 928 q 113 950 104 946 q 138 954 122 954 q 162 950 153 954 q 175 937 171 946 q 179 913 179 928 l 179 68 l 686 68 q 710 65 701 68 q 724 52 719 61 q 728 28 728 43 q 724 3 728 13 q 713 -11 721 -7 q 689 -15 704 -15 l 142 -15 z "},"Ł":{"ha":832,"x_min":18,"x_max":797,"o":"m 78 319 q 44 317 57 313 q 25 344 32 322 q 22 380 18 368 q 49 399 26 392 l 410 525 q 441 526 431 532 q 460 497 451 521 q 462 463 468 475 q 435 444 456 451 l 78 319 m 211 -15 q 185 -11 194 -15 q 171 2 175 -7 q 167 26 167 11 l 167 911 q 170 937 167 928 q 183 950 174 946 q 207 954 192 954 q 231 950 222 954 q 244 937 240 946 q 249 913 249 928 l 249 68 l 756 68 q 780 65 771 68 q 793 52 789 61 q 797 28 797 43 q 794 3 797 13 q 782 -11 790 -7 q 758 -15 774 -15 l 211 -15 z "},"M":{"ha":1153,"x_min":115,"x_max":1038,"o":"m 156 -15 q 134 -10 143 -15 q 120 4 125 -6 q 115 28 115 14 l 115 914 q 120 936 115 928 q 135 949 125 944 q 158 954 144 954 q 182 953 172 954 q 199 947 192 951 q 214 935 207 943 l 603 357 l 547 357 l 942 940 q 955 950 947 947 q 973 953 963 953 q 996 954 983 954 q 1019 949 1010 954 q 1033 935 1028 944 q 1038 911 1038 925 l 1038 25 q 1033 3 1038 13 q 1018 -10 1028 -6 q 994 -15 1008 -15 q 973 -10 982 -15 q 959 4 964 -6 q 954 28 954 14 l 954 825 l 613 315 q 603 306 608 310 q 590 299 597 301 q 575 297 583 297 q 561 299 567 297 q 551 306 556 301 q 538 318 546 310 l 197 825 l 197 25 q 192 3 197 13 q 178 -10 188 -6 q 156 -15 169 -15 z "},"N":{"ha":1000,"x_min":107,"x_max":865,"o":"m 146 -14 q 125 -9 133 -14 q 112 6 117 -4 q 107 29 107 15 l 107 918 q 113 938 107 931 q 128 950 118 946 q 153 954 139 954 q 183 952 174 954 q 203 939 193 950 l 783 110 l 783 918 q 788 938 783 931 q 803 950 793 946 q 826 954 813 954 q 848 949 839 954 q 861 935 857 944 q 865 911 865 925 l 865 28 q 859 5 865 14 q 842 -9 853 -4 q 817 -14 831 -14 q 792 -10 803 -14 q 769 8 781 -6 l 189 828 l 189 28 q 184 5 189 14 q 169 -9 179 -4 q 146 -14 160 -14 z "},"Ñ":{"ha":1000,"x_min":107,"x_max":865,"o":"m 146 -14 q 125 -9 133 -14 q 112 6 117 -4 q 107 29 107 15 l 107 918 q 113 938 107 931 q 128 950 118 946 q 153 954 139 954 q 183 952 174 954 q 203 939 193 950 l 783 110 l 783 918 q 788 938 783 931 q 803 950 793 946 q 826 954 813 954 q 848 949 839 954 q 861 935 857 944 q 865 911 865 925 l 865 28 q 859 5 865 14 q 842 -9 853 -4 q 817 -14 831 -14 q 792 -10 803 -14 q 769 8 781 -6 l 189 828 l 189 28 q 184 5 189 14 q 169 -9 179 -4 q 146 -14 160 -14 m 421 1157 q 481 1141 456 1157 q 527 1110 506 1125 q 568 1094 549 1094 q 588 1100 578 1094 q 608 1114 599 1106 q 621 1132 617 1122 q 642 1150 626 1146 q 671 1146 657 1154 q 686 1134 679 1142 q 693 1119 693 1126 q 676 1070 693 1093 q 631 1033 658 1047 q 568 1019 603 1019 q 517 1035 543 1019 q 468 1066 492 1050 q 421 1082 444 1082 q 388 1072 406 1082 q 364 1046 371 1061 q 344 1033 358 1036 q 315 1035 329 1029 q 299 1055 304 1042 q 300 1079 294 1068 q 329 1118 310 1100 q 373 1147 349 1136 q 421 1157 397 1157 z "},"O":{"ha":1021,"x_min":42,"x_max":979,"o":"m 518 -22 q 333 15 419 -22 q 181 119 247 53 q 78 274 115 186 q 42 461 42 361 q 78 654 42 564 q 178 813 114 744 q 326 919 242 881 q 506 958 410 958 q 690 921 604 958 q 841 816 776 883 q 942 659 906 749 q 979 467 979 569 q 943 278 979 367 q 843 122 907 190 q 696 16 779 54 q 518 -22 613 -22 m 510 61 q 660 92 590 61 q 783 180 731 124 q 866 310 836 236 q 896 468 896 383 q 866 625 896 551 q 783 755 836 699 q 660 843 729 811 q 511 875 590 875 q 362 843 432 875 q 238 756 292 811 q 155 626 185 700 q 125 467 125 551 q 156 310 125 383 q 239 181 186 236 q 361 93 292 125 q 510 61 431 61 z "},"Ó":{"ha":1021,"x_min":42,"x_max":979,"o":"m 518 -22 q 333 15 419 -22 q 181 119 247 53 q 78 274 115 186 q 42 461 42 361 q 78 654 42 564 q 178 813 114 744 q 326 919 242 881 q 506 958 410 958 q 690 921 604 958 q 841 816 776 883 q 942 659 906 749 q 979 467 979 569 q 943 278 979 367 q 843 122 907 190 q 696 16 779 54 q 518 -22 613 -22 m 510 61 q 660 92 590 61 q 783 180 731 124 q 866 310 836 236 q 896 468 896 383 q 866 625 896 551 q 783 755 836 699 q 660 843 729 811 q 511 875 590 875 q 362 843 432 875 q 238 756 292 811 q 155 626 185 700 q 125 467 125 551 q 156 310 125 383 q 239 181 186 236 q 361 93 292 125 q 510 61 431 61 m 476 1029 q 445 1026 456 1022 q 428 1051 435 1031 q 426 1082 421 1071 q 449 1100 431 1093 l 660 1174 q 690 1175 679 1181 q 707 1149 701 1169 q 708 1119 714 1129 q 683 1101 703 1108 l 476 1029 z "},"Ô":{"ha":1021,"x_min":42,"x_max":979,"o":"m 518 -22 q 333 15 419 -22 q 181 119 247 53 q 78 274 115 186 q 42 461 42 361 q 78 654 42 564 q 178 813 114 744 q 326 919 242 881 q 506 958 410 958 q 690 921 604 958 q 841 816 776 883 q 942 659 906 749 q 979 467 979 569 q 943 278 979 367 q 843 122 907 190 q 696 16 779 54 q 518 -22 613 -22 m 510 61 q 660 92 590 61 q 783 180 731 124 q 866 310 836 236 q 896 468 896 383 q 866 625 896 551 q 783 755 836 699 q 660 843 729 811 q 511 875 590 875 q 362 843 432 875 q 238 756 292 811 q 155 626 185 700 q 125 467 125 551 q 156 310 125 383 q 239 181 186 236 q 361 93 292 125 q 510 61 431 61 m 511 1186 q 520 1185 517 1186 q 529 1182 524 1185 l 667 1110 q 696 1088 690 1100 q 690 1057 701 1076 q 668 1034 679 1038 q 643 1039 657 1031 l 511 1113 l 379 1039 q 355 1035 367 1032 q 332 1060 343 1039 q 328 1090 322 1079 q 356 1110 335 1100 l 493 1182 q 502 1185 499 1185 q 511 1186 506 1186 z "},"Ö":{"ha":1021,"x_min":42,"x_max":979,"o":"m 518 -22 q 333 15 419 -22 q 181 119 247 53 q 78 274 115 186 q 42 461 42 361 q 78 654 42 564 q 178 813 114 744 q 326 919 242 881 q 506 958 410 958 q 690 921 604 958 q 841 816 776 883 q 942 659 906 749 q 979 467 979 569 q 943 278 979 367 q 843 122 907 190 q 696 16 779 54 q 518 -22 613 -22 m 510 61 q 660 92 590 61 q 783 180 731 124 q 866 310 836 236 q 896 468 896 383 q 866 625 896 551 q 783 755 836 699 q 660 843 729 811 q 511 875 590 875 q 362 843 432 875 q 238 756 292 811 q 155 626 185 700 q 125 467 125 551 q 156 310 125 383 q 239 181 186 236 q 361 93 292 125 q 510 61 431 61 m 592 1067 q 558 1074 568 1067 q 547 1092 549 1081 q 544 1115 544 1104 q 547 1138 544 1128 q 558 1156 549 1149 q 592 1163 568 1163 q 626 1156 617 1163 q 638 1138 636 1149 q 640 1115 640 1126 q 638 1092 640 1104 q 626 1074 636 1081 q 592 1067 617 1067 m 439 1067 q 404 1074 414 1067 q 392 1092 394 1081 q 390 1115 390 1104 q 392 1138 390 1128 q 404 1156 394 1149 q 439 1163 414 1163 q 472 1156 463 1163 q 484 1138 482 1149 q 486 1115 486 1126 q 484 1092 486 1104 q 472 1074 482 1081 q 439 1067 463 1067 z "},"Ò":{"ha":1021,"x_min":42,"x_max":979,"o":"m 518 -22 q 333 15 419 -22 q 181 119 247 53 q 78 274 115 186 q 42 461 42 361 q 78 654 42 564 q 178 813 114 744 q 326 919 242 881 q 506 958 410 958 q 690 921 604 958 q 841 816 776 883 q 942 659 906 749 q 979 467 979 569 q 943 278 979 367 q 843 122 907 190 q 696 16 779 54 q 518 -22 613 -22 m 510 61 q 660 92 590 61 q 783 180 731 124 q 866 310 836 236 q 896 468 896 383 q 866 625 896 551 q 783 755 836 699 q 660 843 729 811 q 511 875 590 875 q 362 843 432 875 q 238 756 292 811 q 155 626 185 700 q 125 467 125 551 q 156 310 125 383 q 239 181 186 236 q 361 93 292 125 q 510 61 431 61 m 517 1043 l 310 1115 q 286 1133 292 1122 q 286 1163 281 1143 q 304 1189 293 1183 q 333 1188 315 1194 l 544 1114 q 568 1096 564 1107 q 565 1065 572 1085 q 548 1040 558 1044 q 517 1043 538 1036 z "},"Ø":{"ha":1021,"x_min":42,"x_max":979,"o":"m 518 -22 q 333 15 419 -22 q 181 119 247 53 q 78 274 115 186 q 42 461 42 361 q 78 654 42 564 q 178 813 114 744 q 326 919 242 881 q 506 958 410 958 q 690 921 604 958 q 841 816 776 883 q 942 659 906 749 q 979 467 979 569 q 943 278 979 367 q 843 122 907 190 q 696 16 779 54 q 518 -22 613 -22 m 510 61 q 660 92 590 61 q 783 180 731 124 q 866 310 836 236 q 896 468 896 383 q 866 625 896 551 q 783 755 836 699 q 660 843 729 811 q 511 875 590 875 q 362 843 432 875 q 238 756 292 811 q 155 626 185 700 q 125 467 125 551 q 156 310 125 383 q 239 181 186 236 q 361 93 292 125 q 510 61 431 61 m 267 -36 q 244 -14 247 -26 q 250 19 240 -1 l 693 954 q 716 980 704 975 q 749 974 728 985 q 772 951 768 964 q 765 918 775 939 l 324 -17 q 301 -42 314 -37 q 267 -36 289 -46 z "},"Õ":{"ha":1021,"x_min":42,"x_max":979,"o":"m 518 -22 q 333 15 419 -22 q 181 119 247 53 q 78 274 115 186 q 42 461 42 361 q 78 654 42 564 q 178 813 114 744 q 326 919 242 881 q 506 958 410 958 q 690 921 604 958 q 841 816 776 883 q 942 659 906 749 q 979 467 979 569 q 943 278 979 367 q 843 122 907 190 q 696 16 779 54 q 518 -22 613 -22 m 510 61 q 660 92 590 61 q 783 180 731 124 q 866 310 836 236 q 896 468 896 383 q 866 625 896 551 q 783 755 836 699 q 660 843 729 811 q 511 875 590 875 q 362 843 432 875 q 238 756 292 811 q 155 626 185 700 q 125 467 125 551 q 156 310 125 383 q 239 181 186 236 q 361 93 292 125 q 510 61 431 61 m 432 1157 q 492 1141 467 1157 q 538 1110 517 1125 q 579 1094 560 1094 q 599 1100 589 1094 q 619 1114 610 1106 q 632 1132 628 1122 q 653 1150 638 1146 q 682 1146 668 1154 q 697 1134 690 1142 q 704 1119 704 1126 q 687 1070 704 1093 q 642 1033 669 1047 q 579 1019 614 1019 q 528 1035 554 1019 q 479 1066 503 1050 q 432 1082 456 1082 q 399 1072 417 1082 q 375 1046 382 1061 q 355 1033 369 1036 q 326 1035 340 1029 q 310 1055 315 1042 q 311 1079 306 1068 q 340 1118 321 1100 q 384 1147 360 1136 q 432 1157 408 1157 z "},"Œ":{"ha":1497,"x_min":76,"x_max":1421,"o":"m 499 -15 q 326 19 404 -15 q 192 118 249 54 q 106 271 136 182 q 76 468 76 360 q 106 664 76 575 q 192 818 136 753 q 324 919 247 883 q 496 954 401 954 l 1381 954 q 1405 950 1396 954 q 1417 937 1414 946 q 1421 911 1421 928 q 1417 888 1421 896 q 1403 876 1413 879 q 1379 872 1394 872 l 843 872 l 843 517 l 1219 517 q 1244 513 1235 517 q 1256 499 1253 508 q 1260 474 1260 490 q 1256 449 1260 458 q 1242 437 1251 440 q 1217 433 1233 433 l 843 433 l 843 65 l 1381 65 q 1405 62 1396 65 q 1417 50 1414 58 q 1421 25 1421 42 q 1417 1 1421 10 q 1403 -12 1413 -8 q 1379 -15 1394 -15 l 499 -15 m 493 65 l 760 65 l 760 872 l 493 872 q 318 821 393 872 q 201 680 243 769 q 160 472 160 590 q 201 258 160 350 q 318 116 243 167 q 493 65 393 65 z "},"P":{"ha":838,"x_min":111,"x_max":763,"o":"m 151 -15 q 127 -11 136 -15 q 115 3 118 -7 q 111 28 111 13 l 111 913 q 116 935 111 926 q 131 949 121 944 q 153 954 140 954 l 465 954 q 591 934 536 954 q 684 874 646 914 q 742 779 722 835 q 763 653 763 724 q 742 527 763 582 q 683 433 722 472 q 590 374 644 394 q 464 354 535 354 l 194 354 l 194 26 q 190 2 194 11 q 177 -11 186 -7 q 151 -15 168 -15 m 194 438 l 465 438 q 581 463 533 438 q 655 538 629 489 q 681 656 681 588 q 655 772 681 724 q 581 845 629 819 q 464 871 532 871 l 194 871 l 194 438 z "},"Þ":{"ha":817,"x_min":104,"x_max":756,"o":"m 144 -15 q 120 -11 129 -15 q 108 3 111 -7 q 104 28 104 13 l 104 913 q 108 937 104 928 q 122 950 113 946 q 146 954 131 954 q 170 950 161 954 q 183 937 179 946 q 188 911 188 928 l 188 775 l 458 775 q 573 751 519 775 q 667 687 626 728 q 732 591 708 646 q 756 474 756 536 q 732 357 756 411 q 667 262 708 303 q 572 198 626 221 q 457 175 518 175 l 188 175 l 188 26 q 183 2 188 11 q 170 -11 179 -7 q 144 -15 161 -15 m 188 258 l 458 258 q 567 288 518 258 q 644 366 615 317 q 674 475 674 415 q 644 585 674 536 q 566 663 615 635 q 457 692 517 692 l 188 692 l 188 258 z "},"Q":{"ha":1139,"x_min":42,"x_max":1097,"o":"m 1074 75 q 1095 49 1093 61 q 1085 18 1097 38 q 1068 1 1076 6 q 1050 -2 1060 -4 q 1028 8 1040 0 l 850 129 q 701 19 786 60 q 518 -22 615 -22 q 333 15 419 -22 q 181 119 247 53 q 78 274 115 186 q 42 461 42 361 q 78 654 42 564 q 178 813 114 744 q 326 919 242 881 q 506 958 410 958 q 690 921 604 958 q 841 816 776 883 q 942 659 906 749 q 979 467 979 569 q 958 322 979 392 q 899 194 938 253 l 1074 75 m 510 61 q 660 92 590 61 q 783 180 731 124 q 866 310 836 236 q 896 468 896 383 q 866 625 896 551 q 783 755 836 699 q 660 843 729 811 q 511 875 590 875 q 362 843 432 875 q 238 756 292 811 q 155 626 185 700 q 125 467 125 551 q 156 310 125 383 q 239 181 186 236 q 361 93 292 125 q 510 61 431 61 z "},"R":{"ha":876,"x_min":124,"x_max":793,"o":"m 164 -15 q 140 -11 149 -15 q 127 3 131 -7 q 124 28 124 13 l 124 914 q 128 936 124 928 q 142 949 133 944 q 165 954 151 954 l 481 954 q 609 935 554 954 q 701 878 664 915 q 758 784 739 840 q 776 654 776 728 q 763 560 776 611 q 719 463 749 508 q 642 388 690 417 q 525 358 594 358 l 206 358 l 206 26 q 201 2 206 11 q 188 -11 197 -7 q 164 -15 179 -15 m 764 -6 q 731 -10 746 -15 q 707 14 717 -4 l 496 372 l 582 388 l 781 57 q 792 31 790 42 q 786 11 793 19 q 764 -6 779 3 m 206 438 l 522 438 q 591 451 560 438 q 645 493 622 465 q 681 561 668 521 q 694 656 694 601 q 670 774 694 726 q 598 847 646 822 q 478 871 550 871 l 206 871 l 206 438 z "},"S":{"ha":775,"x_min":68,"x_max":706,"o":"m 376 -28 q 292 -18 335 -28 q 211 10 250 -8 q 140 56 172 29 q 86 118 107 83 q 72 145 76 135 q 72 165 68 156 q 90 185 75 175 q 121 195 108 197 q 143 182 133 193 q 164 154 153 171 q 258 78 199 103 q 371 54 317 54 q 499 74 442 54 q 590 133 556 93 q 624 235 624 172 q 602 322 624 286 q 543 383 581 358 q 460 426 506 408 q 367 458 415 443 q 287 486 326 471 q 213 522 247 501 q 151 569 178 542 q 110 633 125 596 q 94 722 94 671 q 130 851 94 796 q 229 937 165 906 q 378 968 293 968 q 465 958 424 968 q 541 933 507 949 q 601 898 575 917 q 642 860 626 879 q 663 825 660 839 q 646 794 665 811 q 615 781 629 781 q 586 799 601 782 q 520 855 554 836 q 451 880 486 874 q 376 886 415 886 q 297 876 333 886 q 233 844 260 865 q 191 792 206 822 q 176 721 176 761 q 195 649 176 679 q 247 598 214 619 q 320 560 279 576 q 406 529 361 543 q 513 490 460 513 q 610 436 567 468 q 679 356 653 404 q 706 239 706 308 q 681 126 706 176 q 612 42 657 76 q 507 -10 567 8 q 376 -28 447 -28 z "},"Š":{"ha":775,"x_min":68,"x_max":706,"o":"m 376 -28 q 292 -18 335 -28 q 211 10 250 -8 q 140 56 172 29 q 86 118 107 83 q 72 145 76 135 q 72 165 68 156 q 90 185 75 175 q 121 195 108 197 q 143 182 133 193 q 164 154 153 171 q 258 78 199 103 q 371 54 317 54 q 499 74 442 54 q 590 133 556 93 q 624 235 624 172 q 602 322 624 286 q 543 383 581 358 q 460 426 506 408 q 367 458 415 443 q 287 486 326 471 q 213 522 247 501 q 151 569 178 542 q 110 633 125 596 q 94 722 94 671 q 130 851 94 796 q 229 937 165 906 q 378 968 293 968 q 465 958 424 968 q 541 933 507 949 q 601 898 575 917 q 642 860 626 879 q 663 825 660 839 q 646 794 665 811 q 615 781 629 781 q 586 799 601 782 q 520 855 554 836 q 451 880 486 874 q 376 886 415 886 q 297 876 333 886 q 233 844 260 865 q 191 792 206 822 q 176 721 176 761 q 195 649 176 679 q 247 598 214 619 q 320 560 279 576 q 406 529 361 543 q 513 490 460 513 q 610 436 567 468 q 679 356 653 404 q 706 239 706 308 q 681 126 706 176 q 612 42 657 76 q 507 -10 567 8 q 376 -28 447 -28 m 379 1107 l 511 1181 q 528 1187 521 1186 q 544 1182 536 1188 q 558 1163 551 1176 q 564 1132 569 1143 q 535 1110 558 1121 l 397 1038 q 388 1034 392 1035 q 379 1033 385 1033 q 370 1034 374 1033 q 361 1038 367 1035 l 224 1110 q 197 1131 203 1121 q 200 1160 190 1142 q 216 1180 208 1174 q 231 1186 224 1186 q 247 1181 239 1186 l 379 1107 z "},"T":{"ha":933,"x_min":63,"x_max":871,"o":"m 832 954 q 856 950 847 954 q 867 937 864 946 q 871 911 871 928 q 867 887 871 896 q 853 874 863 878 q 829 871 844 871 l 510 871 l 510 26 q 506 2 510 11 q 492 -11 501 -7 q 468 -15 483 -15 q 444 -11 453 -15 q 431 3 435 -7 q 428 28 428 13 l 428 871 l 104 871 q 80 874 89 871 q 67 887 71 878 q 63 911 63 896 q 66 937 63 928 q 78 950 69 946 q 101 954 88 954 l 832 954 z "},"U":{"ha":1008,"x_min":121,"x_max":888,"o":"m 501 -15 q 342 14 413 -15 q 222 99 271 43 q 147 235 172 156 q 121 417 121 315 l 121 913 q 125 937 121 928 q 138 950 129 946 q 163 954 147 954 q 188 950 179 954 q 201 937 197 946 q 206 911 206 928 l 206 417 q 241 230 206 308 q 344 109 276 151 q 506 67 411 67 q 667 109 600 67 q 769 230 733 151 q 804 418 804 308 l 804 921 q 808 940 804 933 q 822 951 813 947 q 847 954 832 954 q 872 950 863 954 q 884 937 881 946 q 888 911 888 928 l 888 414 q 862 233 888 313 q 786 99 836 154 q 665 14 736 43 q 501 -15 593 -15 z "},"Ú":{"ha":1008,"x_min":121,"x_max":888,"o":"m 501 -15 q 342 14 413 -15 q 222 99 271 43 q 147 235 172 156 q 121 417 121 315 l 121 913 q 125 937 121 928 q 138 950 129 946 q 163 954 147 954 q 188 950 179 954 q 201 937 197 946 q 206 911 206 928 l 206 417 q 241 230 206 308 q 344 109 276 151 q 506 67 411 67 q 667 109 600 67 q 769 230 733 151 q 804 418 804 308 l 804 921 q 808 940 804 933 q 822 951 813 947 q 847 954 832 954 q 872 950 863 954 q 884 937 881 946 q 888 911 888 928 l 888 414 q 862 233 888 313 q 786 99 836 154 q 665 14 736 43 q 501 -15 593 -15 m 467 1029 q 435 1026 446 1022 q 418 1051 425 1031 q 416 1082 411 1071 q 439 1100 421 1093 l 650 1174 q 681 1175 669 1181 q 697 1149 692 1169 q 699 1119 704 1129 q 674 1101 693 1108 l 467 1029 z "},"Û":{"ha":1008,"x_min":121,"x_max":888,"o":"m 501 -15 q 342 14 413 -15 q 222 99 271 43 q 147 235 172 156 q 121 417 121 315 l 121 913 q 125 937 121 928 q 138 950 129 946 q 163 954 147 954 q 188 950 179 954 q 201 937 197 946 q 206 911 206 928 l 206 417 q 241 230 206 308 q 344 109 276 151 q 506 67 411 67 q 667 109 600 67 q 769 230 733 151 q 804 418 804 308 l 804 921 q 808 940 804 933 q 822 951 813 947 q 847 954 832 954 q 872 950 863 954 q 884 937 881 946 q 888 911 888 928 l 888 414 q 862 233 888 313 q 786 99 836 154 q 665 14 736 43 q 501 -15 593 -15 m 501 1186 q 510 1185 507 1186 q 519 1182 514 1185 l 657 1110 q 686 1088 681 1100 q 681 1057 692 1076 q 658 1034 669 1038 q 633 1039 647 1031 l 501 1113 l 369 1039 q 345 1035 357 1032 q 322 1060 333 1039 q 319 1090 313 1079 q 346 1110 325 1100 l 483 1182 q 492 1185 489 1185 q 501 1186 496 1186 z "},"Ü":{"ha":1008,"x_min":121,"x_max":888,"o":"m 501 -15 q 342 14 413 -15 q 222 99 271 43 q 147 235 172 156 q 121 417 121 315 l 121 913 q 125 937 121 928 q 138 950 129 946 q 163 954 147 954 q 188 950 179 954 q 201 937 197 946 q 206 911 206 928 l 206 417 q 241 230 206 308 q 344 109 276 151 q 506 67 411 67 q 667 109 600 67 q 769 230 733 151 q 804 418 804 308 l 804 921 q 808 940 804 933 q 822 951 813 947 q 847 954 832 954 q 872 950 863 954 q 884 937 881 946 q 888 911 888 928 l 888 414 q 862 233 888 313 q 786 99 836 154 q 665 14 736 43 q 501 -15 593 -15 m 582 1067 q 549 1074 558 1067 q 537 1092 539 1081 q 535 1115 535 1104 q 537 1138 535 1128 q 549 1156 539 1149 q 582 1163 558 1163 q 617 1156 607 1163 q 628 1138 626 1149 q 631 1115 631 1126 q 628 1092 631 1104 q 617 1074 626 1081 q 582 1067 607 1067 m 429 1067 q 394 1074 404 1067 q 383 1092 385 1081 q 381 1115 381 1104 q 383 1138 381 1128 q 394 1156 385 1149 q 429 1163 404 1163 q 463 1156 453 1163 q 474 1138 472 1149 q 476 1115 476 1126 q 474 1092 476 1104 q 463 1074 472 1081 q 429 1067 453 1067 z "},"Ù":{"ha":1008,"x_min":121,"x_max":888,"o":"m 501 -15 q 342 14 413 -15 q 222 99 271 43 q 147 235 172 156 q 121 417 121 315 l 121 913 q 125 937 121 928 q 138 950 129 946 q 163 954 147 954 q 188 950 179 954 q 201 937 197 946 q 206 911 206 928 l 206 417 q 241 230 206 308 q 344 109 276 151 q 506 67 411 67 q 667 109 600 67 q 769 230 733 151 q 804 418 804 308 l 804 921 q 808 940 804 933 q 822 951 813 947 q 847 954 832 954 q 872 950 863 954 q 884 937 881 946 q 888 911 888 928 l 888 414 q 862 233 888 313 q 786 99 836 154 q 665 14 736 43 q 501 -15 593 -15 m 507 1043 l 300 1115 q 276 1133 282 1122 q 276 1163 271 1143 q 294 1189 283 1183 q 324 1188 306 1194 l 535 1114 q 558 1096 554 1107 q 556 1065 563 1085 q 538 1040 549 1044 q 507 1043 528 1036 z "},"V":{"ha":1004,"x_min":86,"x_max":918,"o":"m 501 -15 q 472 -11 483 -15 q 456 7 461 -7 l 96 910 q 94 940 86 933 q 121 957 103 947 q 142 963 132 963 q 159 958 151 964 q 172 939 167 953 l 501 100 l 828 924 q 840 949 833 938 q 858 963 846 960 q 889 956 869 965 q 915 925 918 942 q 904 893 911 908 l 549 8 q 532 -10 543 -4 q 501 -15 521 -15 z "},"W":{"ha":1349,"x_min":46,"x_max":1300,"o":"m 386 -8 q 366 -6 374 -8 q 354 3 358 -3 q 347 21 350 10 l 53 899 q 51 931 46 919 q 78 950 56 943 q 103 955 93 956 q 119 947 113 954 q 131 926 126 940 l 388 136 l 631 922 q 640 942 635 935 q 653 951 644 949 q 672 954 661 954 q 694 951 686 954 q 708 944 703 949 q 714 929 713 939 l 960 132 l 1217 924 q 1229 948 1222 940 q 1247 957 1236 956 q 1274 953 1258 958 q 1294 942 1288 949 q 1300 926 1300 936 q 1294 899 1300 915 l 1000 19 q 992 3 997 10 q 980 -6 988 -3 q 961 -8 972 -8 q 942 -6 950 -8 q 930 5 935 -3 q 921 24 925 13 l 674 817 l 426 24 q 417 5 422 13 q 405 -6 413 -3 q 386 -8 397 -8 z "},"X":{"ha":967,"x_min":108,"x_max":860,"o":"m 838 -18 q 816 -29 825 -26 q 799 -26 807 -32 q 781 -8 790 -21 l 122 890 q 110 922 108 910 q 129 949 111 935 q 151 960 142 958 q 168 958 160 963 q 186 940 176 953 l 844 39 q 858 8 860 21 q 838 -18 857 -6 m 129 -18 q 110 8 111 -6 q 122 39 108 21 l 781 940 q 799 958 790 953 q 817 960 807 963 q 838 949 826 958 q 858 922 857 935 q 844 890 860 910 l 186 -8 q 168 -26 176 -21 q 151 -29 160 -32 q 129 -18 142 -26 z "},"Y":{"ha":886,"x_min":47,"x_max":840,"o":"m 817 956 q 838 930 835 942 q 829 903 840 918 l 486 381 l 486 26 q 482 2 486 11 q 469 -11 478 -7 q 444 -15 460 -15 q 420 -11 429 -15 q 407 3 411 -7 q 403 29 403 13 l 403 382 l 57 900 q 51 927 47 915 q 72 953 54 939 q 95 965 86 963 q 113 964 104 968 q 128 947 121 960 l 444 453 l 760 947 q 774 963 767 958 q 792 965 782 967 q 817 956 803 964 z "},"Ý":{"ha":886,"x_min":47,"x_max":840,"o":"m 817 956 q 838 930 835 942 q 829 903 840 918 l 486 381 l 486 26 q 482 2 486 11 q 469 -11 478 -7 q 444 -15 460 -15 q 420 -11 429 -15 q 407 3 411 -7 q 403 29 403 13 l 403 382 l 57 900 q 51 927 47 915 q 72 953 54 939 q 95 965 86 963 q 113 964 104 968 q 128 947 121 960 l 444 453 l 760 947 q 774 963 767 958 q 792 965 782 967 q 817 956 803 964 m 408 1029 q 377 1026 388 1022 q 360 1051 367 1031 q 358 1082 353 1071 q 381 1100 363 1093 l 592 1174 q 622 1175 611 1181 q 639 1149 633 1169 q 640 1119 646 1129 q 615 1101 635 1108 l 408 1029 z "},"Ÿ":{"ha":886,"x_min":47,"x_max":840,"o":"m 817 956 q 838 930 835 942 q 829 903 840 918 l 486 381 l 486 26 q 482 2 486 11 q 469 -11 478 -7 q 444 -15 460 -15 q 420 -11 429 -15 q 407 3 411 -7 q 403 29 403 13 l 403 382 l 57 900 q 51 927 47 915 q 72 953 54 939 q 95 965 86 963 q 113 964 104 968 q 128 947 121 960 l 444 453 l 760 947 q 774 963 767 958 q 792 965 782 967 q 817 956 803 964 m 524 1067 q 490 1074 500 1067 q 478 1092 481 1081 q 476 1115 476 1104 q 478 1138 476 1128 q 490 1156 481 1149 q 524 1163 500 1163 q 558 1156 549 1163 q 570 1138 568 1149 q 572 1115 572 1126 q 570 1092 572 1104 q 558 1074 568 1081 q 524 1067 549 1067 m 371 1067 q 336 1074 346 1067 q 324 1092 326 1081 q 322 1115 322 1104 q 324 1138 322 1128 q 336 1156 326 1149 q 371 1163 346 1163 q 404 1156 394 1163 q 416 1138 414 1149 q 418 1115 418 1126 q 416 1092 418 1104 q 404 1074 414 1081 q 371 1067 394 1067 z "},"Z":{"ha":788,"x_min":49,"x_max":739,"o":"m 88 -15 q 59 -6 69 -15 q 49 25 49 3 q 51 38 49 31 q 56 50 53 46 l 608 875 l 96 875 q 69 878 79 875 q 53 890 58 882 q 49 911 49 899 q 53 937 49 928 q 67 950 57 946 q 92 954 76 954 l 678 954 q 708 942 699 954 q 717 918 717 929 q 713 893 717 904 q 703 875 708 882 l 161 63 l 699 63 q 723 59 714 63 q 735 47 732 56 q 739 25 739 39 q 735 1 739 10 q 722 -12 731 -8 q 696 -15 713 -15 l 88 -15 z "},"Ž":{"ha":788,"x_min":49,"x_max":739,"o":"m 88 -15 q 59 -6 69 -15 q 49 25 49 3 q 51 38 49 31 q 56 50 53 46 l 608 875 l 96 875 q 69 878 79 875 q 53 890 58 882 q 49 911 49 899 q 53 937 49 928 q 67 950 57 946 q 92 954 76 954 l 678 954 q 708 942 699 954 q 717 918 717 929 q 713 893 717 904 q 703 875 708 882 l 161 63 l 699 63 q 723 59 714 63 q 735 47 732 56 q 739 25 739 39 q 735 1 739 10 q 722 -12 731 -8 q 696 -15 713 -15 l 88 -15 m 394 1107 l 526 1181 q 544 1187 536 1186 q 559 1182 551 1188 q 574 1163 567 1176 q 579 1132 585 1143 q 550 1110 574 1121 l 413 1038 q 403 1034 407 1035 q 394 1033 400 1033 q 385 1034 389 1033 q 376 1038 382 1035 l 239 1110 q 212 1131 218 1121 q 215 1160 206 1142 q 231 1180 224 1174 q 247 1186 239 1186 q 263 1181 254 1186 l 394 1107 z "},"a":{"ha":806,"x_min":63,"x_max":715,"o":"m 678 -14 q 650 -4 658 -14 q 639 32 642 6 l 639 125 q 591 66 624 99 q 506 9 558 33 q 381 -15 454 -15 q 255 10 313 -15 q 154 82 197 36 q 87 188 111 128 q 63 319 63 249 q 87 447 63 388 q 155 551 111 506 q 256 622 199 596 q 381 647 314 647 q 492 631 446 647 q 574 585 539 614 q 639 517 610 556 l 639 596 q 648 635 639 624 q 679 647 657 647 q 701 642 693 647 q 712 626 708 638 q 715 596 715 615 l 715 32 q 712 5 715 15 q 700 -10 708 -6 q 678 -14 692 -14 m 396 57 q 517 91 463 57 q 603 183 571 125 q 635 317 635 242 q 601 454 635 396 q 513 545 568 513 q 393 578 458 578 q 260 543 317 578 q 171 449 203 508 q 139 314 139 390 q 171 182 139 240 q 261 90 203 124 q 396 57 319 57 z "},"á":{"ha":806,"x_min":63,"x_max":715,"o":"m 678 -14 q 650 -4 658 -14 q 639 32 642 6 l 639 125 q 591 66 624 99 q 506 9 558 33 q 381 -15 454 -15 q 255 10 313 -15 q 154 82 197 36 q 87 188 111 128 q 63 319 63 249 q 87 447 63 388 q 155 551 111 506 q 256 622 199 596 q 381 647 314 647 q 492 631 446 647 q 574 585 539 614 q 639 517 610 556 l 639 596 q 648 635 639 624 q 679 647 657 647 q 701 642 693 647 q 712 626 708 638 q 715 596 715 615 l 715 32 q 712 5 715 15 q 700 -10 708 -6 q 678 -14 692 -14 m 396 57 q 517 91 463 57 q 603 183 571 125 q 635 317 635 242 q 601 454 635 396 q 513 545 568 513 q 393 578 458 578 q 260 543 317 578 q 171 449 203 508 q 139 314 139 390 q 171 182 139 240 q 261 90 203 124 q 396 57 319 57 m 369 760 q 338 757 349 753 q 321 782 328 761 q 319 813 314 801 q 342 831 324 824 l 553 904 q 583 906 572 911 q 600 879 594 900 q 601 849 607 860 q 576 832 596 839 l 369 760 z "},"â":{"ha":806,"x_min":63,"x_max":715,"o":"m 678 -14 q 650 -4 658 -14 q 639 32 642 6 l 639 125 q 591 66 624 99 q 506 9 558 33 q 381 -15 454 -15 q 255 10 313 -15 q 154 82 197 36 q 87 188 111 128 q 63 319 63 249 q 87 447 63 388 q 155 551 111 506 q 256 622 199 596 q 381 647 314 647 q 492 631 446 647 q 574 585 539 614 q 639 517 610 556 l 639 596 q 648 635 639 624 q 679 647 657 647 q 701 642 693 647 q 712 626 708 638 q 715 596 715 615 l 715 32 q 712 5 715 15 q 700 -10 708 -6 q 678 -14 692 -14 m 396 57 q 517 91 463 57 q 603 183 571 125 q 635 317 635 242 q 601 454 635 396 q 513 545 568 513 q 393 578 458 578 q 260 543 317 578 q 171 449 203 508 q 139 314 139 390 q 171 182 139 240 q 261 90 203 124 q 396 57 319 57 m 393 908 q 402 908 399 908 q 411 904 406 907 l 549 832 q 578 810 572 822 q 572 779 583 799 q 550 756 561 760 q 525 761 539 753 l 393 835 l 261 761 q 237 758 249 754 q 214 782 225 761 q 210 812 204 801 q 238 832 217 822 l 375 904 q 384 908 381 907 q 393 908 388 908 z "},"ä":{"ha":806,"x_min":63,"x_max":715,"o":"m 678 -14 q 650 -4 658 -14 q 639 32 642 6 l 639 125 q 591 66 624 99 q 506 9 558 33 q 381 -15 454 -15 q 255 10 313 -15 q 154 82 197 36 q 87 188 111 128 q 63 319 63 249 q 87 447 63 388 q 155 551 111 506 q 256 622 199 596 q 381 647 314 647 q 492 631 446 647 q 574 585 539 614 q 639 517 610 556 l 639 596 q 648 635 639 624 q 679 647 657 647 q 701 642 693 647 q 712 626 708 638 q 715 596 715 615 l 715 32 q 712 5 715 15 q 700 -10 708 -6 q 678 -14 692 -14 m 396 57 q 517 91 463 57 q 603 183 571 125 q 635 317 635 242 q 601 454 635 396 q 513 545 568 513 q 393 578 458 578 q 260 543 317 578 q 171 449 203 508 q 139 314 139 390 q 171 182 139 240 q 261 90 203 124 q 396 57 319 57 m 475 789 q 442 796 451 789 q 430 815 432 803 q 428 838 428 826 q 430 860 428 850 q 442 878 432 871 q 475 885 451 885 q 510 878 500 885 q 522 860 519 871 q 524 838 524 849 q 522 815 524 826 q 510 796 519 803 q 475 789 500 789 m 322 789 q 288 796 297 789 q 276 815 278 803 q 274 838 274 826 q 276 860 274 850 q 288 878 278 871 q 322 885 297 885 q 356 878 346 885 q 367 860 365 871 q 369 838 369 849 q 367 815 369 826 q 356 796 365 803 q 322 789 346 789 z "},"à":{"ha":806,"x_min":63,"x_max":715,"o":"m 678 -14 q 650 -4 658 -14 q 639 32 642 6 l 639 125 q 591 66 624 99 q 506 9 558 33 q 381 -15 454 -15 q 255 10 313 -15 q 154 82 197 36 q 87 188 111 128 q 63 319 63 249 q 87 447 63 388 q 155 551 111 506 q 256 622 199 596 q 381 647 314 647 q 492 631 446 647 q 574 585 539 614 q 639 517 610 556 l 639 596 q 648 635 639 624 q 679 647 657 647 q 701 642 693 647 q 712 626 708 638 q 715 596 715 615 l 715 32 q 712 5 715 15 q 700 -10 708 -6 q 678 -14 692 -14 m 396 57 q 517 91 463 57 q 603 183 571 125 q 635 317 635 242 q 601 454 635 396 q 513 545 568 513 q 393 578 458 578 q 260 543 317 578 q 171 449 203 508 q 139 314 139 390 q 171 182 139 240 q 261 90 203 124 q 396 57 319 57 m 415 765 l 208 838 q 185 855 190 844 q 185 885 179 865 q 203 911 192 906 q 232 910 214 917 l 443 836 q 467 818 463 829 q 464 788 471 807 q 447 763 457 767 q 415 765 436 758 z "},"å":{"ha":806,"x_min":63,"x_max":715,"o":"m 678 -14 q 650 -4 658 -14 q 639 32 642 6 l 639 125 q 591 66 624 99 q 506 9 558 33 q 381 -15 454 -15 q 255 10 313 -15 q 154 82 197 36 q 87 188 111 128 q 63 319 63 249 q 87 447 63 388 q 155 551 111 506 q 256 622 199 596 q 381 647 314 647 q 492 631 446 647 q 574 585 539 614 q 639 517 610 556 l 639 596 q 648 635 639 624 q 679 647 657 647 q 701 642 693 647 q 712 626 708 638 q 715 596 715 615 l 715 32 q 712 5 715 15 q 700 -10 708 -6 q 678 -14 692 -14 m 396 57 q 517 91 463 57 q 603 183 571 125 q 635 317 635 242 q 601 454 635 396 q 513 545 568 513 q 393 578 458 578 q 260 543 317 578 q 171 449 203 508 q 139 314 139 390 q 171 182 139 240 q 261 90 203 124 q 396 57 319 57 m 394 721 q 324 740 356 721 q 272 792 292 760 q 251 864 251 825 q 271 935 251 903 q 322 988 290 968 q 393 1007 354 1007 q 466 988 433 1007 q 518 938 499 969 q 538 865 538 906 q 518 792 538 825 q 466 740 499 760 q 394 721 433 721 m 394 783 q 451 808 428 783 q 474 867 474 832 q 451 922 474 900 q 393 944 429 944 q 337 921 360 944 q 314 865 314 897 q 337 807 314 831 q 394 783 360 783 z "},"ã":{"ha":806,"x_min":63,"x_max":715,"o":"m 678 -14 q 650 -4 658 -14 q 639 32 642 6 l 639 125 q 591 66 624 99 q 506 9 558 33 q 381 -15 454 -15 q 255 10 313 -15 q 154 82 197 36 q 87 188 111 128 q 63 319 63 249 q 87 447 63 388 q 155 551 111 506 q 256 622 199 596 q 381 647 314 647 q 492 631 446 647 q 574 585 539 614 q 639 517 610 556 l 639 596 q 648 635 639 624 q 679 647 657 647 q 701 642 693 647 q 712 626 708 638 q 715 596 715 615 l 715 32 q 712 5 715 15 q 700 -10 708 -6 q 678 -14 692 -14 m 396 57 q 517 91 463 57 q 603 183 571 125 q 635 317 635 242 q 601 454 635 396 q 513 545 568 513 q 393 578 458 578 q 260 543 317 578 q 171 449 203 508 q 139 314 139 390 q 171 182 139 240 q 261 90 203 124 q 396 57 319 57 m 306 907 q 365 891 340 907 q 412 860 390 875 q 453 844 433 844 q 473 850 463 844 q 492 864 483 856 q 506 882 501 872 q 526 900 511 896 q 556 896 542 904 q 571 884 564 892 q 578 869 578 876 q 560 820 578 843 q 515 783 543 797 q 453 769 488 769 q 402 785 428 769 q 353 816 376 800 q 306 832 329 832 q 273 822 290 832 q 249 796 256 811 q 228 783 243 786 q 200 785 214 779 q 184 805 189 792 q 185 829 179 818 q 214 868 194 850 q 258 897 233 886 q 306 907 282 907 z "},"æ":{"ha":1246,"x_min":49,"x_max":1197,"o":"m 361 643 q 459 627 411 643 q 547 576 507 611 q 611 486 586 542 q 684 570 640 535 q 785 625 728 606 q 907 644 842 644 q 1024 625 971 644 q 1115 572 1076 606 q 1176 496 1154 539 q 1197 407 1197 453 q 1166 315 1197 339 q 1090 290 1135 290 l 653 290 q 674 191 651 235 q 734 117 696 147 q 819 70 772 86 q 911 54 865 54 q 995 61 961 54 q 1052 78 1029 68 q 1091 97 1075 88 q 1121 113 1107 107 q 1137 115 1128 115 q 1150 107 1146 114 q 1160 90 1157 97 q 1163 72 1163 82 q 1129 38 1163 60 q 1039 -1 1096 17 q 913 -18 982 -18 q 785 2 843 -18 q 683 60 728 22 q 611 150 639 99 q 549 66 589 104 q 445 5 510 28 q 282 -18 381 -18 q 114 29 179 -18 q 49 153 49 76 q 78 250 49 208 q 165 316 108 292 q 300 340 222 340 q 360 338 329 340 q 419 330 390 335 q 476 318 449 325 q 526 303 503 311 q 568 288 550 296 q 550 439 568 375 q 488 538 532 503 q 367 572 444 572 q 311 567 340 572 q 253 553 282 563 q 201 532 225 544 q 163 503 178 519 q 125 477 140 479 q 94 493 110 475 q 85 523 81 508 q 114 557 90 538 q 190 608 153 589 q 269 635 228 626 q 361 643 311 643 m 653 357 l 1067 357 q 1110 363 1094 357 q 1125 404 1125 369 q 1097 488 1125 450 q 1019 550 1068 526 q 908 574 971 574 q 780 546 839 574 q 686 469 721 518 q 653 357 651 419 m 310 49 q 398 60 354 49 q 478 94 442 72 q 539 147 514 117 q 571 217 564 178 q 505 245 546 232 q 417 267 464 258 q 328 275 371 275 q 207 260 251 275 q 144 219 163 244 q 125 161 125 193 q 169 79 125 110 q 310 49 213 49 z "},"b":{"ha":821,"x_min":93,"x_max":738,"o":"m 431 -15 q 306 8 363 -15 q 207 76 249 32 q 142 180 165 119 q 119 315 119 240 q 142 451 119 390 q 207 557 165 513 q 306 625 249 601 q 431 649 363 649 q 551 625 496 649 q 649 558 607 601 q 714 453 690 514 q 738 319 738 393 q 714 183 738 244 q 649 76 690 121 q 551 8 607 32 q 431 -15 496 -15 m 418 58 q 542 91 488 58 q 629 181 597 124 q 661 315 661 239 q 629 451 661 393 q 542 542 597 510 q 418 575 488 575 q 295 542 350 575 q 208 451 240 510 q 176 315 176 393 q 208 181 176 239 q 295 91 240 124 q 418 58 350 58 m 133 -17 q 110 -12 119 -17 q 97 1 101 -8 q 93 25 93 10 l 93 910 q 97 935 93 926 q 109 949 100 944 q 132 953 118 953 q 156 949 147 953 q 168 935 164 944 q 172 911 172 926 l 172 26 q 164 -7 172 3 q 133 -17 156 -17 z "},"c":{"ha":708,"x_min":63,"x_max":653,"o":"m 406 -15 q 266 8 329 -15 q 157 76 203 32 q 87 180 111 119 q 63 315 63 240 q 87 451 63 390 q 156 556 111 511 q 264 624 201 600 q 403 647 326 647 q 497 631 449 647 q 583 590 544 615 q 639 532 622 564 q 649 506 649 514 q 642 489 649 497 q 623 474 633 479 q 604 468 613 468 q 572 488 588 468 q 539 522 558 507 q 497 549 519 538 q 450 566 474 560 q 403 572 426 572 q 267 540 325 572 q 176 451 208 508 q 144 315 144 393 q 176 181 144 239 q 266 92 208 124 q 400 60 324 60 q 464 68 432 60 q 525 92 496 76 q 575 129 554 108 q 594 145 586 139 q 613 151 601 151 q 628 145 621 151 q 644 128 636 139 q 651 115 650 122 q 651 99 653 107 q 642 83 649 90 q 572 32 613 54 q 487 -3 531 10 q 406 -15 443 -15 z "},"ç":{"ha":728,"x_min":63,"x_max":653,"o":"m 406 -15 q 266 8 329 -15 q 157 76 203 32 q 87 180 111 119 q 63 315 63 240 q 87 451 63 390 q 156 556 111 511 q 264 624 201 600 q 403 647 326 647 q 497 631 449 647 q 583 590 544 615 q 639 532 622 564 q 649 506 649 514 q 642 489 649 497 q 623 474 633 479 q 604 468 613 468 q 572 488 588 468 q 539 522 558 507 q 497 549 519 538 q 450 566 474 560 q 403 572 426 572 q 267 540 325 572 q 176 451 208 508 q 144 315 144 393 q 176 181 144 239 q 266 92 208 124 q 400 60 324 60 q 464 68 432 60 q 525 92 496 76 q 575 129 554 108 q 594 145 586 139 q 613 151 601 151 q 628 145 621 151 q 644 128 636 139 q 651 115 650 122 q 651 99 653 107 q 642 83 649 90 q 572 32 613 54 q 487 -3 531 10 q 406 -15 443 -15 m 386 -240 q 329 -228 358 -240 q 299 -201 300 -215 q 307 -176 297 -190 q 324 -159 318 -162 q 335 -156 329 -156 q 358 -165 340 -156 q 388 -174 375 -174 q 431 -156 413 -174 q 449 -114 449 -139 q 431 -71 449 -89 q 388 -53 414 -53 q 350 -63 364 -53 q 332 -74 336 -74 q 322 -69 328 -74 q 307 -50 315 -64 q 299 -35 301 -40 q 299 -25 297 -29 q 315 -8 301 -17 q 349 8 329 1 q 388 14 369 14 q 452 -3 424 14 q 498 -49 481 -21 q 515 -112 515 -78 q 499 -176 515 -147 q 453 -223 482 -206 q 386 -240 424 -240 z "},"d":{"ha":828,"x_min":83,"x_max":728,"o":"m 390 -15 q 270 8 326 -15 q 172 76 214 32 q 107 183 131 121 q 83 319 83 244 q 107 453 83 393 q 172 558 131 514 q 270 625 214 601 q 390 649 326 649 q 515 625 458 649 q 614 557 572 601 q 678 451 656 513 q 701 315 701 390 q 678 180 701 240 q 614 76 656 119 q 515 8 572 32 q 390 -15 458 -15 m 403 58 q 526 91 472 58 q 613 181 581 124 q 644 315 644 239 q 613 451 644 393 q 526 542 581 510 q 403 575 471 575 q 279 542 335 575 q 192 451 224 510 q 160 315 160 393 q 192 181 160 239 q 279 91 224 124 q 403 58 335 58 m 689 -15 q 658 -6 667 -15 q 649 26 649 4 l 649 911 q 652 937 649 928 q 665 950 656 946 q 688 954 674 954 q 711 950 703 954 q 724 937 719 946 q 728 913 728 928 l 728 28 q 724 3 728 13 q 713 -11 721 -7 q 689 -15 704 -15 z "},"ð":{"ha":813,"x_min":71,"x_max":722,"o":"m 488 1003 q 503 985 500 994 q 505 967 507 976 q 493 946 503 958 l 456 899 q 572 809 522 863 q 656 684 622 756 q 706 522 689 613 q 722 321 722 432 q 697 188 722 249 q 628 81 672 126 q 523 10 583 35 q 392 -15 463 -15 q 265 10 324 -15 q 163 82 206 36 q 95 190 119 128 q 71 325 71 253 q 95 459 71 397 q 163 567 119 521 q 265 638 206 613 q 392 663 324 663 q 526 635 465 663 q 624 563 586 608 q 545 730 597 663 q 410 839 493 797 l 347 757 q 330 741 339 746 q 312 738 321 736 q 290 749 303 740 q 272 767 278 758 q 269 785 267 776 q 279 806 271 794 l 329 869 q 292 881 311 876 q 254 889 274 885 q 230 907 233 893 q 233 940 226 921 q 251 960 240 957 q 282 960 263 964 q 315 952 299 957 q 348 943 332 947 q 378 933 364 939 l 429 999 q 447 1015 439 1011 q 465 1015 456 1018 q 488 1003 475 1013 m 404 58 q 528 93 474 58 q 614 187 582 128 q 646 321 646 246 q 614 458 646 397 q 528 553 582 518 q 404 589 474 589 q 272 553 331 589 q 181 458 214 518 q 147 321 147 397 q 181 187 147 246 q 272 93 214 128 q 404 58 331 58 z "},"e":{"ha":753,"x_min":63,"x_max":690,"o":"m 406 -18 q 266 7 329 -18 q 158 78 203 32 q 88 186 113 124 q 63 325 63 249 q 106 488 63 415 q 225 602 149 560 q 400 644 301 644 q 517 625 464 644 q 608 572 569 606 q 669 496 647 539 q 690 407 690 453 q 659 315 690 339 q 583 290 628 290 l 146 290 q 183 164 143 217 q 283 83 222 111 q 404 54 343 54 q 474 58 444 54 q 526 70 504 63 q 563 85 547 78 q 590 101 578 93 q 614 113 603 108 q 630 115 621 115 q 643 107 639 114 q 653 90 650 97 q 656 72 656 82 q 622 38 656 60 q 532 -1 589 17 q 406 -18 475 -18 m 146 357 l 560 357 q 603 363 588 357 q 618 404 618 369 q 590 488 618 450 q 513 550 561 526 q 401 574 464 574 q 273 546 332 574 q 179 469 214 518 q 146 357 144 419 z "},"é":{"ha":753,"x_min":63,"x_max":690,"o":"m 406 -18 q 266 7 329 -18 q 158 78 203 32 q 88 186 113 124 q 63 325 63 249 q 106 488 63 415 q 225 602 149 560 q 400 644 301 644 q 517 625 464 644 q 608 572 569 606 q 669 496 647 539 q 690 407 690 453 q 659 315 690 339 q 583 290 628 290 l 146 290 q 183 164 143 217 q 283 83 222 111 q 404 54 343 54 q 474 58 444 54 q 526 70 504 63 q 563 85 547 78 q 590 101 578 93 q 614 113 603 108 q 630 115 621 115 q 643 107 639 114 q 653 90 650 97 q 656 72 656 82 q 622 38 656 60 q 532 -1 589 17 q 406 -18 475 -18 m 146 357 l 560 357 q 603 363 588 357 q 618 404 618 369 q 590 488 618 450 q 513 550 561 526 q 401 574 464 574 q 273 546 332 574 q 179 469 214 518 q 146 357 144 419 m 351 760 q 320 757 331 753 q 303 782 310 761 q 301 813 296 801 q 324 831 306 824 l 535 904 q 565 906 554 911 q 582 879 576 900 q 583 849 589 860 q 558 832 578 839 l 351 760 z "},"ê":{"ha":753,"x_min":63,"x_max":690,"o":"m 406 -18 q 266 7 329 -18 q 158 78 203 32 q 88 186 113 124 q 63 325 63 249 q 106 488 63 415 q 225 602 149 560 q 400 644 301 644 q 517 625 464 644 q 608 572 569 606 q 669 496 647 539 q 690 407 690 453 q 659 315 690 339 q 583 290 628 290 l 146 290 q 183 164 143 217 q 283 83 222 111 q 404 54 343 54 q 474 58 444 54 q 526 70 504 63 q 563 85 547 78 q 590 101 578 93 q 614 113 603 108 q 630 115 621 115 q 643 107 639 114 q 653 90 650 97 q 656 72 656 82 q 622 38 656 60 q 532 -1 589 17 q 406 -18 475 -18 m 146 357 l 560 357 q 603 363 588 357 q 618 404 618 369 q 590 488 618 450 q 513 550 561 526 q 401 574 464 574 q 273 546 332 574 q 179 469 214 518 q 146 357 144 419 m 375 908 q 384 908 381 908 q 393 904 388 907 l 531 832 q 560 810 554 822 q 554 779 565 799 q 532 756 543 760 q 507 761 521 753 l 375 835 l 243 761 q 219 758 231 754 q 196 782 207 761 q 192 812 186 801 q 219 832 199 822 l 357 904 q 366 908 363 907 q 375 908 369 908 z "},"ë":{"ha":753,"x_min":63,"x_max":690,"o":"m 406 -18 q 266 7 329 -18 q 158 78 203 32 q 88 186 113 124 q 63 325 63 249 q 106 488 63 415 q 225 602 149 560 q 400 644 301 644 q 517 625 464 644 q 608 572 569 606 q 669 496 647 539 q 690 407 690 453 q 659 315 690 339 q 583 290 628 290 l 146 290 q 183 164 143 217 q 283 83 222 111 q 404 54 343 54 q 474 58 444 54 q 526 70 504 63 q 563 85 547 78 q 590 101 578 93 q 614 113 603 108 q 630 115 621 115 q 643 107 639 114 q 653 90 650 97 q 656 72 656 82 q 622 38 656 60 q 532 -1 589 17 q 406 -18 475 -18 m 146 357 l 560 357 q 603 363 588 357 q 618 404 618 369 q 590 488 618 450 q 513 550 561 526 q 401 574 464 574 q 273 546 332 574 q 179 469 214 518 q 146 357 144 419 m 457 789 q 424 796 433 789 q 412 815 414 803 q 410 838 410 826 q 412 860 410 850 q 424 878 414 871 q 457 885 433 885 q 492 878 482 885 q 503 860 501 871 q 506 838 506 849 q 503 815 506 826 q 492 796 501 803 q 457 789 482 789 m 304 789 q 269 796 279 789 q 258 815 260 803 q 256 838 256 826 q 258 860 256 850 q 269 878 260 871 q 304 885 279 885 q 338 878 328 885 q 349 860 347 871 q 351 838 351 849 q 349 815 351 826 q 338 796 347 803 q 304 789 328 789 z "},"è":{"ha":753,"x_min":63,"x_max":690,"o":"m 406 -18 q 266 7 329 -18 q 158 78 203 32 q 88 186 113 124 q 63 325 63 249 q 106 488 63 415 q 225 602 149 560 q 400 644 301 644 q 517 625 464 644 q 608 572 569 606 q 669 496 647 539 q 690 407 690 453 q 659 315 690 339 q 583 290 628 290 l 146 290 q 183 164 143 217 q 283 83 222 111 q 404 54 343 54 q 474 58 444 54 q 526 70 504 63 q 563 85 547 78 q 590 101 578 93 q 614 113 603 108 q 630 115 621 115 q 643 107 639 114 q 653 90 650 97 q 656 72 656 82 q 622 38 656 60 q 532 -1 589 17 q 406 -18 475 -18 m 146 357 l 560 357 q 603 363 588 357 q 618 404 618 369 q 590 488 618 450 q 513 550 561 526 q 401 574 464 574 q 273 546 332 574 q 179 469 214 518 q 146 357 144 419 m 397 765 l 190 838 q 167 855 172 844 q 167 885 161 865 q 185 911 174 906 q 214 910 196 917 l 425 836 q 449 818 444 829 q 446 788 453 807 q 428 763 439 767 q 397 765 418 758 z "},"f":{"ha":506,"x_min":53,"x_max":453,"o":"m 217 -15 q 194 -11 203 -15 q 183 3 186 -7 q 179 28 179 13 l 179 750 q 190 848 179 808 q 228 911 201 888 q 297 946 254 935 q 401 957 339 957 q 426 953 417 957 q 439 942 435 950 q 443 918 443 933 q 439 895 443 904 q 426 883 435 886 q 400 879 417 879 q 333 876 361 879 q 290 860 306 872 q 266 823 274 849 q 258 753 258 797 l 258 24 q 254 1 258 10 q 241 -12 250 -8 q 217 -15 232 -15 m 94 629 l 218 626 l 411 629 q 435 626 426 629 q 449 614 444 622 q 453 592 453 606 q 449 567 453 576 q 438 555 446 558 q 414 551 429 551 l 218 554 l 92 551 q 61 560 69 551 q 53 592 53 569 q 63 621 53 613 q 94 629 72 629 z "},"g":{"ha":793,"x_min":69,"x_max":682,"o":"m 372 -279 q 281 -269 322 -279 q 208 -242 239 -258 q 161 -206 178 -225 q 144 -172 144 -187 q 147 -158 144 -162 q 153 -149 149 -154 q 169 -135 164 -137 q 185 -132 174 -132 q 209 -144 196 -132 q 244 -173 222 -157 q 297 -201 265 -189 q 376 -214 329 -214 q 472 -198 429 -214 q 544 -150 514 -182 q 591 -73 575 -118 q 607 31 607 -28 l 604 610 q 614 640 604 632 q 646 649 624 649 q 667 645 660 649 q 678 633 675 642 q 682 610 682 625 l 682 21 q 660 -106 682 -50 q 599 -200 639 -161 q 501 -259 558 -239 q 372 -279 444 -279 m 378 -1 q 252 22 308 -1 q 155 88 196 44 q 92 190 114 131 q 69 321 69 249 q 92 453 69 394 q 154 556 114 513 q 251 622 194 599 q 375 644 307 644 q 491 622 438 644 q 583 556 544 599 q 644 453 622 513 q 665 322 665 394 q 628 152 665 225 q 526 39 590 79 q 378 -1 461 -1 m 375 69 q 494 101 442 69 q 576 191 546 133 q 607 325 607 249 q 576 456 607 400 q 493 544 546 513 q 374 575 440 575 q 254 544 306 575 q 174 456 203 513 q 146 324 146 400 q 175 190 146 247 q 256 101 204 133 q 375 69 307 69 z "},"h":{"ha":731,"x_min":90,"x_max":668,"o":"m 131 -15 q 106 -11 115 -15 q 94 3 97 -7 q 90 28 90 13 l 90 913 q 94 937 90 928 q 108 950 99 946 q 132 954 117 954 q 156 950 147 954 q 169 937 165 946 q 172 911 172 928 l 172 538 q 260 616 208 582 q 390 650 313 650 q 532 615 469 650 q 631 513 594 579 q 668 353 668 447 l 668 26 q 665 2 668 11 q 653 -10 661 -7 q 629 -14 644 -14 q 605 -10 614 -14 q 592 3 596 -6 q 589 28 589 13 l 589 354 q 567 472 589 422 q 500 550 544 522 q 388 578 456 578 q 238 525 294 578 q 172 383 181 472 l 172 26 q 168 2 172 11 q 155 -11 164 -7 q 131 -15 146 -15 z "},"i":{"ha":299,"x_min":97,"x_max":201,"o":"m 149 -15 q 126 -11 135 -15 q 113 2 117 -7 q 110 26 110 11 l 110 607 q 113 631 110 622 q 126 644 117 640 q 150 647 135 647 q 174 643 165 647 q 185 630 182 639 q 189 604 189 621 l 189 25 q 185 1 189 10 q 173 -12 182 -8 q 149 -15 164 -15 m 149 847 q 118 853 129 847 q 102 871 107 858 q 97 903 97 883 q 102 933 97 922 q 119 949 107 944 q 150 954 131 954 q 181 949 169 954 q 197 931 192 943 q 201 899 201 919 q 197 869 201 881 q 181 852 192 857 q 149 847 169 847 z "},"ı":{"ha":260,"x_min":90,"x_max":169,"o":"m 129 -15 q 106 -11 115 -15 q 94 2 97 -7 q 90 26 90 11 l 90 607 q 94 631 90 622 q 106 644 97 640 q 131 647 115 647 q 154 643 146 647 q 166 630 163 639 q 169 604 169 621 l 169 25 q 166 1 169 10 q 153 -12 163 -8 q 129 -15 144 -15 z "},"í":{"ha":260,"x_min":50,"x_max":343,"o":"m 129 -15 q 106 -11 115 -15 q 94 2 97 -7 q 90 26 90 11 l 90 607 q 94 631 90 622 q 106 644 97 640 q 131 647 115 647 q 154 643 146 647 q 166 630 163 639 q 169 604 169 621 l 169 25 q 166 1 169 10 q 153 -12 163 -8 q 129 -15 144 -15 m 106 760 q 74 757 85 753 q 57 782 64 761 q 55 813 50 801 q 78 831 60 824 l 289 904 q 319 906 308 911 q 336 879 331 900 q 338 849 343 860 q 313 832 332 839 l 106 760 z "},"î":{"ha":260,"x_min":-60,"x_max":319,"o":"m 129 -15 q 106 -11 115 -15 q 94 2 97 -7 q 90 26 90 11 l 90 607 q 94 631 90 622 q 106 644 97 640 q 131 647 115 647 q 154 643 146 647 q 166 630 163 639 q 169 604 169 621 l 169 25 q 166 1 169 10 q 153 -12 163 -8 q 129 -15 144 -15 m 129 908 q 138 908 135 908 q 147 904 142 907 l 285 832 q 314 810 308 822 q 308 779 319 799 q 286 756 297 760 q 261 761 275 753 l 129 835 l -3 761 q -27 758 -15 754 q -50 782 -39 761 q -53 812 -60 801 q -26 832 -47 822 l 111 904 q 120 908 117 907 q 129 908 124 908 z "},"ï":{"ha":260,"x_min":10,"x_max":260,"o":"m 129 -15 q 106 -11 115 -15 q 94 2 97 -7 q 90 26 90 11 l 90 607 q 94 631 90 622 q 106 644 97 640 q 131 647 115 647 q 154 643 146 647 q 166 630 163 639 q 169 604 169 621 l 169 25 q 166 1 169 10 q 153 -12 163 -8 q 129 -15 144 -15 m 211 789 q 178 796 188 789 q 166 815 168 803 q 164 838 164 826 q 166 860 164 850 q 178 878 168 871 q 211 885 188 885 q 246 878 236 885 q 258 860 256 871 q 260 838 260 849 q 258 815 260 826 q 246 796 256 803 q 211 789 236 789 m 58 789 q 24 796 33 789 q 12 815 14 803 q 10 838 10 826 q 12 860 10 850 q 24 878 14 871 q 58 885 33 885 q 92 878 82 885 q 103 860 101 871 q 106 838 106 849 q 103 815 106 826 q 92 796 101 803 q 58 789 82 789 z "},"ì":{"ha":260,"x_min":-85,"x_max":207,"o":"m 129 -15 q 106 -11 115 -15 q 94 2 97 -7 q 90 26 90 11 l 90 607 q 94 631 90 622 q 106 644 97 640 q 131 647 115 647 q 154 643 146 647 q 166 630 163 639 q 169 604 169 621 l 169 25 q 166 1 169 10 q 153 -12 163 -8 q 129 -15 144 -15 m 151 765 l -56 838 q -79 855 -74 844 q -79 885 -85 865 q -61 911 -72 906 q -32 910 -50 917 l 179 836 q 203 818 199 829 q 200 788 207 807 q 183 763 193 767 q 151 765 172 758 z "},"j":{"ha":336,"x_min":-97,"x_max":221,"o":"m -56 -278 q -79 -274 -69 -278 q -93 -261 -89 -269 q -97 -239 -97 -253 q -93 -217 -97 -225 q -79 -204 -89 -208 q -54 -200 -69 -200 q 19 -194 -15 -200 q 78 -169 53 -187 q 117 -114 103 -150 q 131 -19 131 -78 l 131 608 q 135 631 131 622 q 148 643 139 639 q 171 647 157 647 q 193 643 185 647 q 206 629 201 639 q 210 604 210 619 l 210 -17 q 191 -136 210 -86 q 138 -217 172 -186 q 54 -263 103 -249 q -56 -278 6 -278 m 168 847 q 128 860 139 847 q 117 903 117 872 q 128 943 117 932 q 169 954 139 954 q 210 942 199 954 q 221 899 221 929 q 210 859 221 871 q 168 847 199 847 z "},"k":{"ha":668,"x_min":100,"x_max":613,"o":"m 590 54 q 611 28 610 40 q 600 -1 613 17 q 581 -19 590 -14 q 563 -21 572 -24 q 540 -8 553 -18 l 179 279 l 179 26 q 175 2 179 11 q 163 -11 171 -7 q 139 -15 154 -15 q 116 -11 125 -15 q 103 3 107 -7 q 100 28 100 13 l 100 913 q 104 937 100 928 q 117 950 108 946 q 140 954 126 954 q 164 950 156 954 q 176 937 172 946 q 179 911 179 928 l 179 383 l 446 639 q 465 653 456 649 q 485 655 475 657 q 504 640 494 653 q 519 610 519 622 q 501 582 518 597 l 239 332 l 590 54 z "},"l":{"ha":376,"x_min":90,"x_max":328,"o":"m 286 -15 q 216 -7 247 -15 q 161 18 185 1 q 122 60 138 35 q 98 118 106 85 q 90 192 90 151 l 90 914 q 94 940 90 931 q 106 953 97 949 q 129 957 115 957 q 153 953 144 957 q 167 942 163 950 q 171 918 171 933 l 171 189 q 178 135 171 158 q 199 97 185 113 q 235 73 214 81 q 285 65 257 65 q 310 62 301 65 q 324 49 319 58 q 328 25 328 40 q 324 1 328 10 q 310 -12 319 -8 q 286 -15 301 -15 z "},"ł":{"ha":450,"x_min":18,"x_max":432,"o":"m 72 399 q 41 398 51 393 q 24 425 31 403 q 24 456 18 444 q 51 474 29 468 l 374 571 q 408 573 396 578 q 425 549 419 568 q 426 516 432 526 q 400 499 421 506 l 72 399 m 347 -15 q 277 -7 308 -15 q 222 18 246 1 q 183 60 199 35 q 159 118 167 85 q 151 192 151 151 l 151 914 q 155 940 151 931 q 167 953 158 949 q 190 957 176 957 q 215 953 206 957 q 228 942 224 950 q 232 918 232 933 l 232 189 q 239 135 232 158 q 260 97 246 113 q 297 73 275 81 q 346 65 318 65 q 372 62 363 65 q 385 49 381 58 q 389 25 389 40 q 385 1 389 10 q 372 -12 381 -8 q 347 -15 363 -15 z "},"m":{"ha":1163,"x_min":104,"x_max":1065,"o":"m 142 -14 q 119 -10 128 -14 q 108 3 111 -6 q 104 28 104 13 l 104 611 q 108 633 104 625 q 120 644 111 640 q 143 647 129 647 q 171 639 163 647 q 179 611 179 631 l 179 528 q 215 579 192 557 q 267 617 238 601 q 327 642 296 633 q 388 650 358 650 q 477 631 438 650 q 547 576 517 611 q 599 489 578 540 q 663 580 631 544 q 737 633 696 615 q 829 650 778 650 q 960 611 908 650 q 1039 503 1013 572 q 1065 339 1065 433 l 1065 26 q 1062 2 1065 11 q 1050 -10 1058 -7 q 1026 -14 1042 -14 q 1002 -10 1011 -14 q 990 3 993 -6 q 986 28 986 13 l 986 340 q 969 465 986 411 q 917 548 951 518 q 826 578 882 578 q 722 548 768 578 q 650 465 676 518 q 624 340 624 411 l 624 25 q 615 -3 624 7 q 592 -16 606 -14 q 568 -12 579 -18 q 554 -5 560 -10 q 547 8 549 0 q 544 28 544 17 l 544 340 q 527 465 544 411 q 475 548 510 518 q 385 578 440 578 q 281 548 326 578 q 208 465 235 518 q 182 340 182 411 l 182 26 q 178 2 182 11 q 166 -10 175 -7 q 142 -14 157 -14 z "},"n":{"ha":769,"x_min":104,"x_max":679,"o":"m 142 -14 q 119 -10 128 -14 q 108 3 111 -6 q 104 28 104 13 l 104 611 q 108 633 104 625 q 120 644 111 640 q 143 647 129 647 q 160 645 153 647 q 171 639 167 643 q 177 628 175 635 q 179 611 179 621 l 179 529 q 219 574 197 553 q 269 613 242 596 q 328 640 296 631 q 401 650 361 650 q 512 630 461 650 q 600 572 563 610 q 658 478 638 533 q 679 353 679 424 l 679 26 q 676 2 679 11 q 664 -10 672 -7 q 640 -14 656 -14 q 616 -10 625 -14 q 603 3 607 -6 q 600 28 600 13 l 600 354 q 578 472 600 422 q 511 550 556 522 q 399 578 467 578 q 283 550 332 578 q 208 472 235 522 q 182 354 182 422 l 182 26 q 178 2 182 11 q 166 -10 175 -7 q 142 -14 157 -14 z "},"ñ":{"ha":769,"x_min":104,"x_max":679,"o":"m 142 -14 q 119 -10 128 -14 q 108 3 111 -6 q 104 28 104 13 l 104 611 q 108 633 104 625 q 120 644 111 640 q 143 647 129 647 q 160 645 153 647 q 171 639 167 643 q 177 628 175 635 q 179 611 179 621 l 179 529 q 219 574 197 553 q 269 613 242 596 q 328 640 296 631 q 401 650 361 650 q 512 630 461 650 q 600 572 563 610 q 658 478 638 533 q 679 353 679 424 l 679 26 q 676 2 679 11 q 664 -10 672 -7 q 640 -14 656 -14 q 616 -10 625 -14 q 603 3 607 -6 q 600 28 600 13 l 600 354 q 578 472 600 422 q 511 550 556 522 q 399 578 467 578 q 283 550 332 578 q 208 472 235 522 q 182 354 182 422 l 182 26 q 178 2 182 11 q 166 -10 175 -7 q 142 -14 157 -14 m 310 907 q 369 891 344 907 q 416 860 394 875 q 457 844 438 844 q 477 850 467 844 q 497 864 488 856 q 510 882 506 872 q 531 900 515 896 q 560 896 546 904 q 575 884 568 892 q 582 869 582 876 q 565 820 582 843 q 519 783 547 797 q 457 769 492 769 q 406 785 432 769 q 357 816 381 800 q 310 832 333 832 q 277 822 294 832 q 253 796 260 811 q 233 783 247 786 q 204 785 218 779 q 188 805 193 792 q 189 829 183 818 q 218 868 199 850 q 262 897 238 886 q 310 907 286 907 z "},"o":{"ha":778,"x_min":56,"x_max":722,"o":"m 393 -21 q 263 6 324 -21 q 155 78 201 32 q 82 185 108 124 q 56 315 56 246 q 81 447 56 386 q 153 553 107 507 q 260 626 200 600 q 390 651 321 651 q 558 608 483 651 q 678 488 633 564 q 722 317 722 413 q 697 183 722 244 q 626 76 671 122 q 521 5 581 31 q 393 -21 461 -21 m 390 54 q 519 90 461 54 q 610 185 576 125 q 644 319 644 246 q 611 453 644 394 q 520 544 578 511 q 389 576 463 576 q 259 542 317 576 q 167 450 201 508 q 133 318 133 392 q 167 183 133 243 q 260 89 201 124 q 390 54 318 54 z "},"ó":{"ha":778,"x_min":56,"x_max":722,"o":"m 393 -21 q 263 6 324 -21 q 155 78 201 32 q 82 185 108 124 q 56 315 56 246 q 81 447 56 386 q 153 553 107 507 q 260 626 200 600 q 390 651 321 651 q 558 608 483 651 q 678 488 633 564 q 722 317 722 413 q 697 183 722 244 q 626 76 671 122 q 521 5 581 31 q 393 -21 461 -21 m 390 54 q 519 90 461 54 q 610 185 576 125 q 644 319 644 246 q 611 453 644 394 q 520 544 578 511 q 389 576 463 576 q 259 542 317 576 q 167 450 201 508 q 133 318 133 392 q 167 183 133 243 q 260 89 201 124 q 390 54 318 54 m 365 760 q 334 757 344 753 q 317 782 324 761 q 315 813 310 801 q 338 831 319 824 l 549 904 q 579 906 568 911 q 596 879 590 900 q 597 849 603 860 q 572 832 592 839 l 365 760 z "},"ô":{"ha":778,"x_min":56,"x_max":722,"o":"m 393 -21 q 263 6 324 -21 q 155 78 201 32 q 82 185 108 124 q 56 315 56 246 q 81 447 56 386 q 153 553 107 507 q 260 626 200 600 q 390 651 321 651 q 558 608 483 651 q 678 488 633 564 q 722 317 722 413 q 697 183 722 244 q 626 76 671 122 q 521 5 581 31 q 393 -21 461 -21 m 390 54 q 519 90 461 54 q 610 185 576 125 q 644 319 644 246 q 611 453 644 394 q 520 544 578 511 q 389 576 463 576 q 259 542 317 576 q 167 450 201 508 q 133 318 133 392 q 167 183 133 243 q 260 89 201 124 q 390 54 318 54 m 389 908 q 398 908 394 908 q 407 904 401 907 l 544 832 q 574 810 568 822 q 568 779 579 799 q 546 756 557 760 q 521 761 535 753 l 389 835 l 257 761 q 233 758 244 754 q 210 782 221 761 q 206 812 200 801 q 233 832 213 822 l 371 904 q 380 908 376 907 q 389 908 383 908 z "},"ö":{"ha":778,"x_min":56,"x_max":722,"o":"m 393 -21 q 263 6 324 -21 q 155 78 201 32 q 82 185 108 124 q 56 315 56 246 q 81 447 56 386 q 153 553 107 507 q 260 626 200 600 q 390 651 321 651 q 558 608 483 651 q 678 488 633 564 q 722 317 722 413 q 697 183 722 244 q 626 76 671 122 q 521 5 581 31 q 393 -21 461 -21 m 390 54 q 519 90 461 54 q 610 185 576 125 q 644 319 644 246 q 611 453 644 394 q 520 544 578 511 q 389 576 463 576 q 259 542 317 576 q 167 450 201 508 q 133 318 133 392 q 167 183 133 243 q 260 89 201 124 q 390 54 318 54 m 471 789 q 438 796 447 789 q 426 815 428 803 q 424 838 424 826 q 426 860 424 850 q 438 878 428 871 q 471 885 447 885 q 506 878 496 885 q 517 860 515 871 q 519 838 519 849 q 517 815 519 826 q 506 796 515 803 q 471 789 496 789 m 318 789 q 283 796 293 789 q 272 815 274 803 q 269 838 269 826 q 272 860 269 850 q 283 878 274 871 q 318 885 293 885 q 351 878 342 885 q 363 860 361 871 q 365 838 365 849 q 363 815 365 826 q 351 796 361 803 q 318 789 342 789 z "},"ò":{"ha":778,"x_min":56,"x_max":722,"o":"m 393 -21 q 263 6 324 -21 q 155 78 201 32 q 82 185 108 124 q 56 315 56 246 q 81 447 56 386 q 153 553 107 507 q 260 626 200 600 q 390 651 321 651 q 558 608 483 651 q 678 488 633 564 q 722 317 722 413 q 697 183 722 244 q 626 76 671 122 q 521 5 581 31 q 393 -21 461 -21 m 390 54 q 519 90 461 54 q 610 185 576 125 q 644 319 644 246 q 611 453 644 394 q 520 544 578 511 q 389 576 463 576 q 259 542 317 576 q 167 450 201 508 q 133 318 133 392 q 167 183 133 243 q 260 89 201 124 q 390 54 318 54 m 411 765 l 204 838 q 181 855 186 844 q 181 885 175 865 q 199 911 188 906 q 228 910 210 917 l 439 836 q 463 818 458 829 q 460 788 467 807 q 442 763 453 767 q 411 765 432 758 z "},"ø":{"ha":778,"x_min":56,"x_max":722,"o":"m 567 567 l 494 603 l 572 754 q 594 777 583 774 q 628 769 606 781 q 647 756 642 764 q 651 739 653 749 q 643 715 650 729 l 567 567 m 161 -128 q 140 -104 143 -117 q 147 -72 136 -92 l 224 78 l 290 28 l 219 -108 q 196 -135 210 -131 q 161 -128 182 -139 m 393 -21 q 263 6 324 -21 q 155 78 201 32 q 82 185 108 124 q 56 315 56 246 q 81 447 56 386 q 153 553 107 507 q 260 626 200 600 q 390 651 321 651 q 558 608 483 651 q 678 488 633 564 q 722 317 722 413 q 697 183 722 244 q 626 76 671 122 q 521 5 581 31 q 393 -21 461 -21 m 390 54 q 519 90 461 54 q 610 185 576 125 q 644 319 644 246 q 611 453 644 394 q 520 544 578 511 q 389 576 463 576 q 259 542 317 576 q 167 450 201 508 q 133 318 133 392 q 167 183 133 243 q 260 89 201 124 q 390 54 318 54 z "},"õ":{"ha":778,"x_min":56,"x_max":722,"o":"m 393 -21 q 263 6 324 -21 q 155 78 201 32 q 82 185 108 124 q 56 315 56 246 q 81 447 56 386 q 153 553 107 507 q 260 626 200 600 q 390 651 321 651 q 558 608 483 651 q 678 488 633 564 q 722 317 722 413 q 697 183 722 244 q 626 76 671 122 q 521 5 581 31 q 393 -21 461 -21 m 390 54 q 519 90 461 54 q 610 185 576 125 q 644 319 644 246 q 611 453 644 394 q 520 544 578 511 q 389 576 463 576 q 259 542 317 576 q 167 450 201 508 q 133 318 133 392 q 167 183 133 243 q 260 89 201 124 q 390 54 318 54 m 301 907 q 361 891 336 907 q 408 860 386 875 q 449 844 429 844 q 469 850 458 844 q 488 864 479 856 q 501 882 497 872 q 522 900 507 896 q 551 896 538 904 q 567 884 560 892 q 574 869 574 876 q 556 820 574 843 q 511 783 539 797 q 449 769 483 769 q 398 785 424 769 q 349 816 372 800 q 301 832 325 832 q 269 822 286 832 q 244 796 251 811 q 224 783 239 786 q 196 785 210 779 q 180 805 185 792 q 181 829 175 818 q 210 868 190 850 q 253 897 229 886 q 301 907 278 907 z "},"œ":{"ha":1311,"x_min":56,"x_max":1272,"o":"m 393 -21 q 263 6 324 -21 q 155 78 201 32 q 82 185 108 124 q 56 315 56 246 q 81 447 56 386 q 153 553 107 507 q 260 626 200 600 q 390 651 321 651 q 558 608 483 651 q 678 488 633 564 q 722 317 722 413 q 697 183 722 244 q 626 76 671 122 q 521 5 581 31 q 393 -21 461 -21 m 390 54 q 519 90 461 54 q 610 185 576 125 q 644 319 644 246 q 611 453 644 394 q 520 544 578 511 q 389 576 463 576 q 259 542 317 576 q 167 450 201 508 q 133 318 133 392 q 167 183 133 243 q 260 89 201 124 q 390 54 318 54 m 988 -18 q 848 7 911 -18 q 740 78 785 32 q 669 186 694 124 q 644 325 644 249 q 688 488 644 415 q 807 602 731 560 q 982 644 883 644 q 1099 625 1046 644 q 1190 572 1151 606 q 1251 496 1229 539 q 1272 407 1272 453 q 1241 315 1272 339 q 1165 290 1210 290 l 728 290 q 765 164 725 217 q 865 83 804 111 q 986 54 925 54 q 1056 60 1026 54 q 1109 74 1086 65 q 1148 92 1132 83 q 1177 107 1164 101 q 1203 113 1190 113 q 1219 110 1214 113 q 1228 101 1225 108 q 1235 87 1233 92 q 1238 72 1238 82 q 1204 38 1238 60 q 1114 -1 1171 17 q 988 -18 1057 -18 m 728 357 l 1142 357 q 1185 363 1169 357 q 1200 404 1200 369 q 1172 488 1200 450 q 1094 550 1143 526 q 983 574 1046 574 q 855 546 914 574 q 761 469 796 518 q 728 357 726 419 z "},"p":{"ha":813,"x_min":90,"x_max":738,"o":"m 431 -12 q 306 11 363 -12 q 207 79 249 35 q 142 185 165 124 q 119 321 119 246 q 142 456 119 396 q 207 560 165 517 q 306 628 249 604 q 431 651 363 651 q 551 628 496 651 q 649 560 607 604 q 714 453 690 515 q 738 317 738 392 q 714 183 738 243 q 649 78 690 122 q 551 11 607 35 q 431 -12 496 -12 m 132 -281 q 108 -276 117 -281 q 94 -263 99 -272 q 90 -239 90 -254 l 90 604 q 94 630 90 621 q 106 643 97 639 q 131 647 115 647 q 163 638 154 647 q 172 606 172 629 l 172 -237 q 169 -262 172 -253 q 156 -276 165 -272 q 132 -281 147 -281 m 418 61 q 542 94 488 61 q 629 185 597 126 q 661 321 661 244 q 629 456 661 399 q 542 546 597 514 q 418 578 488 578 q 295 545 350 578 q 208 455 240 513 q 176 321 176 397 q 208 185 176 244 q 295 94 240 126 q 418 61 350 61 z "},"þ":{"ha":806,"x_min":90,"x_max":738,"o":"m 431 -12 q 306 11 363 -12 q 207 79 249 35 q 142 185 165 124 q 119 321 119 246 q 142 456 119 396 q 207 560 165 517 q 306 628 249 604 q 431 651 363 651 q 551 628 496 651 q 649 560 607 604 q 714 453 690 515 q 738 317 738 392 q 714 183 738 243 q 649 78 690 122 q 551 11 607 35 q 431 -12 496 -12 m 132 -281 q 108 -276 117 -281 q 94 -263 99 -272 q 90 -239 90 -254 l 90 911 q 94 937 90 928 q 106 950 97 946 q 131 954 115 954 q 155 950 146 954 q 168 937 164 946 q 172 913 172 928 l 172 -237 q 169 -262 172 -253 q 156 -276 165 -272 q 132 -281 147 -281 m 418 61 q 542 94 488 61 q 629 185 597 126 q 661 321 661 244 q 629 456 661 399 q 542 546 597 514 q 418 578 488 578 q 295 545 350 578 q 208 455 240 513 q 176 321 176 397 q 208 185 176 244 q 295 94 240 126 q 418 61 350 61 z "},"q":{"ha":800,"x_min":63,"x_max":710,"o":"m 369 -12 q 249 11 306 -12 q 151 78 193 35 q 86 183 110 122 q 63 317 63 243 q 86 453 63 392 q 151 560 110 515 q 249 628 193 604 q 369 651 306 651 q 494 628 438 651 q 593 560 551 604 q 658 456 635 517 q 681 321 681 396 q 658 185 681 246 q 593 79 635 124 q 494 11 551 35 q 369 -12 438 -12 m 382 61 q 505 94 450 61 q 592 185 560 126 q 624 321 624 244 q 592 455 624 397 q 506 545 560 513 q 382 578 451 578 q 258 545 314 578 q 171 455 203 513 q 139 321 139 397 q 171 185 139 244 q 258 94 203 126 q 382 61 314 61 m 668 -281 q 644 -276 653 -281 q 631 -262 635 -272 q 628 -237 628 -253 l 628 606 q 632 630 628 621 q 645 643 636 639 q 669 647 654 647 q 694 643 685 647 q 706 630 703 639 q 710 604 710 621 l 710 -239 q 706 -263 710 -254 q 692 -276 701 -272 q 668 -281 683 -281 z "},"r":{"ha":551,"x_min":104,"x_max":489,"o":"m 142 -15 q 119 -11 128 -15 q 108 3 111 -7 q 104 28 104 13 l 104 607 q 108 633 104 624 q 119 644 111 642 q 143 647 128 647 q 166 644 157 647 q 179 633 175 642 q 183 607 183 624 l 183 549 q 211 592 197 572 q 244 626 225 611 q 292 649 264 640 q 364 657 321 657 q 405 653 386 657 q 440 642 424 649 q 467 626 456 635 q 483 610 478 618 q 489 593 489 601 q 474 563 489 575 q 446 550 458 550 q 423 555 431 550 q 407 567 415 560 q 382 578 399 574 q 331 583 365 583 q 285 574 310 583 q 237 547 260 565 q 199 500 214 529 q 183 431 183 471 l 183 25 q 180 1 183 10 q 167 -12 176 -8 q 142 -15 158 -15 z "},"s":{"ha":639,"x_min":74,"x_max":563,"o":"m 314 -19 q 249 -13 282 -19 q 187 5 217 -7 q 132 33 157 17 q 92 68 107 49 q 78 92 82 82 q 77 110 74 101 q 90 125 81 118 q 119 139 106 142 q 156 113 133 136 q 188 87 168 99 q 229 67 207 75 q 274 54 251 58 q 315 50 296 50 q 439 80 392 50 q 486 161 486 110 q 476 208 486 188 q 450 242 467 228 q 412 266 433 256 q 365 284 390 276 q 313 299 339 292 q 235 320 274 308 q 167 350 197 332 q 117 397 136 368 q 99 472 99 426 q 126 564 99 525 q 201 625 153 603 q 314 647 250 647 q 374 642 346 647 q 426 628 401 638 q 472 605 450 618 q 511 574 493 592 q 529 546 528 558 q 519 519 531 533 q 493 503 507 506 q 464 517 479 501 q 417 552 442 539 q 367 572 393 565 q 314 579 342 579 q 242 566 274 579 q 192 528 210 553 q 175 472 175 504 q 187 433 175 449 q 218 406 199 417 q 264 386 238 394 q 319 369 290 378 q 404 345 361 358 q 483 310 447 332 q 540 254 518 289 q 563 164 563 219 q 492 31 563 81 q 314 -19 422 -19 z "},"š":{"ha":639,"x_min":74,"x_max":563,"o":"m 314 -19 q 249 -13 282 -19 q 187 5 217 -7 q 132 33 157 17 q 92 68 107 49 q 78 92 82 82 q 77 110 74 101 q 90 125 81 118 q 119 139 106 142 q 156 113 133 136 q 188 87 168 99 q 229 67 207 75 q 274 54 251 58 q 315 50 296 50 q 439 80 392 50 q 486 161 486 110 q 476 208 486 188 q 450 242 467 228 q 412 266 433 256 q 365 284 390 276 q 313 299 339 292 q 235 320 274 308 q 167 350 197 332 q 117 397 136 368 q 99 472 99 426 q 126 564 99 525 q 201 625 153 603 q 314 647 250 647 q 374 642 346 647 q 426 628 401 638 q 472 605 450 618 q 511 574 493 592 q 529 546 528 558 q 519 519 531 533 q 493 503 507 506 q 464 517 479 501 q 417 552 442 539 q 367 572 393 565 q 314 579 342 579 q 242 566 274 579 q 192 528 210 553 q 175 472 175 504 q 187 433 175 449 q 218 406 199 417 q 264 386 238 394 q 319 369 290 378 q 404 345 361 358 q 483 310 447 332 q 540 254 518 289 q 563 164 563 219 q 492 31 563 81 q 314 -19 422 -19 m 326 824 l 458 897 q 476 903 468 903 q 491 899 483 904 q 506 879 499 893 q 511 849 517 860 q 482 826 506 838 l 344 754 q 335 751 339 751 q 326 750 332 750 q 317 751 321 750 q 308 754 314 751 l 171 826 q 144 848 150 838 q 147 876 138 858 q 163 897 156 890 q 178 903 171 903 q 194 897 186 903 l 326 824 z "},"ß":{"ha":808,"x_min":104,"x_max":732,"o":"m 143 -29 q 121 -26 129 -29 q 108 -13 113 -22 q 104 11 104 -4 l 104 649 q 137 807 104 742 q 233 907 169 872 q 388 942 296 942 q 508 913 461 942 q 578 841 556 883 q 601 761 601 799 q 585 673 601 707 q 547 615 568 639 q 508 565 525 590 q 492 504 492 540 q 516 449 492 469 q 576 413 540 429 q 648 375 613 397 q 708 316 683 353 q 732 215 732 279 q 714 128 732 168 q 663 60 696 89 q 588 16 631 32 q 496 0 546 0 q 399 13 444 0 q 321 50 354 26 q 308 72 306 61 q 318 100 311 83 q 332 119 324 114 q 350 123 340 124 q 369 115 360 122 q 399 98 383 108 q 437 81 415 88 q 488 74 458 74 q 569 88 531 74 q 631 132 607 101 q 654 214 654 163 q 629 291 654 263 q 568 338 604 319 q 496 376 532 357 q 435 421 460 394 q 410 490 410 447 q 426 570 410 540 q 465 624 443 600 q 504 678 488 647 q 521 761 521 710 q 506 815 521 790 q 460 853 490 839 q 388 868 431 868 q 284 851 324 868 q 222 806 244 835 q 192 740 200 778 q 183 661 183 703 l 183 8 q 179 -14 183 -6 q 167 -26 175 -22 q 143 -29 158 -29 z "},"t":{"ha":497,"x_min":49,"x_max":449,"o":"m 399 -15 q 294 -4 336 -15 q 225 31 251 7 q 188 94 199 54 q 176 192 176 133 l 176 831 q 180 856 176 847 q 192 869 183 865 q 214 874 200 874 q 238 870 229 874 q 251 858 247 867 q 256 835 256 850 l 256 189 q 263 120 256 146 q 287 82 271 94 q 331 66 303 69 q 397 63 358 63 q 423 59 414 63 q 436 47 432 56 q 440 24 440 39 q 436 0 440 8 q 423 -12 432 -8 q 399 -15 414 -15 m 90 629 l 214 626 l 407 629 q 431 626 422 629 q 444 614 440 622 q 449 592 449 606 q 445 567 449 576 q 433 555 442 558 q 410 551 425 551 l 214 554 l 88 551 q 57 560 65 551 q 49 592 49 569 q 58 621 49 613 q 90 629 68 629 z "},"u":{"ha":742,"x_min":76,"x_max":651,"o":"m 353 -17 q 243 3 293 -17 q 156 62 193 24 q 97 155 118 100 q 76 281 76 210 l 76 607 q 80 631 76 622 q 92 644 83 640 q 115 647 101 647 q 140 643 131 647 q 152 630 149 639 q 156 606 156 621 l 156 279 q 178 162 156 213 q 244 83 200 111 q 356 56 289 56 q 472 83 424 56 q 547 162 521 111 q 574 279 574 213 l 574 607 q 577 631 574 622 q 590 644 581 640 q 614 647 599 647 q 636 643 628 647 q 648 630 644 639 q 651 606 651 621 l 651 22 q 648 1 651 10 q 636 -10 644 -7 q 613 -14 628 -14 q 596 -12 603 -14 q 585 -6 589 -10 q 578 6 581 -1 q 576 22 576 13 l 576 104 q 536 59 558 81 q 487 20 514 38 q 426 -7 460 3 q 353 -17 393 -17 z "},"ú":{"ha":742,"x_min":76,"x_max":651,"o":"m 353 -17 q 243 3 293 -17 q 156 62 193 24 q 97 155 118 100 q 76 281 76 210 l 76 607 q 80 631 76 622 q 92 644 83 640 q 115 647 101 647 q 140 643 131 647 q 152 630 149 639 q 156 606 156 621 l 156 279 q 178 162 156 213 q 244 83 200 111 q 356 56 289 56 q 472 83 424 56 q 547 162 521 111 q 574 279 574 213 l 574 607 q 577 631 574 622 q 590 644 581 640 q 614 647 599 647 q 636 643 628 647 q 648 630 644 639 q 651 606 651 621 l 651 22 q 648 1 651 10 q 636 -10 644 -7 q 613 -14 628 -14 q 596 -12 603 -14 q 585 -6 589 -10 q 578 6 581 -1 q 576 22 576 13 l 576 104 q 536 59 558 81 q 487 20 514 38 q 426 -7 460 3 q 353 -17 393 -17 m 346 760 q 315 757 325 753 q 297 782 304 761 q 295 813 290 801 q 318 831 300 824 l 529 904 q 560 906 549 911 q 576 879 571 900 q 578 849 583 860 q 553 832 572 839 l 346 760 z "},"û":{"ha":742,"x_min":76,"x_max":651,"o":"m 353 -17 q 243 3 293 -17 q 156 62 193 24 q 97 155 118 100 q 76 281 76 210 l 76 607 q 80 631 76 622 q 92 644 83 640 q 115 647 101 647 q 140 643 131 647 q 152 630 149 639 q 156 606 156 621 l 156 279 q 178 162 156 213 q 244 83 200 111 q 356 56 289 56 q 472 83 424 56 q 547 162 521 111 q 574 279 574 213 l 574 607 q 577 631 574 622 q 590 644 581 640 q 614 647 599 647 q 636 643 628 647 q 648 630 644 639 q 651 606 651 621 l 651 22 q 648 1 651 10 q 636 -10 644 -7 q 613 -14 628 -14 q 596 -12 603 -14 q 585 -6 589 -10 q 578 6 581 -1 q 576 22 576 13 l 576 104 q 536 59 558 81 q 487 20 514 38 q 426 -7 460 3 q 353 -17 393 -17 m 369 908 q 378 908 375 908 q 388 904 382 907 l 525 832 q 554 810 549 822 q 549 779 560 799 q 526 756 538 760 q 501 761 515 753 l 369 835 l 238 761 q 213 758 225 754 q 190 782 201 761 q 187 812 181 801 q 214 832 193 822 l 351 904 q 360 908 357 907 q 369 908 364 908 z "},"ü":{"ha":742,"x_min":76,"x_max":651,"o":"m 353 -17 q 243 3 293 -17 q 156 62 193 24 q 97 155 118 100 q 76 281 76 210 l 76 607 q 80 631 76 622 q 92 644 83 640 q 115 647 101 647 q 140 643 131 647 q 152 630 149 639 q 156 606 156 621 l 156 279 q 178 162 156 213 q 244 83 200 111 q 356 56 289 56 q 472 83 424 56 q 547 162 521 111 q 574 279 574 213 l 574 607 q 577 631 574 622 q 590 644 581 640 q 614 647 599 647 q 636 643 628 647 q 648 630 644 639 q 651 606 651 621 l 651 22 q 648 1 651 10 q 636 -10 644 -7 q 613 -14 628 -14 q 596 -12 603 -14 q 585 -6 589 -10 q 578 6 581 -1 q 576 22 576 13 l 576 104 q 536 59 558 81 q 487 20 514 38 q 426 -7 460 3 q 353 -17 393 -17 m 451 789 q 418 796 428 789 q 406 815 408 803 q 404 838 404 826 q 406 860 404 850 q 418 878 408 871 q 451 885 428 885 q 486 878 476 885 q 498 860 496 871 q 500 838 500 849 q 498 815 500 826 q 486 796 496 803 q 451 789 476 789 m 299 789 q 264 796 274 789 q 252 815 254 803 q 250 838 250 826 q 252 860 250 850 q 264 878 254 871 q 299 885 274 885 q 332 878 322 885 q 344 860 342 871 q 346 838 346 849 q 344 815 346 826 q 332 796 342 803 q 299 789 322 789 z "},"ù":{"ha":742,"x_min":76,"x_max":651,"o":"m 353 -17 q 243 3 293 -17 q 156 62 193 24 q 97 155 118 100 q 76 281 76 210 l 76 607 q 80 631 76 622 q 92 644 83 640 q 115 647 101 647 q 140 643 131 647 q 152 630 149 639 q 156 606 156 621 l 156 279 q 178 162 156 213 q 244 83 200 111 q 356 56 289 56 q 472 83 424 56 q 547 162 521 111 q 574 279 574 213 l 574 607 q 577 631 574 622 q 590 644 581 640 q 614 647 599 647 q 636 643 628 647 q 648 630 644 639 q 651 606 651 621 l 651 22 q 648 1 651 10 q 636 -10 644 -7 q 613 -14 628 -14 q 596 -12 603 -14 q 585 -6 589 -10 q 578 6 581 -1 q 576 22 576 13 l 576 104 q 536 59 558 81 q 487 20 514 38 q 426 -7 460 3 q 353 -17 393 -17 m 392 765 l 185 838 q 161 855 167 844 q 161 885 156 865 q 179 911 168 906 q 208 910 190 917 l 419 836 q 443 818 439 829 q 440 788 447 807 q 423 763 433 767 q 392 765 413 758 z "},"v":{"ha":728,"x_min":46,"x_max":682,"o":"m 363 -15 q 334 -11 344 -15 q 317 7 324 -7 l 56 597 q 53 631 46 621 q 79 650 61 640 q 109 655 96 658 q 131 632 122 651 l 363 75 l 590 614 q 610 649 599 633 q 653 649 622 664 q 678 618 682 635 q 668 586 675 601 l 410 8 q 393 -10 404 -4 q 363 -15 382 -15 z "},"w":{"ha":1072,"x_min":49,"x_max":1028,"o":"m 318 -8 q 298 -6 306 -8 q 286 3 290 -3 q 279 21 282 10 l 54 599 q 49 623 49 614 q 58 639 50 632 q 79 650 65 646 q 113 653 103 657 q 132 626 124 649 l 319 132 l 493 622 q 502 640 497 633 q 515 651 507 647 q 536 654 524 654 q 558 651 550 654 q 571 641 565 647 q 579 625 576 635 l 753 128 l 940 624 q 962 654 950 649 q 997 653 974 660 q 1022 635 1017 647 q 1018 599 1028 624 l 793 19 q 785 3 790 10 q 773 -6 781 -3 q 754 -8 765 -8 q 735 -6 743 -8 q 723 5 728 -3 q 714 24 718 13 l 536 538 l 358 24 q 349 5 354 13 q 337 -6 344 -3 q 318 -8 329 -8 z "},"x":{"ha":665,"x_min":61,"x_max":606,"o":"m 579 647 q 600 629 594 638 q 602 609 606 621 q 583 578 599 597 l 146 7 q 122 -17 132 -11 q 104 -22 113 -24 q 85 -12 96 -19 q 67 5 72 -3 q 66 24 61 13 q 85 56 71 36 l 522 626 q 551 655 542 651 q 579 647 561 658 m 88 647 q 108 656 100 654 q 124 650 117 657 q 144 626 132 643 l 582 56 q 601 24 597 36 q 601 5 606 13 q 582 -12 596 -3 q 563 -22 571 -19 q 544 -17 554 -24 q 521 7 535 -11 l 83 578 q 65 610 69 597 q 67 631 61 622 q 88 647 72 639 z "},"y":{"ha":707,"x_min":47,"x_max":668,"o":"m 226 -279 q 202 -259 206 -271 q 208 -225 199 -247 l 588 625 q 609 653 597 647 q 642 649 621 658 q 665 626 663 639 q 658 593 668 614 l 278 -260 q 258 -285 268 -282 q 226 -279 247 -287 m 372 97 l 60 583 q 50 615 47 603 q 71 639 53 628 q 103 649 90 651 q 129 626 117 646 l 414 175 l 372 97 z "},"ý":{"ha":707,"x_min":47,"x_max":668,"o":"m 226 -279 q 202 -259 206 -271 q 208 -225 199 -247 l 588 625 q 609 653 597 647 q 642 649 621 658 q 665 626 663 639 q 658 593 668 614 l 278 -260 q 258 -285 268 -282 q 226 -279 247 -287 m 372 97 l 60 583 q 50 615 47 603 q 71 639 53 628 q 103 649 90 651 q 129 626 117 646 l 414 175 l 372 97 m 336 760 q 305 757 315 753 q 288 782 294 761 q 285 813 281 801 q 308 831 290 824 l 519 904 q 550 906 539 911 q 567 879 561 900 q 568 849 574 860 q 543 832 563 839 l 336 760 z "},"ÿ":{"ha":707,"x_min":47,"x_max":668,"o":"m 226 -279 q 202 -259 206 -271 q 208 -225 199 -247 l 588 625 q 609 653 597 647 q 642 649 621 658 q 665 626 663 639 q 658 593 668 614 l 278 -260 q 258 -285 268 -282 q 226 -279 247 -287 m 372 97 l 60 583 q 50 615 47 603 q 71 639 53 628 q 103 649 90 651 q 129 626 117 646 l 414 175 l 372 97 m 442 789 q 408 796 418 789 q 397 815 399 803 q 394 838 394 826 q 397 860 394 850 q 408 878 399 871 q 442 885 418 885 q 476 878 467 885 q 488 860 486 871 q 490 838 490 849 q 488 815 490 826 q 476 796 486 803 q 442 789 467 789 m 289 789 q 254 796 264 789 q 242 815 244 803 q 240 838 240 826 q 242 860 240 850 q 254 878 244 871 q 289 885 264 885 q 322 878 313 885 q 334 860 332 871 q 336 838 336 849 q 334 815 336 826 q 322 796 332 803 q 289 789 313 789 z "},"z":{"ha":731,"x_min":63,"x_max":669,"o":"m 101 -15 q 71 -7 79 -15 q 63 22 63 1 q 66 43 63 35 q 76 58 69 51 l 533 567 l 136 567 q 112 570 121 567 q 99 583 103 574 q 94 607 94 592 q 99 631 94 622 q 112 644 103 640 q 136 647 121 647 l 611 647 q 642 639 633 647 q 650 610 650 631 q 648 593 650 600 q 642 582 646 586 l 185 65 l 629 65 q 653 61 644 65 q 666 48 663 57 q 669 24 669 39 q 665 1 669 10 q 652 -12 661 -8 q 628 -15 643 -15 l 101 -15 z "},"ž":{"ha":731,"x_min":63,"x_max":669,"o":"m 101 -15 q 71 -7 79 -15 q 63 22 63 1 q 66 43 63 35 q 76 58 69 51 l 533 567 l 136 567 q 112 570 121 567 q 99 583 103 574 q 94 607 94 592 q 99 631 94 622 q 112 644 103 640 q 136 647 121 647 l 611 647 q 642 639 633 647 q 650 610 650 631 q 648 593 650 600 q 642 582 646 586 l 185 65 l 629 65 q 653 61 644 65 q 666 48 663 57 q 669 24 669 39 q 665 1 669 10 q 652 -12 661 -8 q 628 -15 643 -15 l 101 -15 m 365 824 l 497 897 q 515 903 507 903 q 530 899 522 904 q 544 879 538 893 q 550 849 556 860 q 521 826 544 838 l 383 754 q 374 751 378 751 q 365 750 371 750 q 356 751 360 750 q 347 754 353 751 l 210 826 q 183 848 189 838 q 186 876 176 858 q 202 897 194 890 q 217 903 210 903 q 233 897 225 903 l 365 824 z "},"ﬁ":{"ha":786,"x_min":53,"x_max":675,"o":"m 217 -15 q 194 -11 203 -15 q 183 3 186 -7 q 179 28 179 13 l 179 750 q 190 848 179 808 q 228 911 201 888 q 297 946 254 935 q 401 957 339 957 q 426 953 417 957 q 439 942 435 950 q 443 918 443 933 q 439 895 443 904 q 426 883 435 886 q 400 879 417 879 q 333 876 361 879 q 290 860 306 872 q 266 823 274 849 q 258 753 258 797 l 258 24 q 254 1 258 10 q 241 -12 250 -8 q 217 -15 232 -15 m 94 629 l 218 626 l 411 629 q 435 626 426 629 q 449 614 444 622 q 453 592 453 606 q 449 567 453 576 q 438 555 446 558 q 414 551 429 551 l 218 554 l 92 551 q 61 560 69 551 q 53 592 53 569 q 63 621 53 613 q 94 629 72 629 m 622 -15 q 599 -11 608 -15 q 587 2 590 -7 q 583 26 583 11 l 583 607 q 587 631 583 622 q 599 644 590 640 q 624 647 608 647 q 647 643 639 647 q 659 630 656 639 q 663 604 663 621 l 663 25 q 659 1 663 10 q 647 -12 656 -8 q 622 -15 638 -15 m 622 847 q 592 853 603 847 q 576 871 581 858 q 571 903 571 883 q 576 933 571 922 q 592 949 581 944 q 624 954 604 954 q 654 949 643 954 q 670 931 665 943 q 675 899 675 919 q 670 869 675 881 q 654 852 665 857 q 622 847 643 847 z "},"ﬂ":{"ha":892,"x_min":53,"x_max":811,"o":"m 217 -15 q 194 -11 203 -15 q 183 3 186 -7 q 179 28 179 13 l 179 750 q 190 848 179 808 q 228 911 201 888 q 297 946 254 935 q 401 957 339 957 q 426 953 417 957 q 439 942 435 950 q 443 918 443 933 q 439 895 443 904 q 426 883 435 886 q 400 879 417 879 q 333 876 361 879 q 290 860 306 872 q 266 823 274 849 q 258 753 258 797 l 258 24 q 254 1 258 10 q 241 -12 250 -8 q 217 -15 232 -15 m 94 629 l 218 626 l 411 629 q 435 626 426 629 q 449 614 444 622 q 453 592 453 606 q 449 567 453 576 q 438 555 446 558 q 414 551 429 551 l 218 554 l 92 551 q 61 560 69 551 q 53 592 53 569 q 63 621 53 613 q 94 629 72 629 m 769 -15 q 699 -7 731 -15 q 644 18 668 1 q 605 60 621 35 q 581 118 589 85 q 574 192 574 151 l 574 914 q 577 940 574 931 q 590 953 581 949 q 613 957 599 957 q 637 953 628 957 q 650 942 646 950 q 654 918 654 933 l 654 189 q 661 135 654 158 q 683 97 668 113 q 719 73 697 81 q 768 65 740 65 q 794 62 785 65 q 807 49 803 58 q 811 25 811 40 q 807 1 811 10 q 794 -12 803 -8 q 769 -15 785 -15 z "},"ª":{"ha":618,"x_min":35,"x_max":549,"o":"m 513 954 q 534 949 526 954 q 545 933 542 944 q 549 903 549 922 l 549 478 q 545 451 549 461 q 533 436 542 440 q 511 432 525 432 q 483 442 492 432 q 472 478 475 451 l 472 533 q 430 479 457 503 q 366 443 403 456 q 283 431 329 431 q 158 464 214 431 q 68 557 101 497 q 35 696 35 617 q 68 832 35 774 q 158 922 101 890 q 283 954 214 954 q 359 942 324 954 q 423 910 394 931 q 472 861 451 889 l 472 903 q 481 942 472 931 q 513 954 490 954 m 299 503 q 388 526 350 503 q 447 593 425 550 q 468 693 468 636 q 447 794 468 751 q 386 861 425 838 q 296 885 347 885 q 162 831 213 885 q 111 690 111 778 q 135 592 111 635 q 201 526 158 550 q 299 503 243 503 z "},"º":{"ha":610,"x_min":71,"x_max":571,"o":"m 324 432 q 192 465 249 432 q 103 556 135 497 q 71 692 71 614 q 103 828 71 769 q 192 919 135 886 q 324 951 249 951 q 454 919 399 951 q 540 829 510 888 q 571 693 571 771 q 540 556 571 615 q 454 465 510 497 q 324 432 399 432 m 324 507 q 447 559 400 507 q 493 696 493 611 q 447 827 493 778 q 324 876 400 876 q 197 826 244 876 q 149 694 149 776 q 197 558 149 610 q 324 507 244 507 z "},"א":{"ha":904,"x_min":76,"x_max":829,"o":"m 813 -11 q 790 -23 800 -21 q 773 -21 781 -25 q 756 -6 765 -17 l 178 701 q 153 736 163 722 q 144 762 143 750 q 163 788 146 774 q 187 796 176 799 q 210 781 197 793 q 238 749 222 769 l 815 42 q 827 22 825 31 q 826 4 829 13 q 813 -11 822 -4 m 103 -14 q 83 -3 89 -11 q 76 20 76 6 q 82 54 76 35 l 254 647 l 318 628 l 160 46 q 147 3 153 17 q 131 -14 140 -11 q 103 -14 122 -17 m 633 221 l 606 228 l 731 738 q 742 772 736 757 q 758 792 747 786 q 790 792 769 799 q 810 778 806 788 q 813 754 815 768 q 804 719 810 740 l 701 326 q 687 279 694 299 q 667 247 679 260 q 633 221 654 233 z "},"אַ":{"ha":904,"x_min":76,"x_max":829,"o":"m 813 -11 q 790 -23 800 -21 q 773 -21 781 -25 q 756 -6 765 -17 l 178 701 q 153 736 163 722 q 144 762 143 750 q 163 788 146 774 q 187 796 176 799 q 210 781 197 793 q 238 749 222 769 l 815 42 q 827 22 825 31 q 826 4 829 13 q 813 -11 822 -4 m 103 -14 q 83 -3 89 -11 q 76 20 76 6 q 82 54 76 35 l 254 647 l 318 628 l 160 46 q 147 3 153 17 q 131 -14 140 -11 q 103 -14 122 -17 m 633 221 l 606 228 l 731 738 q 742 772 736 757 q 758 792 747 786 q 790 792 769 799 q 810 778 806 788 q 813 754 815 768 q 804 719 810 740 l 701 326 q 687 279 694 299 q 667 247 679 260 q 633 221 654 233 m 399 -158 q 364 -124 364 -158 l 364 -118 q 373 -92 364 -101 q 399 -83 382 -83 l 560 -83 q 594 -118 594 -83 l 594 -124 q 560 -158 594 -158 l 399 -158 z "},"אָ":{"ha":904,"x_min":76,"x_max":829,"o":"m 813 -11 q 790 -23 800 -21 q 773 -21 781 -25 q 756 -6 765 -17 l 178 701 q 153 736 163 722 q 144 762 143 750 q 163 788 146 774 q 187 796 176 799 q 210 781 197 793 q 238 749 222 769 l 815 42 q 827 22 825 31 q 826 4 829 13 q 813 -11 822 -4 m 103 -14 q 83 -3 89 -11 q 76 20 76 6 q 82 54 76 35 l 254 647 l 318 628 l 160 46 q 147 3 153 17 q 131 -14 140 -11 q 103 -14 122 -17 m 633 221 l 606 228 l 731 738 q 742 772 736 757 q 758 792 747 786 q 790 792 769 799 q 810 778 806 788 q 813 754 815 768 q 804 719 810 740 l 701 326 q 687 279 694 299 q 667 247 679 260 q 633 221 654 233 m 476 -311 q 450 -301 458 -311 q 443 -274 442 -290 l 458 -158 l 385 -158 q 350 -124 350 -158 l 350 -118 q 359 -92 350 -101 q 385 -83 368 -83 l 574 -83 q 599 -92 590 -83 q 608 -118 608 -101 l 608 -124 q 574 -158 608 -158 l 500 -158 l 513 -275 q 506 -301 515 -292 q 481 -311 497 -311 l 476 -311 z "},"אּ":{"ha":904,"x_min":76,"x_max":829,"o":"m 813 -11 q 790 -23 800 -21 q 773 -21 781 -25 q 756 -6 765 -17 l 178 701 q 153 736 163 722 q 144 762 143 750 q 163 788 146 774 q 187 796 176 799 q 210 781 197 793 q 238 749 222 769 l 815 42 q 827 22 825 31 q 826 4 829 13 q 813 -11 822 -4 m 103 -14 q 83 -3 89 -11 q 76 20 76 6 q 82 54 76 35 l 254 647 l 318 628 l 160 46 q 147 3 153 17 q 131 -14 140 -11 q 103 -14 122 -17 m 633 221 l 606 228 l 731 738 q 742 772 736 757 q 758 792 747 786 q 790 792 769 799 q 810 778 806 788 q 813 754 815 768 q 804 719 810 740 l 701 326 q 687 279 694 299 q 667 247 679 260 q 633 221 654 233 m 408 100 q 374 115 388 100 q 361 153 361 131 q 376 188 361 172 q 408 203 390 203 q 442 188 428 203 q 456 153 456 174 q 442 115 456 131 q 408 100 429 100 z "},"ב":{"ha":892,"x_min":104,"x_max":808,"o":"m 656 -15 q 634 -12 643 -15 q 620 -1 625 -8 q 615 17 615 7 l 615 393 q 597 537 615 475 q 543 641 579 599 q 454 704 507 683 q 331 725 401 725 l 160 725 q 137 730 146 725 q 123 744 128 735 q 118 765 118 753 q 123 788 118 779 q 137 801 128 796 q 158 806 146 806 l 326 806 q 485 779 417 806 q 601 701 554 753 q 671 574 647 650 q 694 397 694 497 l 694 26 q 690 3 694 13 q 677 -10 686 -6 q 656 -15 668 -15 m 146 -15 q 123 -10 132 -15 q 109 3 114 -6 q 104 25 104 13 q 109 47 104 39 q 123 60 114 56 q 144 65 132 65 l 768 65 q 790 60 782 65 q 803 47 799 56 q 808 25 808 39 q 803 3 808 13 q 790 -10 799 -6 q 767 -15 781 -15 l 146 -15 z "},"בּ":{"ha":892,"x_min":104,"x_max":808,"o":"m 656 -15 q 634 -12 643 -15 q 620 -1 625 -8 q 615 17 615 7 l 615 393 q 597 537 615 475 q 543 641 579 599 q 454 704 507 683 q 331 725 401 725 l 160 725 q 137 730 146 725 q 123 744 128 735 q 118 765 118 753 q 123 788 118 779 q 137 801 128 796 q 158 806 146 806 l 326 806 q 485 779 417 806 q 601 701 554 753 q 671 574 647 650 q 694 397 694 497 l 694 26 q 690 3 694 13 q 677 -10 686 -6 q 656 -15 668 -15 m 146 -15 q 123 -10 132 -15 q 109 3 114 -6 q 104 25 104 13 q 109 47 104 39 q 123 60 114 56 q 144 65 132 65 l 768 65 q 790 60 782 65 q 803 47 799 56 q 808 25 808 39 q 803 3 808 13 q 790 -10 799 -6 q 767 -15 781 -15 l 146 -15 m 313 374 q 278 389 292 374 q 265 426 265 404 q 280 461 265 446 q 313 476 294 476 q 346 462 332 476 q 360 426 360 447 q 347 389 360 404 q 313 374 333 374 z "},"ג":{"ha":618,"x_min":69,"x_max":522,"o":"m 478 -12 q 458 -9 467 -12 q 446 2 450 -6 q 440 22 442 10 l 381 511 q 369 601 375 563 q 352 667 363 640 q 323 709 342 694 q 271 726 304 724 q 213 730 236 729 q 181 733 190 731 q 168 742 172 736 q 164 757 164 747 l 165 778 q 173 799 167 792 q 199 806 179 806 q 226 806 206 806 q 281 801 246 806 q 353 778 324 796 q 401 728 382 760 q 431 652 419 697 q 450 546 442 607 l 519 22 q 511 -3 522 7 q 478 -12 500 -12 m 115 -11 q 90 -9 100 -11 q 74 1 79 -7 q 69 25 69 8 q 78 58 69 50 q 108 65 88 65 q 174 74 140 67 q 242 94 208 81 q 308 126 275 107 q 370 173 340 146 q 426 233 400 200 l 428 157 q 383 103 408 128 q 326 58 357 78 q 260 23 294 38 q 189 -1 225 8 q 115 -11 153 -10 z "},"גּ":{"ha":618,"x_min":69,"x_max":522,"o":"m 478 -12 q 458 -9 467 -12 q 446 2 450 -6 q 440 22 442 10 l 381 511 q 369 601 375 563 q 352 667 363 640 q 323 709 342 694 q 271 726 304 724 q 213 730 236 729 q 181 733 190 731 q 168 742 172 736 q 164 757 164 747 l 165 778 q 173 799 167 792 q 199 806 179 806 q 226 806 206 806 q 281 801 246 806 q 353 778 324 796 q 401 728 382 760 q 431 652 419 697 q 450 546 442 607 l 519 22 q 511 -3 522 7 q 478 -12 500 -12 m 115 -11 q 90 -9 100 -11 q 74 1 79 -7 q 69 25 69 8 q 78 58 69 50 q 108 65 88 65 q 174 74 140 67 q 242 94 208 81 q 308 126 275 107 q 370 173 340 146 q 426 233 400 200 l 428 157 q 383 103 408 128 q 326 58 357 78 q 260 23 294 38 q 189 -1 225 8 q 115 -11 153 -10 m 186 385 q 152 400 165 385 q 139 438 139 415 q 153 472 139 457 q 186 488 168 488 q 219 473 206 488 q 233 438 233 458 q 220 400 233 415 q 186 385 207 385 z "},"ד":{"ha":854,"x_min":76,"x_max":764,"o":"m 118 725 q 95 730 104 725 q 81 744 86 735 q 76 765 76 753 q 81 788 76 779 q 95 801 86 796 q 117 806 104 806 l 724 806 q 746 801 738 806 q 759 788 754 796 q 764 765 764 779 q 759 744 764 753 q 745 730 754 735 q 722 725 736 725 l 118 725 m 560 -14 q 539 -9 547 -14 q 526 5 531 -4 q 521 28 521 14 l 521 726 l 600 726 l 600 18 q 595 1 600 8 q 582 -10 590 -7 q 560 -14 574 -14 z "},"דּ":{"ha":854,"x_min":76,"x_max":764,"o":"m 118 725 q 95 730 104 725 q 81 744 86 735 q 76 765 76 753 q 81 788 76 779 q 95 801 86 796 q 117 806 104 806 l 724 806 q 746 801 738 806 q 759 788 754 796 q 764 765 764 779 q 759 744 764 753 q 745 730 754 735 q 722 725 736 725 l 118 725 m 560 -14 q 539 -9 547 -14 q 526 5 531 -4 q 521 28 521 14 l 521 726 l 600 726 l 600 18 q 595 1 600 8 q 582 -10 590 -7 q 560 -14 574 -14 m 242 374 q 208 389 221 374 q 194 426 194 404 q 209 461 194 446 q 242 476 224 476 q 275 462 261 476 q 289 426 289 447 q 276 389 289 404 q 242 374 263 374 z "},"ה":{"ha":854,"x_min":90,"x_max":778,"o":"m 739 -14 q 717 -10 726 -14 q 703 1 708 -7 q 699 18 699 8 l 699 393 q 667 576 699 503 q 572 688 635 650 q 414 725 508 725 l 132 725 q 109 730 118 725 q 95 744 100 735 q 90 765 90 753 q 95 788 90 779 q 109 801 100 796 q 131 806 118 806 l 410 806 q 613 759 531 806 q 736 622 694 713 q 778 397 778 532 l 778 28 q 774 5 778 14 q 760 -9 769 -4 q 739 -14 751 -14 m 143 -14 q 122 -9 131 -14 q 109 5 114 -4 q 104 26 104 14 l 104 415 q 109 437 104 428 q 123 450 114 446 q 144 454 132 454 q 166 449 157 454 q 179 436 175 444 q 183 414 183 428 l 183 25 q 178 4 183 13 q 165 -9 174 -4 q 143 -14 157 -14 z "},"הּ":{"ha":854,"x_min":90,"x_max":778,"o":"m 739 -14 q 717 -10 726 -14 q 703 1 708 -7 q 699 18 699 8 l 699 393 q 667 576 699 503 q 572 688 635 650 q 414 725 508 725 l 132 725 q 109 730 118 725 q 95 744 100 735 q 90 765 90 753 q 95 788 90 779 q 109 801 100 796 q 131 806 118 806 l 410 806 q 613 759 531 806 q 736 622 694 713 q 778 397 778 532 l 778 28 q 774 5 778 14 q 760 -9 769 -4 q 739 -14 751 -14 m 143 -14 q 122 -9 131 -14 q 109 5 114 -4 q 104 26 104 14 l 104 415 q 109 437 104 428 q 123 450 114 446 q 144 454 132 454 q 166 449 157 454 q 179 436 175 444 q 183 414 183 428 l 183 25 q 178 4 183 13 q 165 -9 174 -4 q 143 -14 157 -14 m 415 374 q 381 389 394 374 q 368 426 368 404 q 383 461 368 446 q 415 476 397 476 q 449 462 435 476 q 463 426 463 447 q 449 389 463 404 q 415 374 436 374 z "},"ו":{"ha":343,"x_min":132,"x_max":211,"o":"m 171 -14 q 150 -9 158 -14 q 137 5 142 -4 q 132 26 132 14 l 132 767 q 137 788 132 779 q 151 801 142 797 q 172 806 160 806 q 194 801 185 806 q 207 788 203 796 q 211 765 211 779 l 211 25 q 206 4 211 13 q 193 -9 201 -4 q 171 -14 185 -14 z "},"וּ":{"ha":474,"x_min":56,"x_max":328,"o":"m 288 -14 q 267 -9 275 -14 q 253 5 258 -4 q 249 26 249 14 l 249 767 q 253 788 249 779 q 267 801 258 797 q 289 806 276 806 q 310 801 301 806 q 324 788 319 796 q 328 765 328 779 l 328 25 q 323 4 328 13 q 310 -9 318 -4 q 288 -14 301 -14 m 103 401 q 69 417 82 401 q 56 454 56 432 q 70 489 56 474 q 103 504 85 504 q 136 490 122 504 q 150 454 150 475 q 137 417 150 432 q 103 401 124 401 z "},"וֹ":{"ha":343,"x_min":-26,"x_max":211,"o":"m 171 -14 q 150 -9 158 -14 q 137 5 142 -4 q 132 26 132 14 l 132 767 q 137 788 132 779 q 151 801 142 797 q 172 806 160 806 q 194 801 185 806 q 207 788 203 796 q 211 765 211 779 l 211 25 q 206 4 211 13 q 193 -9 201 -4 q 171 -14 185 -14 m 21 940 q -13 956 0 940 q -26 993 -26 971 q -12 1028 -26 1013 q 21 1043 3 1043 q 54 1028 40 1043 q 68 993 68 1014 q 55 956 68 971 q 21 940 42 940 z "},"ז":{"ha":618,"x_min":79,"x_max":517,"o":"m 336 -14 q 316 -10 324 -14 q 305 1 308 -7 q 299 19 301 8 q 296 43 297 29 l 246 433 q 236 570 236 514 q 247 665 236 626 q 275 733 257 704 l 331 733 q 320 693 325 714 q 313 648 315 672 q 311 593 311 624 q 314 523 311 563 q 324 431 317 483 l 371 47 q 369 0 375 14 q 336 -14 363 -14 m 121 725 q 98 730 107 725 q 84 744 89 735 q 79 765 79 753 q 84 788 79 779 q 98 801 89 796 q 119 806 107 806 l 476 806 q 499 801 490 806 q 512 788 507 796 q 517 765 517 779 q 512 744 517 753 q 498 730 507 735 q 475 725 489 725 l 121 725 z "},"זּ":{"ha":646,"x_min":26,"x_max":540,"o":"m 360 -14 q 340 -10 347 -14 q 328 1 332 -7 q 323 19 325 8 q 319 43 321 29 l 269 433 q 260 570 260 514 q 270 665 260 626 q 299 733 281 704 l 354 733 q 344 693 349 714 q 337 648 339 672 q 335 593 335 624 q 338 523 335 563 q 347 431 340 483 l 394 47 q 392 0 399 14 q 360 -14 386 -14 m 144 725 q 122 730 131 725 q 108 744 113 735 q 103 765 103 753 q 108 788 103 779 q 122 801 113 796 q 143 806 131 806 l 500 806 q 522 801 514 806 q 535 788 531 796 q 540 765 540 779 q 535 744 540 753 q 522 730 531 735 q 499 725 513 725 l 144 725 m 74 401 q 40 417 53 401 q 26 454 26 432 q 41 489 26 474 q 74 504 56 504 q 107 490 93 504 q 121 454 121 475 q 108 417 121 432 q 74 401 94 401 z "},"ח":{"ha":913,"x_min":114,"x_max":808,"o":"m 154 -14 q 133 -9 142 -14 q 119 5 124 -4 q 114 26 114 14 l 114 765 q 119 787 114 778 q 133 800 124 796 q 154 804 142 804 l 440 806 q 599 780 531 806 q 715 703 668 754 q 785 575 761 651 q 808 397 808 499 l 808 28 q 804 5 808 14 q 791 -9 800 -4 q 769 -14 782 -14 q 748 -10 757 -14 q 734 1 739 -7 q 729 18 729 8 l 729 393 q 711 537 729 475 q 657 641 693 599 q 568 704 621 683 q 444 725 515 725 l 194 725 l 194 28 q 190 5 194 14 q 176 -9 185 -4 q 154 -14 168 -14 z "},"ט":{"ha":907,"x_min":90,"x_max":824,"o":"m 453 -17 q 301 15 368 -17 q 186 109 233 47 q 115 258 139 171 q 90 458 90 346 l 90 765 q 95 787 90 778 q 109 801 100 796 q 131 806 118 806 q 152 801 143 806 q 166 787 161 796 q 171 764 171 778 l 171 458 q 247 168 171 272 q 457 64 322 64 q 667 155 593 64 q 739 407 742 246 q 670 641 738 557 q 499 725 603 725 l 415 725 q 401 730 407 725 q 391 744 394 735 q 388 765 388 753 q 392 787 388 778 q 406 801 397 796 q 428 806 415 806 l 499 806 q 669 758 596 806 q 783 622 743 711 q 819 407 824 532 q 794 228 819 307 q 722 95 769 150 q 607 12 675 40 q 453 -17 539 -17 z "},"טּ":{"ha":907,"x_min":90,"x_max":824,"o":"m 453 -17 q 301 15 368 -17 q 186 109 233 47 q 115 258 139 171 q 90 458 90 346 l 90 765 q 95 787 90 778 q 109 801 100 796 q 131 806 118 806 q 152 801 143 806 q 166 787 161 796 q 171 764 171 778 l 171 458 q 247 168 171 272 q 457 64 322 64 q 667 155 593 64 q 739 407 742 246 q 670 641 738 557 q 499 725 603 725 l 415 725 q 401 730 407 725 q 391 744 394 735 q 388 765 388 753 q 392 787 388 778 q 406 801 397 796 q 428 806 415 806 l 499 806 q 669 758 596 806 q 783 622 743 711 q 819 407 824 532 q 794 228 819 307 q 722 95 769 150 q 607 12 675 40 q 453 -17 539 -17 m 456 389 q 422 404 435 389 q 408 442 408 419 q 423 476 408 461 q 456 492 438 492 q 489 477 475 492 q 503 442 503 463 q 490 404 503 419 q 456 389 476 389 z "},"י":{"ha":343,"x_min":132,"x_max":211,"o":"m 171 403 q 150 408 158 403 q 137 422 142 413 q 132 443 132 431 l 132 767 q 137 788 132 779 q 151 801 142 797 q 172 806 160 806 q 194 801 185 806 q 207 788 203 796 q 211 765 211 779 l 211 442 q 206 421 211 429 q 193 408 201 413 q 171 403 185 403 z "},"יּ":{"ha":507,"x_min":63,"x_max":361,"o":"m 321 403 q 300 408 308 403 q 287 422 292 413 q 282 443 282 431 l 282 767 q 287 788 282 779 q 301 801 292 797 q 322 806 310 806 q 344 801 335 806 q 357 788 353 796 q 361 765 361 779 l 361 442 q 356 421 361 429 q 343 408 351 413 q 321 403 335 403 m 110 556 q 76 571 89 556 q 63 608 63 586 q 77 643 63 628 q 110 658 92 658 q 143 644 129 658 q 157 608 157 629 q 144 571 157 586 q 110 556 131 556 z "},"ך":{"ha":785,"x_min":76,"x_max":694,"o":"m 656 -208 q 634 -205 643 -208 q 620 -194 625 -201 q 615 -176 615 -186 l 615 393 q 597 537 615 475 q 543 641 579 599 q 454 704 507 683 q 331 725 401 725 l 118 725 q 95 730 104 725 q 81 744 86 735 q 76 765 76 753 q 81 788 76 779 q 95 801 86 796 q 117 806 104 806 l 326 806 q 485 779 417 806 q 601 701 554 753 q 671 574 647 650 q 694 397 694 497 l 694 -167 q 690 -190 694 -181 q 677 -203 686 -199 q 656 -208 668 -208 z "},"ךּ":{"ha":785,"x_min":76,"x_max":694,"o":"m 656 -208 q 634 -205 643 -208 q 620 -194 625 -201 q 615 -176 615 -186 l 615 393 q 597 537 615 475 q 543 641 579 599 q 454 704 507 683 q 331 725 401 725 l 118 725 q 95 730 104 725 q 81 744 86 735 q 76 765 76 753 q 81 788 76 779 q 95 801 86 796 q 117 806 104 806 l 326 806 q 485 779 417 806 q 601 701 554 753 q 671 574 647 650 q 694 397 694 497 l 694 -167 q 690 -190 694 -181 q 677 -203 686 -199 q 656 -208 668 -208 m 304 346 q 270 361 283 346 q 257 399 257 376 q 272 433 257 418 q 304 449 286 449 q 338 434 324 449 q 351 399 351 419 q 338 361 351 376 q 304 346 325 346 z "},"כ":{"ha":800,"x_min":81,"x_max":713,"o":"m 350 -18 q 227 -3 286 -18 q 124 39 168 13 q 92 63 104 50 q 81 82 81 75 q 83 99 81 90 q 90 114 86 108 q 103 129 97 124 q 113 135 110 135 q 128 131 119 135 q 146 121 136 128 q 235 77 188 93 q 350 61 282 61 q 498 103 433 61 q 599 220 563 144 q 636 396 636 296 q 568 635 636 544 q 376 725 500 725 l 154 725 q 140 730 146 725 q 130 744 133 735 q 126 765 126 754 q 131 787 126 778 q 146 801 136 796 q 167 806 156 806 l 392 806 q 561 754 489 806 q 673 611 633 703 q 713 396 713 519 q 686 226 713 303 q 612 95 660 150 q 497 11 564 40 q 350 -18 431 -18 z "},"כּ":{"ha":800,"x_min":81,"x_max":713,"o":"m 350 -18 q 227 -3 286 -18 q 124 39 168 13 q 92 63 104 50 q 81 82 81 75 q 83 99 81 90 q 90 114 86 108 q 103 129 97 124 q 113 135 110 135 q 128 131 119 135 q 146 121 136 128 q 235 77 188 93 q 350 61 282 61 q 498 103 433 61 q 599 220 563 144 q 636 396 636 296 q 568 635 636 544 q 376 725 500 725 l 154 725 q 140 730 146 725 q 130 744 133 735 q 126 765 126 754 q 131 787 126 778 q 146 801 136 796 q 167 806 156 806 l 392 806 q 561 754 489 806 q 673 611 633 703 q 713 396 713 519 q 686 226 713 303 q 612 95 660 150 q 497 11 564 40 q 350 -18 431 -18 m 329 388 q 295 403 308 388 q 282 440 282 418 q 297 475 282 460 q 329 490 311 490 q 363 476 349 490 q 376 440 376 461 q 363 403 376 418 q 329 388 350 388 z "},"ל":{"ha":724,"x_min":90,"x_max":651,"o":"m 278 -12 q 247 10 256 -3 q 247 36 238 22 q 372 240 318 147 q 467 414 426 332 q 536 576 507 496 q 586 740 565 656 l 644 699 q 572 490 615 590 q 470 277 529 390 q 329 17 411 164 q 314 -5 322 3 q 297 -15 306 -12 q 278 -12 288 -17 m 644 699 l 586 725 l 150 725 q 115 736 128 725 q 101 769 103 747 l 90 990 q 94 1010 90 1003 q 109 1022 99 1018 q 135 1026 119 1026 q 153 1022 146 1026 q 165 1007 160 1017 q 169 982 169 997 l 179 806 l 564 806 q 618 794 599 806 q 644 758 638 782 q 644 699 651 735 z "},"לּ":{"ha":724,"x_min":90,"x_max":651,"o":"m 278 -12 q 247 10 256 -3 q 247 36 238 22 q 372 240 318 147 q 467 414 426 332 q 536 576 507 496 q 586 740 565 656 l 644 699 q 572 490 615 590 q 470 277 529 390 q 329 17 411 164 q 314 -5 322 3 q 297 -15 306 -12 q 278 -12 288 -17 m 644 699 l 586 725 l 150 725 q 115 736 128 725 q 101 769 103 747 l 90 990 q 94 1010 90 1003 q 109 1022 99 1018 q 135 1026 119 1026 q 153 1022 146 1026 q 165 1007 160 1017 q 169 982 169 997 l 179 806 l 564 806 q 618 794 599 806 q 644 758 638 782 q 644 699 651 735 m 200 397 q 166 413 179 397 q 153 450 153 428 q 167 485 153 469 q 200 500 182 500 q 233 485 219 500 q 247 450 247 471 q 234 413 247 428 q 200 397 221 397 z "},"ם":{"ha":869,"x_min":97,"x_max":786,"o":"m 138 -14 q 116 -9 125 -14 q 102 5 107 -4 q 97 26 97 14 l 97 756 q 112 793 97 781 q 153 806 126 806 l 446 806 q 634 764 558 806 q 748 641 710 722 q 786 439 786 560 l 786 28 q 782 5 786 14 q 769 -9 778 -4 q 747 -14 760 -14 q 726 -10 735 -14 q 712 1 717 -7 q 707 18 707 8 l 707 435 q 678 595 707 531 q 592 692 649 660 q 450 725 535 725 l 178 725 l 178 28 q 173 5 178 14 q 160 -9 168 -4 q 138 -14 151 -14 m 138 -14 l 139 67 l 744 67 l 746 -14 l 138 -14 z "},"מ":{"ha":943,"x_min":86,"x_max":817,"o":"m 817 460 l 817 26 q 813 2 817 11 q 801 -10 810 -7 q 778 -14 793 -14 l 406 -14 q 384 -9 393 -14 q 370 5 375 -4 q 365 26 365 14 q 370 49 365 40 q 384 62 375 57 q 407 67 393 67 l 738 67 l 738 456 q 711 613 738 551 q 634 703 685 674 q 513 733 583 733 q 427 714 467 733 q 355 657 388 694 q 298 566 322 619 q 258 444 274 513 l 172 32 q 164 8 169 18 q 149 -8 158 -3 q 129 -14 140 -14 q 97 -3 107 -14 q 90 26 86 8 l 200 551 l 229 549 q 260 640 240 599 q 308 714 281 682 q 369 768 335 746 q 442 802 403 790 q 525 814 481 814 q 682 775 617 814 q 782 658 747 736 q 817 460 817 579 m 185 446 l 100 750 q 96 775 96 764 q 103 794 96 786 q 125 806 110 801 q 158 806 147 811 q 172 790 168 800 q 176 772 175 779 l 243 526 l 185 446 z "},"מּ":{"ha":943,"x_min":86,"x_max":817,"o":"m 817 460 l 817 26 q 813 2 817 11 q 801 -10 810 -7 q 778 -14 793 -14 l 406 -14 q 384 -9 393 -14 q 370 5 375 -4 q 365 26 365 14 q 370 49 365 40 q 384 62 375 57 q 407 67 393 67 l 738 67 l 738 456 q 711 613 738 551 q 634 703 685 674 q 513 733 583 733 q 427 714 467 733 q 355 657 388 694 q 298 566 322 619 q 258 444 274 513 l 172 32 q 164 8 169 18 q 149 -8 158 -3 q 129 -14 140 -14 q 97 -3 107 -14 q 90 26 86 8 l 200 551 l 229 549 q 260 640 240 599 q 308 714 281 682 q 369 768 335 746 q 442 802 403 790 q 525 814 481 814 q 682 775 617 814 q 782 658 747 736 q 817 460 817 579 m 185 446 l 100 750 q 96 775 96 764 q 103 794 96 786 q 125 806 110 801 q 158 806 147 811 q 172 790 168 800 q 176 772 175 779 l 243 526 l 185 446 m 501 374 q 467 389 481 374 q 454 426 454 404 q 469 461 454 446 q 501 476 483 476 q 535 462 521 476 q 549 426 549 447 q 535 389 549 404 q 501 374 522 374 z "},"ן":{"ha":343,"x_min":132,"x_max":211,"o":"m 171 -208 q 150 -203 158 -208 q 137 -190 142 -199 q 132 -168 132 -181 l 132 767 q 137 788 132 779 q 151 801 142 797 q 172 806 160 806 q 194 801 185 806 q 207 788 203 796 q 211 765 211 779 l 211 -169 q 206 -190 211 -182 q 193 -203 201 -199 q 171 -208 185 -208 z "},"נ":{"ha":618,"x_min":111,"x_max":535,"o":"m 496 -14 q 474 -10 483 -14 q 460 1 465 -7 q 456 18 456 8 l 456 435 q 431 595 456 531 q 359 692 407 660 q 240 725 311 725 l 181 725 q 158 730 167 725 q 144 744 149 735 q 139 765 139 753 q 144 788 139 779 q 158 801 149 796 q 179 806 167 806 l 236 806 q 401 764 335 806 q 501 641 467 722 q 535 439 535 560 l 535 28 q 531 5 535 14 q 517 -9 526 -4 q 496 -14 508 -14 m 153 -14 q 130 -9 139 -14 q 116 5 121 -4 q 111 26 111 14 q 116 49 111 40 q 130 62 121 57 q 151 67 139 67 l 497 67 l 496 -14 l 153 -14 z "},"נּ":{"ha":618,"x_min":111,"x_max":535,"o":"m 496 -14 q 474 -10 483 -14 q 460 1 465 -7 q 456 18 456 8 l 456 435 q 431 595 456 531 q 359 692 407 660 q 240 725 311 725 l 181 725 q 158 730 167 725 q 144 744 149 735 q 139 765 139 753 q 144 788 139 779 q 158 801 149 796 q 179 806 167 806 l 236 806 q 401 764 335 806 q 501 641 467 722 q 535 439 535 560 l 535 28 q 531 5 535 14 q 517 -9 526 -4 q 496 -14 508 -14 m 153 -14 q 130 -9 139 -14 q 116 5 121 -4 q 111 26 111 14 q 116 49 111 40 q 130 62 121 57 q 151 67 139 67 l 497 67 l 496 -14 l 153 -14 m 215 374 q 181 389 194 374 q 168 426 168 404 q 183 461 168 446 q 215 476 197 476 q 249 462 235 476 q 263 426 263 447 q 249 389 263 404 q 215 374 236 374 z "},"ס":{"ha":921,"x_min":104,"x_max":831,"o":"m 474 -10 q 275 38 358 -10 q 148 177 192 86 q 104 394 104 268 l 104 756 q 117 793 104 781 q 153 806 129 806 l 463 806 q 661 757 579 806 q 787 616 743 708 q 831 394 831 524 q 788 177 831 268 q 666 38 746 86 q 474 -10 586 -10 m 467 72 q 675 158 600 72 q 750 394 750 243 q 717 572 750 499 q 620 685 683 646 q 468 725 557 725 l 185 725 l 185 394 q 259 158 185 243 q 467 72 333 72 z "},"סּ":{"ha":921,"x_min":104,"x_max":831,"o":"m 474 -10 q 275 38 358 -10 q 148 177 192 86 q 104 394 104 268 l 104 756 q 117 793 104 781 q 153 806 129 806 l 463 806 q 661 757 579 806 q 787 616 743 708 q 831 394 831 524 q 788 177 831 268 q 666 38 746 86 q 474 -10 586 -10 m 467 72 q 675 158 600 72 q 750 394 750 243 q 717 572 750 499 q 620 685 683 646 q 468 725 557 725 l 185 725 l 185 394 q 259 158 185 243 q 467 72 333 72 m 453 383 q 419 399 432 383 q 406 436 406 414 q 420 471 406 456 q 453 486 435 486 q 486 472 472 486 q 500 436 500 457 q 487 399 500 414 q 453 383 474 383 z "},"ע":{"ha":836,"x_min":85,"x_max":711,"o":"m 149 -43 q 119 -47 132 -47 q 98 -37 106 -46 q 88 -14 90 -29 q 88 8 85 0 q 103 23 92 17 q 131 33 114 29 l 426 115 q 539 177 493 138 q 608 275 585 217 q 631 410 631 333 l 631 774 q 635 792 631 785 q 647 802 639 799 q 668 806 656 806 q 692 801 682 806 q 706 787 701 796 q 711 764 711 778 l 710 443 q 690 294 710 360 q 634 178 671 228 q 542 93 597 129 q 415 33 488 57 l 149 -43 m 340 76 q 313 101 328 85 q 290 140 297 118 l 104 747 q 99 772 100 763 q 105 790 99 782 q 126 801 111 797 q 153 804 143 807 q 170 792 164 801 q 182 765 176 782 l 385 90 l 340 76 z "},"ף":{"ha":806,"x_min":51,"x_max":725,"o":"m 685 -208 q 664 -203 672 -208 q 651 -190 656 -199 q 646 -168 646 -181 l 646 414 q 614 590 646 519 q 522 697 582 661 q 378 733 463 733 l 351 733 q 243 705 293 733 q 163 633 193 676 q 132 544 132 590 q 142 470 132 503 q 172 413 151 438 q 228 369 193 388 q 245 347 243 363 q 238 316 247 331 q 208 297 229 301 q 170 309 196 294 q 117 353 144 324 q 70 425 89 382 q 51 522 51 468 q 74 638 51 585 q 139 730 97 690 q 236 792 181 769 q 357 814 292 814 l 374 814 q 563 769 485 814 q 683 635 642 724 q 725 418 725 547 l 725 -169 q 720 -190 725 -182 q 707 -203 715 -199 q 685 -208 699 -208 z "},"ףּ":{"ha":806,"x_min":51,"x_max":725,"o":"m 685 -208 q 664 -203 672 -208 q 651 -190 656 -199 q 646 -168 646 -181 l 646 414 q 614 590 646 519 q 522 697 582 661 q 378 733 463 733 l 351 733 q 243 705 293 733 q 163 633 193 676 q 132 544 132 590 q 142 470 132 503 q 172 413 151 438 q 228 369 193 388 q 245 347 243 363 q 238 316 247 331 q 208 297 229 301 q 170 309 196 294 q 117 353 144 324 q 70 425 89 382 q 51 522 51 468 q 74 638 51 585 q 139 730 97 690 q 236 792 181 769 q 357 814 292 814 l 374 814 q 563 769 485 814 q 683 635 642 724 q 725 418 725 547 l 725 -169 q 720 -190 725 -182 q 707 -203 715 -199 q 685 -208 699 -208 m 403 401 q 369 417 382 401 q 356 454 356 432 q 370 489 356 474 q 403 504 385 504 q 436 490 422 504 q 450 454 450 475 q 437 417 450 432 q 403 401 424 401 z "},"פ":{"ha":826,"x_min":76,"x_max":750,"o":"m 147 -14 q 126 -9 135 -14 q 112 5 117 -4 q 107 26 107 14 q 112 49 107 40 q 126 62 117 57 q 149 67 135 67 l 376 67 q 531 103 465 67 q 634 213 597 140 q 671 396 671 286 l 671 414 q 601 652 671 571 q 403 733 531 733 l 376 733 q 268 705 318 733 q 188 633 218 676 q 157 544 157 590 q 179 440 157 482 q 253 369 201 397 q 268 353 264 364 q 269 331 272 343 q 258 310 267 319 q 233 297 249 300 q 195 309 221 294 q 142 353 169 324 q 95 425 114 382 q 76 522 76 468 q 99 638 76 585 q 164 730 122 690 q 261 792 206 769 q 382 814 317 814 l 399 814 q 588 769 510 814 q 708 635 667 724 q 750 418 750 547 l 750 392 q 700 168 750 258 q 562 32 650 78 q 358 -14 474 -14 l 147 -14 z "},"פּ":{"ha":826,"x_min":76,"x_max":750,"o":"m 147 -14 q 126 -9 135 -14 q 112 5 117 -4 q 107 26 107 14 q 112 49 107 40 q 126 62 117 57 q 149 67 135 67 l 376 67 q 531 103 465 67 q 634 213 597 140 q 671 396 671 286 l 671 414 q 601 652 671 571 q 403 733 531 733 l 376 733 q 268 705 318 733 q 188 633 218 676 q 157 544 157 590 q 179 440 157 482 q 253 369 201 397 q 268 353 264 364 q 269 331 272 343 q 258 310 267 319 q 233 297 249 300 q 195 309 221 294 q 142 353 169 324 q 95 425 114 382 q 76 522 76 468 q 99 638 76 585 q 164 730 122 690 q 261 792 206 769 q 382 814 317 814 l 399 814 q 588 769 510 814 q 708 635 667 724 q 750 418 750 547 l 750 392 q 700 168 750 258 q 562 32 650 78 q 358 -14 474 -14 l 147 -14 m 413 361 q 378 376 392 361 q 365 414 365 392 q 380 449 365 433 q 413 464 394 464 q 446 449 432 464 q 460 414 460 435 q 447 376 460 392 q 413 361 433 361 z "},"ץ":{"ha":806,"x_min":111,"x_max":713,"o":"m 576 -212 q 550 -212 561 -215 q 532 -203 539 -210 q 524 -186 525 -196 q 471 51 508 -71 q 381 292 433 174 q 267 516 328 411 q 142 701 206 621 q 122 730 129 718 q 113 751 115 742 q 114 767 111 760 q 124 779 117 774 q 150 792 139 792 q 172 786 161 793 q 192 767 182 779 q 328 570 263 682 q 447 335 393 458 q 540 88 501 211 q 596 -142 579 -35 q 599 -171 599 -158 q 597 -192 599 -183 q 590 -206 594 -200 q 576 -212 585 -211 m 461 246 l 397 269 l 635 767 q 653 791 643 785 q 674 796 664 797 q 694 788 685 794 q 708 774 704 782 q 711 755 713 765 q 701 729 710 744 l 461 246 z "},"צ":{"ha":824,"x_min":90,"x_max":708,"o":"m 646 -14 l 553 124 l 122 731 q 114 758 113 746 q 131 785 115 771 q 151 796 142 794 q 171 792 161 797 q 189 775 181 788 l 625 146 q 656 99 642 121 q 676 68 671 78 q 682 46 681 60 q 680 19 683 32 q 668 -4 676 6 q 646 -14 660 -14 m 132 -14 q 109 -9 118 -14 q 95 5 100 -4 q 90 26 90 14 q 95 49 90 40 q 109 62 100 57 q 131 67 118 67 l 654 67 l 646 -14 l 132 -14 m 497 314 l 439 335 l 638 781 q 651 794 643 790 q 669 796 658 797 q 690 788 679 794 q 704 774 700 782 q 707 755 708 765 q 699 731 706 744 l 497 314 z "},"צּ":{"ha":824,"x_min":90,"x_max":708,"o":"m 646 -14 l 553 124 l 122 731 q 114 758 113 746 q 131 785 115 771 q 151 796 142 794 q 171 792 161 797 q 189 775 181 788 l 625 146 q 656 99 642 121 q 676 68 671 78 q 682 46 681 60 q 680 19 683 32 q 668 -4 676 6 q 646 -14 660 -14 m 132 -14 q 109 -9 118 -14 q 95 5 100 -4 q 90 26 90 14 q 95 49 90 40 q 109 62 100 57 q 131 67 118 67 l 654 67 l 646 -14 l 132 -14 m 497 314 l 439 335 l 638 781 q 651 794 643 790 q 669 796 658 797 q 690 788 679 794 q 704 774 700 782 q 707 755 708 765 q 699 731 706 744 l 497 314 m 268 182 q 234 197 247 182 q 221 235 221 213 q 235 269 221 254 q 268 285 250 285 q 301 270 288 285 q 315 235 315 256 q 302 197 315 213 q 268 182 289 182 z "},"ק":{"ha":832,"x_min":104,"x_max":768,"o":"m 474 -10 q 440 10 450 -1 q 435 35 429 21 q 475 144 450 76 q 530 294 500 213 q 590 458 560 375 q 647 616 621 542 q 689 743 672 690 l 756 697 q 715 569 740 643 q 663 414 690 494 q 607 256 635 333 q 557 118 579 179 q 522 25 535 57 q 509 2 517 11 q 493 -10 501 -7 q 474 -10 485 -12 m 169 -208 q 149 -203 157 -208 q 135 -190 140 -199 q 131 -168 131 -181 l 131 469 q 135 491 131 482 q 149 504 140 500 q 171 508 158 508 q 192 503 183 508 q 206 490 201 499 q 210 468 210 482 l 210 -169 q 205 -190 210 -182 q 192 -203 200 -199 q 169 -208 183 -208 m 756 697 l 701 725 l 542 725 l 146 725 q 123 730 132 725 q 109 744 114 735 q 104 767 104 754 q 109 789 104 781 q 123 801 114 797 q 144 806 132 806 l 678 806 q 737 790 715 806 q 763 751 758 775 q 756 697 768 726 z "},"קּ":{"ha":832,"x_min":104,"x_max":768,"o":"m 474 -10 q 440 10 450 -1 q 435 35 429 21 q 475 144 450 76 q 530 294 500 213 q 590 458 560 375 q 647 616 621 542 q 689 743 672 690 l 756 697 q 715 569 740 643 q 663 414 690 494 q 607 256 635 333 q 557 118 579 179 q 522 25 535 57 q 509 2 517 11 q 493 -10 501 -7 q 474 -10 485 -12 m 169 -208 q 149 -203 157 -208 q 135 -190 140 -199 q 131 -168 131 -181 l 131 469 q 135 491 131 482 q 149 504 140 500 q 171 508 158 508 q 192 503 183 508 q 206 490 201 499 q 210 468 210 482 l 210 -169 q 205 -190 210 -182 q 192 -203 200 -199 q 169 -208 183 -208 m 756 697 l 701 725 l 542 725 l 146 725 q 123 730 132 725 q 109 744 114 735 q 104 767 104 754 q 109 789 104 781 q 123 801 114 797 q 144 806 132 806 l 678 806 q 737 790 715 806 q 763 751 758 775 q 756 697 768 726 m 406 436 q 372 451 385 436 q 358 489 358 467 q 373 524 358 508 q 406 539 388 539 q 439 524 425 539 q 453 489 453 510 q 440 451 453 467 q 406 436 426 436 z "},"ר":{"ha":764,"x_min":49,"x_max":639,"o":"m 600 -14 q 578 -10 588 -14 q 565 1 569 -7 q 560 18 560 8 l 560 393 q 542 537 560 475 q 488 641 524 599 q 399 704 451 683 q 275 725 346 725 l 90 725 q 67 730 76 725 q 53 744 58 735 q 49 765 49 753 q 53 788 49 779 q 67 801 58 796 q 89 806 76 806 l 271 806 q 430 779 361 806 q 545 701 499 753 q 615 574 592 650 q 639 397 639 497 l 639 28 q 635 5 639 14 q 622 -9 631 -4 q 600 -14 613 -14 z "},"רּ":{"ha":764,"x_min":49,"x_max":639,"o":"m 600 -14 q 578 -10 588 -14 q 565 1 569 -7 q 560 18 560 8 l 560 393 q 542 537 560 475 q 488 641 524 599 q 399 704 451 683 q 275 725 346 725 l 90 725 q 67 730 76 725 q 53 744 58 735 q 49 765 49 753 q 53 788 49 779 q 67 801 58 796 q 89 806 76 806 l 271 806 q 430 779 361 806 q 545 701 499 753 q 615 574 592 650 q 639 397 639 497 l 639 28 q 635 5 639 14 q 622 -9 631 -4 q 600 -14 613 -14 m 229 332 q 195 347 208 332 q 182 385 182 363 q 197 419 182 404 q 229 435 211 435 q 263 420 249 435 q 276 385 276 406 q 263 347 276 363 q 229 332 250 332 z "},"ש":{"ha":1028,"x_min":104,"x_max":924,"o":"m 508 -17 q 338 13 413 -17 q 210 99 263 43 q 131 233 158 154 q 104 408 104 311 l 104 765 q 109 787 104 778 q 123 801 114 796 q 144 806 132 806 q 166 801 157 806 q 180 787 175 796 q 185 764 185 778 l 185 408 q 224 226 185 304 q 336 105 263 149 q 513 61 410 61 q 691 105 617 61 q 805 227 765 149 q 844 410 844 306 l 844 774 q 849 790 844 783 q 863 801 854 797 q 885 806 872 806 q 906 801 897 806 q 919 787 915 796 q 924 764 924 778 l 924 406 q 896 232 924 310 q 814 99 868 154 q 683 13 760 43 q 508 -17 607 -17 m 256 121 l 228 179 l 253 179 q 333 211 294 179 q 401 297 371 243 q 451 416 432 350 q 471 551 469 482 l 478 769 q 484 789 479 781 q 498 801 489 797 q 519 806 507 806 q 542 801 533 806 q 556 790 551 797 q 558 771 560 782 l 549 557 q 521 391 544 469 q 458 251 497 313 q 372 156 419 190 q 269 121 324 121 l 256 121 z "},"שׁ":{"ha":1028,"x_min":104,"x_max":924,"o":"m 508 -17 q 338 13 413 -17 q 210 99 263 43 q 131 233 158 154 q 104 408 104 311 l 104 765 q 109 787 104 778 q 123 801 114 796 q 144 806 132 806 q 166 801 157 806 q 180 787 175 796 q 185 764 185 778 l 185 408 q 224 226 185 304 q 336 105 263 149 q 513 61 410 61 q 691 105 617 61 q 805 227 765 149 q 844 410 844 306 l 844 774 q 849 790 844 783 q 863 801 854 797 q 885 806 872 806 q 906 801 897 806 q 919 787 915 796 q 924 764 924 778 l 924 406 q 896 232 924 310 q 814 99 868 154 q 683 13 760 43 q 508 -17 607 -17 m 256 121 l 228 179 l 253 179 q 333 211 294 179 q 401 297 371 243 q 451 416 432 350 q 471 551 469 482 l 478 769 q 484 789 479 781 q 498 801 489 797 q 519 806 507 806 q 542 801 533 806 q 556 790 551 797 q 558 771 560 782 l 549 557 q 521 391 544 469 q 458 251 497 313 q 372 156 419 190 q 269 121 324 121 l 256 121 m 868 935 q 835 950 849 935 q 821 988 821 965 q 835 1022 821 1007 q 868 1038 850 1038 q 901 1022 886 1038 q 915 988 915 1007 q 901 950 915 965 q 868 935 888 935 z "},"שׂ":{"ha":1028,"x_min":104,"x_max":924,"o":"m 508 -17 q 338 13 413 -17 q 210 99 263 43 q 131 233 158 154 q 104 408 104 311 l 104 765 q 109 787 104 778 q 123 801 114 796 q 144 806 132 806 q 166 801 157 806 q 180 787 175 796 q 185 764 185 778 l 185 408 q 224 226 185 304 q 336 105 263 149 q 513 61 410 61 q 691 105 617 61 q 805 227 765 149 q 844 410 844 306 l 844 774 q 849 790 844 783 q 863 801 854 797 q 885 806 872 806 q 906 801 897 806 q 919 787 915 796 q 924 764 924 778 l 924 406 q 896 232 924 310 q 814 99 868 154 q 683 13 760 43 q 508 -17 607 -17 m 256 121 l 228 179 l 253 179 q 333 211 294 179 q 401 297 371 243 q 451 416 432 350 q 471 551 469 482 l 478 769 q 484 789 479 781 q 498 801 489 797 q 519 806 507 806 q 542 801 533 806 q 556 790 551 797 q 558 771 560 782 l 549 557 q 521 391 544 469 q 458 251 497 313 q 372 156 419 190 q 269 121 324 121 l 256 121 m 160 935 q 126 950 140 935 q 113 988 113 965 q 127 1022 113 1007 q 160 1038 142 1038 q 192 1022 178 1038 q 207 988 207 1007 q 193 950 207 965 q 160 935 179 935 z "},"שּׁ":{"ha":1028,"x_min":104,"x_max":924,"o":"m 508 -17 q 338 13 413 -17 q 210 99 263 43 q 131 233 158 154 q 104 408 104 311 l 104 765 q 109 787 104 778 q 123 801 114 796 q 144 806 132 806 q 166 801 157 806 q 180 787 175 796 q 185 764 185 778 l 185 408 q 224 226 185 304 q 336 105 263 149 q 513 61 410 61 q 691 105 617 61 q 805 227 765 149 q 844 410 844 306 l 844 774 q 849 790 844 783 q 863 801 854 797 q 885 806 872 806 q 906 801 897 806 q 919 787 915 796 q 924 764 924 778 l 924 406 q 896 232 924 310 q 814 99 868 154 q 683 13 760 43 q 508 -17 607 -17 m 256 121 l 228 179 l 253 179 q 333 211 294 179 q 401 297 371 243 q 451 416 432 350 q 471 551 469 482 l 478 769 q 484 789 479 781 q 498 801 489 797 q 519 806 507 806 q 542 801 533 806 q 556 790 551 797 q 558 771 560 782 l 549 557 q 521 391 544 469 q 458 251 497 313 q 372 156 419 190 q 269 121 324 121 l 256 121 m 665 339 q 631 354 644 339 q 618 392 618 369 q 633 426 618 411 q 665 442 647 442 q 699 427 685 442 q 713 392 713 413 q 699 354 713 369 q 665 339 686 339 m 868 935 q 835 950 849 935 q 821 988 821 965 q 835 1022 821 1007 q 868 1038 850 1038 q 901 1022 886 1038 q 915 988 915 1007 q 901 950 915 965 q 868 935 888 935 z "},"שּׂ":{"ha":1028,"x_min":104,"x_max":924,"o":"m 508 -17 q 338 13 413 -17 q 210 99 263 43 q 131 233 158 154 q 104 408 104 311 l 104 765 q 109 787 104 778 q 123 801 114 796 q 144 806 132 806 q 166 801 157 806 q 180 787 175 796 q 185 764 185 778 l 185 408 q 224 226 185 304 q 336 105 263 149 q 513 61 410 61 q 691 105 617 61 q 805 227 765 149 q 844 410 844 306 l 844 774 q 849 790 844 783 q 863 801 854 797 q 885 806 872 806 q 906 801 897 806 q 919 787 915 796 q 924 764 924 778 l 924 406 q 896 232 924 310 q 814 99 868 154 q 683 13 760 43 q 508 -17 607 -17 m 256 121 l 228 179 l 253 179 q 333 211 294 179 q 401 297 371 243 q 451 416 432 350 q 471 551 469 482 l 478 769 q 484 789 479 781 q 498 801 489 797 q 519 806 507 806 q 542 801 533 806 q 556 790 551 797 q 558 771 560 782 l 549 557 q 521 391 544 469 q 458 251 497 313 q 372 156 419 190 q 269 121 324 121 l 256 121 m 665 339 q 631 354 644 339 q 618 392 618 369 q 633 426 618 411 q 665 442 647 442 q 699 427 685 442 q 713 392 713 413 q 699 354 713 369 q 665 339 686 339 m 160 935 q 126 950 140 935 q 113 988 113 965 q 127 1022 113 1007 q 160 1038 142 1038 q 192 1022 178 1038 q 207 988 207 1007 q 193 950 207 965 q 160 935 179 935 z "},"שּ":{"ha":1028,"x_min":104,"x_max":924,"o":"m 508 -17 q 338 13 413 -17 q 210 99 263 43 q 131 233 158 154 q 104 408 104 311 l 104 765 q 109 787 104 778 q 123 801 114 796 q 144 806 132 806 q 166 801 157 806 q 180 787 175 796 q 185 764 185 778 l 185 408 q 224 226 185 304 q 336 105 263 149 q 513 61 410 61 q 691 105 617 61 q 805 227 765 149 q 844 410 844 306 l 844 774 q 849 790 844 783 q 863 801 854 797 q 885 806 872 806 q 906 801 897 806 q 919 787 915 796 q 924 764 924 778 l 924 406 q 896 232 924 310 q 814 99 868 154 q 683 13 760 43 q 508 -17 607 -17 m 256 121 l 228 179 l 253 179 q 333 211 294 179 q 401 297 371 243 q 451 416 432 350 q 471 551 469 482 l 478 769 q 484 789 479 781 q 498 801 489 797 q 519 806 507 806 q 542 801 533 806 q 556 790 551 797 q 558 771 560 782 l 549 557 q 521 391 544 469 q 458 251 497 313 q 372 156 419 190 q 269 121 324 121 l 256 121 m 665 339 q 631 354 644 339 q 618 392 618 369 q 633 426 618 411 q 665 442 647 442 q 699 427 685 442 q 713 392 713 413 q 699 354 713 369 q 665 339 686 339 z "},"ת":{"ha":997,"x_min":90,"x_max":879,"o":"m 132 -14 q 109 -9 118 -14 q 95 5 100 -4 q 90 26 90 14 q 95 49 90 40 q 109 62 100 57 q 131 67 118 67 l 281 67 l 281 743 l 292 719 q 235 722 256 719 q 204 728 214 724 q 192 741 194 733 q 189 760 189 749 q 200 794 189 785 q 253 803 211 803 l 499 806 q 708 761 624 807 q 836 624 793 715 q 879 397 879 533 l 879 28 q 875 5 879 14 q 862 -9 871 -4 q 840 -14 853 -14 q 819 -10 828 -14 q 805 1 810 -7 q 800 18 800 8 l 800 393 q 768 576 800 503 q 673 688 736 650 q 515 725 610 725 l 363 725 l 363 54 q 352 3 363 21 q 321 -14 342 -14 l 132 -14 z "},"תּ":{"ha":997,"x_min":90,"x_max":879,"o":"m 132 -14 q 109 -9 118 -14 q 95 5 100 -4 q 90 26 90 14 q 95 49 90 40 q 109 62 100 57 q 131 67 118 67 l 281 67 l 281 743 l 292 719 q 235 722 256 719 q 204 728 214 724 q 192 741 194 733 q 189 760 189 749 q 200 794 189 785 q 253 803 211 803 l 499 806 q 708 761 624 807 q 836 624 793 715 q 879 397 879 533 l 879 28 q 875 5 879 14 q 862 -9 871 -4 q 840 -14 853 -14 q 819 -10 828 -14 q 805 1 810 -7 q 800 18 800 8 l 800 393 q 768 576 800 503 q 673 688 736 650 q 515 725 610 725 l 363 725 l 363 54 q 352 3 363 21 q 321 -14 342 -14 l 132 -14 m 569 374 q 535 389 549 374 q 522 426 522 404 q 537 461 522 446 q 569 476 551 476 q 603 462 589 476 q 617 426 617 447 q 603 389 617 404 q 569 374 590 374 z "},"⁄":{"ha":664,"x_min":32,"x_max":631,"o":"m 54 -37 q 37 -22 42 -31 q 35 2 32 -12 q 50 38 39 17 l 546 975 q 566 1006 557 996 q 586 1017 575 1015 q 610 1011 597 1018 q 626 995 622 1004 q 627 972 631 986 q 613 936 624 958 l 115 -1 q 96 -31 106 -21 q 76 -43 86 -42 q 54 -37 67 -44 z "},"½":{"ha":1117,"x_min":132,"x_max":1065,"o":"m 225 -37 q 208 -22 213 -31 q 206 2 203 -12 q 221 38 210 17 l 717 975 q 737 1006 728 996 q 757 1017 746 1015 q 781 1011 768 1018 q 797 995 793 1004 q 798 972 801 986 q 783 936 794 958 l 286 -1 q 267 -31 276 -21 q 247 -43 257 -42 q 225 -37 238 -44 m 310 471 q 287 475 296 471 q 274 488 278 479 q 271 513 271 497 l 271 878 q 237 850 254 864 q 203 821 219 836 q 173 806 185 807 q 146 824 161 806 q 133 853 132 840 q 153 881 135 865 l 271 981 q 290 993 282 990 q 311 996 297 996 q 342 986 333 996 q 350 953 350 976 l 350 511 q 347 487 350 496 q 334 474 343 478 q 310 471 325 471 m 671 -15 q 655 -9 663 -15 q 642 7 647 -3 q 638 25 638 17 q 636 48 638 36 q 640 73 635 60 q 665 99 646 86 q 787 179 732 143 q 883 249 842 215 q 946 317 924 282 q 968 394 968 353 q 953 449 968 426 q 910 483 939 471 q 839 494 882 494 q 767 479 796 494 q 723 434 738 464 q 708 360 708 404 q 706 338 708 346 q 694 327 703 331 q 671 324 686 324 q 643 330 651 324 q 634 347 635 336 q 633 367 633 357 q 658 475 633 429 q 730 545 683 521 q 839 569 776 569 q 949 547 903 569 q 1019 483 994 524 q 1044 388 1044 443 q 1031 317 1044 351 q 985 249 1017 283 q 902 174 954 214 q 772 86 850 135 l 732 61 l 1033 61 q 1051 56 1044 61 q 1062 42 1058 51 q 1065 19 1065 33 q 1062 1 1065 8 q 1051 -11 1058 -7 q 1032 -15 1044 -15 l 671 -15 z "},"¼":{"ha":1092,"x_min":90,"x_max":985,"o":"m 211 -37 q 194 -22 199 -31 q 192 2 189 -12 q 207 38 196 17 l 703 975 q 723 1006 714 996 q 743 1017 732 1015 q 767 1011 754 1018 q 783 995 779 1004 q 784 972 788 986 q 769 936 781 958 l 272 -1 q 253 -31 263 -21 q 233 -43 243 -42 q 211 -37 224 -44 m 942 -15 q 917 -11 926 -15 q 905 2 908 -7 q 901 26 901 11 l 901 144 l 646 144 q 614 155 624 144 q 604 186 604 165 q 606 199 604 193 q 608 213 607 206 l 710 543 q 728 578 719 574 q 758 579 738 582 q 782 571 774 578 q 792 553 790 564 q 790 529 794 543 l 697 219 l 901 219 l 901 539 q 906 559 901 551 q 919 569 910 567 q 944 572 929 572 q 969 568 960 572 q 981 555 978 564 q 985 531 985 546 l 985 24 q 981 1 985 10 q 967 -12 976 -8 q 942 -15 958 -15 m 268 471 q 245 475 254 471 q 233 488 236 479 q 229 513 229 497 l 229 878 q 195 850 213 864 q 161 821 178 836 q 131 806 143 806 q 104 824 119 806 q 92 853 90 840 q 111 881 93 865 l 229 981 q 248 993 240 990 q 269 996 256 996 q 300 986 292 996 q 308 953 308 976 l 308 511 q 305 487 308 496 q 292 474 301 478 q 268 471 283 471 z "},"¾":{"ha":1169,"x_min":118,"x_max":1054,"o":"m 303 -37 q 285 -22 290 -31 q 284 2 281 -12 q 299 38 288 17 l 794 975 q 815 1006 806 996 q 835 1017 824 1015 q 858 1011 846 1018 q 875 995 871 1004 q 876 972 879 986 q 861 936 872 958 l 364 -1 q 344 -31 354 -21 q 325 -43 335 -42 q 303 -37 315 -44 m 301 468 q 213 487 254 468 q 147 538 172 506 q 118 610 122 569 q 122 628 118 621 q 135 639 126 635 q 154 643 143 643 q 183 631 178 643 q 190 606 188 619 q 214 567 199 583 q 252 543 229 551 q 303 535 275 535 q 383 561 351 535 q 415 628 415 588 q 385 688 415 664 q 310 713 356 713 q 277 722 288 713 q 267 749 267 731 q 277 776 267 768 q 310 785 288 785 q 371 801 347 785 q 394 844 394 818 q 371 902 394 881 q 307 924 347 924 q 267 919 285 924 q 235 903 249 914 q 211 875 222 892 q 200 858 207 865 q 183 851 193 851 q 153 865 168 851 q 144 896 138 879 q 181 947 157 925 q 238 980 206 968 q 306 992 271 992 q 389 973 353 992 q 446 922 425 954 q 467 849 467 890 q 453 795 467 822 q 415 750 439 768 q 466 699 447 732 q 485 629 485 665 q 461 547 485 583 q 396 489 438 510 q 301 468 354 468 m 1011 -15 q 987 -11 996 -15 q 974 2 978 -7 q 971 26 971 11 l 971 144 l 715 144 q 683 155 693 144 q 674 186 674 165 q 675 199 674 193 q 678 213 676 206 l 779 543 q 798 578 789 574 q 828 579 807 582 q 851 571 843 578 q 862 553 860 564 q 860 529 864 543 l 767 219 l 971 219 l 971 539 q 975 559 971 551 q 989 569 979 567 q 1014 572 999 572 q 1038 568 1029 572 q 1051 555 1047 564 q 1054 531 1054 546 l 1054 24 q 1050 1 1054 10 q 1037 -12 1046 -8 q 1011 -15 1028 -15 z "},"¹":{"ha":446,"x_min":61,"x_max":321,"o":"m 281 263 q 258 267 267 263 q 245 280 249 271 q 242 304 242 289 l 242 842 q 188 801 215 821 q 132 760 160 781 q 102 745 114 746 q 75 763 90 744 q 63 792 61 779 q 82 819 64 806 l 242 940 q 262 951 253 947 q 282 954 271 954 q 313 944 304 954 q 321 911 321 935 l 321 303 q 317 278 321 288 q 305 266 314 269 q 281 263 296 263 z "},"²":{"ha":632,"x_min":42,"x_max":558,"o":"m 85 269 q 65 276 75 269 q 50 292 56 282 q 44 311 44 301 q 43 338 44 324 q 49 367 42 351 q 78 397 56 382 q 226 495 158 451 q 342 580 293 539 q 419 664 392 621 q 446 757 446 707 q 427 835 446 803 q 373 883 408 867 q 286 900 338 900 q 199 881 235 900 q 144 824 163 861 q 125 732 125 786 q 122 706 125 715 q 110 693 118 697 q 85 689 101 689 q 56 697 64 689 q 46 716 47 704 q 44 740 44 728 q 74 869 44 815 q 157 951 103 922 q 286 979 211 979 q 417 953 364 979 q 499 875 471 926 q 528 750 528 824 q 517 683 528 715 q 484 617 507 650 q 424 549 461 585 q 332 474 386 514 q 204 386 278 433 l 149 350 l 519 350 q 542 346 533 350 q 554 333 550 342 q 558 308 558 324 q 554 287 558 296 q 541 274 550 278 q 518 269 532 269 l 85 269 z "},"³":{"ha":635,"x_min":42,"x_max":542,"o":"m 292 253 q 172 278 226 253 q 82 347 117 303 q 42 444 47 390 q 47 466 42 457 q 61 480 51 475 q 85 485 71 485 q 117 470 113 485 q 128 435 122 456 q 162 379 139 403 q 218 344 185 356 q 293 332 251 332 q 379 349 342 332 q 438 398 417 367 q 458 469 458 429 q 415 561 458 525 q 303 597 371 597 q 272 601 283 597 q 256 615 261 606 q 251 640 251 625 q 256 665 251 656 q 272 678 261 674 q 303 682 283 682 q 394 708 358 682 q 431 775 431 735 q 394 861 431 828 q 300 894 358 894 q 238 886 265 894 q 191 861 211 878 q 157 818 171 844 q 144 801 153 808 q 126 793 136 793 q 110 796 117 793 q 93 806 103 799 q 78 843 69 822 q 113 897 90 872 q 164 938 135 921 q 227 964 193 954 q 299 974 261 974 q 411 949 363 974 q 488 880 460 924 q 517 781 517 836 q 495 703 517 740 q 438 642 474 665 q 492 598 468 625 q 528 539 515 571 q 542 472 542 507 q 509 360 542 410 q 420 281 476 310 q 292 253 364 253 z "}," ":{"ha":361,"x_min":0,"x_max":0,"o":""}," ":{"ha":361,"x_min":0,"x_max":0,"o":""},"׳":{"ha":206,"x_min":49,"x_max":154,"o":"m 58 763 q 56 763 58 763 q 51 769 54 764 q 49 783 49 774 q 53 803 49 800 q 58 807 58 807 q 72 817 58 807 q 86 853 85 826 q 70 857 76 854 q 58 865 64 860 q 50 883 51 872 q 49 906 49 894 q 51 931 49 919 q 64 951 53 943 q 101 958 75 958 q 144 946 132 958 q 153 928 151 939 q 154 904 154 917 q 154 893 154 899 q 153 882 154 888 q 137 824 150 851 q 103 779 124 796 q 58 763 83 763 z "},"״":{"ha":336,"x_min":47,"x_max":285,"o":"m 57 763 q 55 763 57 763 q 50 769 53 764 q 47 783 47 774 q 52 803 47 800 q 57 807 57 807 q 70 817 57 807 q 85 853 83 826 q 69 857 75 854 q 57 865 63 860 q 49 883 50 872 q 47 906 47 894 q 49 931 47 919 q 63 951 51 943 q 100 958 74 958 q 143 946 131 958 q 151 928 150 939 q 153 904 153 917 q 153 893 153 899 q 151 882 153 888 q 135 824 149 851 q 102 779 122 796 q 57 763 82 763 m 189 763 q 187 763 189 763 q 182 769 185 764 q 179 783 179 774 q 184 803 179 800 q 189 807 189 807 q 202 817 189 807 q 217 853 215 826 q 201 857 207 854 q 189 865 194 860 q 181 883 182 872 q 179 906 179 894 q 181 931 179 919 q 194 951 183 943 q 232 958 206 958 q 275 946 263 958 q 283 928 282 939 q 285 904 285 917 q 285 893 285 899 q 283 882 285 888 q 267 824 281 851 q 234 779 254 796 q 189 763 214 763 z "},"־":{"ha":419,"x_min":49,"x_max":371,"o":"m 90 689 q 66 692 75 689 q 53 705 57 696 q 49 729 49 714 q 52 755 49 746 q 65 768 56 764 q 88 772 74 772 l 332 772 q 356 768 347 772 q 367 755 364 764 q 371 729 371 746 q 367 705 371 714 q 353 692 363 696 q 329 689 344 689 l 90 689 z "},".":{"ha":289,"x_min":90,"x_max":199,"o":"m 144 -15 q 102 -3 114 -15 q 90 38 90 8 q 95 70 90 58 q 113 88 100 82 q 144 93 125 93 q 187 81 175 93 q 199 39 199 69 q 194 6 199 18 q 177 -10 189 -6 q 144 -15 165 -15 z "},",":{"ha":314,"x_min":101,"x_max":207,"o":"m 111 -94 q 109 -94 111 -94 q 104 -88 107 -93 q 101 -74 101 -83 q 106 -53 101 -57 q 111 -50 111 -50 q 124 -40 111 -50 q 139 -4 138 -31 q 123 0 129 -3 q 111 8 117 3 q 103 26 104 15 q 101 49 101 38 q 103 74 101 63 q 117 94 106 86 q 154 101 128 101 q 197 89 185 101 q 206 71 204 82 q 207 47 207 60 q 207 36 207 42 q 206 25 207 31 q 190 -33 203 -6 q 156 -78 176 -61 q 111 -94 136 -94 z "},":":{"ha":331,"x_min":99,"x_max":207,"o":"m 153 496 q 110 508 122 496 q 99 549 99 519 q 103 582 99 569 q 121 599 108 594 q 153 604 133 604 q 195 592 183 604 q 207 550 207 581 q 202 518 207 531 q 185 501 197 506 q 153 496 174 496 m 153 -15 q 110 -3 122 -15 q 99 38 99 8 q 103 70 99 58 q 121 88 108 82 q 153 93 133 93 q 195 81 183 93 q 207 39 207 69 q 202 6 207 18 q 185 -10 197 -6 q 153 -15 174 -15 z "},";":{"ha":293,"x_min":90,"x_max":200,"o":"m 104 -94 q 102 -94 104 -94 q 97 -88 100 -93 q 94 -74 94 -83 q 99 -53 94 -57 q 104 -50 104 -50 q 117 -40 104 -50 q 132 -4 131 -31 q 116 0 122 -3 q 104 8 110 3 q 96 26 97 15 q 94 49 94 38 q 97 74 94 63 q 110 94 99 86 q 147 101 121 101 q 190 89 178 101 q 199 71 197 82 q 200 47 200 60 q 200 36 200 42 q 199 25 200 31 q 183 -33 196 -6 q 149 -78 169 -61 q 104 -94 129 -94 m 144 493 q 102 505 114 493 q 90 546 90 517 q 95 579 90 567 q 113 597 100 592 q 144 601 125 601 q 187 590 175 601 q 199 547 199 578 q 194 515 199 528 q 177 498 189 503 q 144 493 165 493 z "},"…":{"ha":761,"x_min":90,"x_max":671,"o":"m 381 -15 q 338 -3 350 -15 q 326 38 326 8 q 331 70 326 58 q 349 88 336 82 q 381 93 361 93 q 423 81 411 93 q 435 39 435 69 q 430 6 435 18 q 413 -10 425 -6 q 381 -15 401 -15 m 617 -15 q 574 -3 586 -15 q 563 38 563 8 q 567 70 563 58 q 585 88 572 82 q 617 93 597 93 q 659 81 647 93 q 671 39 671 69 q 666 6 671 18 q 649 -10 661 -6 q 617 -15 638 -15 m 144 -15 q 102 -3 114 -15 q 90 38 90 8 q 95 70 90 58 q 113 88 100 82 q 144 93 125 93 q 187 81 175 93 q 199 39 199 69 q 194 6 199 18 q 177 -10 189 -6 q 144 -15 165 -15 z "},"!":{"ha":313,"x_min":104,"x_max":208,"o":"m 157 236 q 133 240 142 236 q 120 252 124 243 q 117 276 117 261 l 117 913 q 120 937 117 928 q 133 950 124 946 q 156 954 142 954 q 180 951 171 954 q 192 938 189 947 q 196 914 196 929 l 196 279 q 192 254 196 264 q 181 240 189 244 q 157 236 172 236 m 157 -15 q 115 -4 126 -15 q 104 36 104 7 q 109 69 104 57 q 125 86 114 81 q 156 92 136 92 q 197 80 186 92 q 208 40 208 68 q 203 8 208 19 q 188 -10 199 -4 q 157 -15 176 -15 z "},"¡":{"ha":313,"x_min":104,"x_max":208,"o":"m 157 453 q 181 449 172 453 q 192 435 189 444 q 196 410 196 426 l 196 -225 q 192 -249 196 -240 q 180 -262 189 -258 q 156 -265 171 -265 q 133 -261 142 -265 q 120 -248 124 -257 q 117 -224 117 -239 l 117 413 q 120 437 117 428 q 133 449 124 446 q 157 453 142 453 m 157 704 q 188 699 176 704 q 203 681 199 693 q 208 649 208 669 q 197 609 208 621 q 156 597 186 597 q 125 603 136 597 q 109 621 114 608 q 104 653 104 633 q 115 693 104 682 q 157 704 126 704 z "},"?":{"ha":689,"x_min":82,"x_max":614,"o":"m 349 236 q 326 240 335 236 q 315 252 318 243 q 313 276 313 261 l 313 449 q 328 483 313 471 q 370 506 344 496 q 424 529 396 517 q 477 564 451 542 q 519 622 503 586 q 535 717 535 658 q 486 855 535 806 q 344 904 438 904 q 263 889 300 904 q 198 847 225 874 q 157 781 171 819 q 149 766 154 771 q 134 760 143 761 q 110 764 125 760 q 91 773 97 768 q 83 786 85 778 q 85 806 82 794 q 108 864 92 838 q 149 911 125 890 q 203 946 172 932 q 269 967 233 960 q 344 975 306 975 q 491 944 431 975 q 583 857 551 914 q 614 719 614 800 q 605 645 614 681 q 577 578 596 610 q 530 519 558 546 q 465 471 501 492 q 381 436 428 450 l 389 450 l 389 276 q 385 252 389 261 q 374 240 382 243 q 349 236 365 236 m 351 -15 q 308 -1 318 -15 q 297 39 297 13 q 299 64 297 51 q 313 85 301 76 q 351 93 325 93 q 397 80 388 93 q 406 39 406 67 q 403 14 406 26 q 390 -7 401 1 q 351 -15 379 -15 z "},"¿":{"ha":658,"x_min":69,"x_max":601,"o":"m 335 432 q 358 428 350 432 q 368 416 365 425 q 371 392 371 407 l 371 219 q 355 185 371 197 q 313 162 339 172 q 260 139 288 151 q 206 104 232 126 q 165 46 181 82 q 149 -49 149 10 q 197 -187 149 -137 q 339 -236 246 -236 q 422 -221 385 -236 q 485 -178 458 -206 q 526 -112 513 -150 q 535 -98 531 -103 q 550 -92 540 -93 q 574 -96 560 -92 q 592 -104 586 -99 q 600 -117 599 -110 q 599 -137 601 -125 q 575 -196 592 -169 q 535 -243 558 -222 q 481 -278 511 -264 q 415 -299 450 -292 q 339 -307 379 -307 q 192 -276 253 -307 q 101 -189 132 -246 q 69 -51 69 -132 q 78 23 69 -12 q 106 90 88 58 q 153 149 125 122 q 219 197 182 176 q 303 232 256 218 l 294 218 l 294 392 q 298 416 294 407 q 310 428 301 425 q 335 432 319 432 m 332 683 q 376 670 365 683 q 386 629 386 657 q 384 604 386 617 q 371 583 382 592 q 332 575 360 575 q 288 588 297 575 q 278 629 278 601 q 280 655 278 643 q 294 675 282 667 q 332 683 306 683 z "},"·":{"ha":233,"x_min":63,"x_max":171,"o":"m 117 344 q 72 358 82 344 q 63 399 63 372 q 69 435 63 418 q 117 453 76 453 q 161 440 151 453 q 171 400 171 428 q 164 362 171 379 q 117 344 157 344 z "},"•":{"ha":289,"x_min":63,"x_max":226,"o":"m 144 326 q 99 335 118 326 q 72 363 81 344 q 63 408 63 381 q 72 454 63 436 q 99 481 81 472 q 144 490 118 490 q 190 481 172 490 q 217 454 208 472 q 226 408 226 436 q 217 363 226 382 q 190 335 208 344 q 144 326 172 326 z "},"*":{"ha":699,"x_min":82,"x_max":568,"o":"m 325 886 q 349 879 342 886 q 356 857 356 872 l 356 694 l 531 750 q 549 749 542 754 q 563 731 557 744 q 565 707 568 715 q 550 694 563 699 l 372 640 l 485 483 q 489 465 492 474 q 474 447 486 456 q 452 440 463 439 q 435 451 442 440 l 324 601 l 215 454 q 197 442 207 442 q 175 451 188 442 q 163 468 164 460 q 169 489 161 476 l 276 640 l 96 693 q 84 706 86 697 q 86 728 82 714 q 98 749 92 743 q 114 750 104 754 l 296 693 l 296 857 q 303 879 296 872 q 325 886 310 886 z "},"#":{"ha":1151,"x_min":104,"x_max":1049,"o":"m 286 -24 q 265 -9 268 -24 q 267 40 261 6 l 299 232 l 119 232 q 108 238 111 232 q 104 258 104 244 q 109 287 104 276 q 126 302 114 297 q 156 307 138 307 l 310 307 l 360 607 l 181 607 q 169 613 172 607 q 165 632 165 618 q 171 660 165 650 q 188 676 176 671 q 217 681 199 681 l 371 681 l 410 918 q 425 960 415 949 q 449 973 435 971 q 483 975 464 975 q 506 960 506 975 q 500 904 507 944 l 463 681 l 783 681 l 819 911 q 833 955 825 942 q 853 972 840 968 q 886 975 867 975 q 913 961 910 975 q 911 913 917 947 l 875 681 l 1029 681 q 1046 672 1043 681 q 1043 647 1049 663 q 1031 622 1038 631 q 1015 610 1024 613 q 994 607 1007 607 l 860 607 l 814 307 l 967 307 q 981 297 979 307 q 982 282 983 286 q 971 251 976 261 q 956 236 965 240 q 932 232 947 232 l 799 232 l 768 40 q 757 3 765 17 q 734 -17 749 -11 q 696 -24 719 -24 q 676 -9 681 -24 q 678 42 672 6 l 707 232 l 389 232 l 358 43 q 346 3 354 18 q 324 -17 338 -11 q 286 -24 310 -24 m 400 307 l 722 307 l 769 607 l 453 607 l 400 307 z "},"/":{"ha":731,"x_min":43,"x_max":640,"o":"m 64 -69 q 44 -42 46 -58 q 60 6 43 -26 l 556 943 q 576 974 567 964 q 596 985 585 983 q 619 979 607 986 q 636 963 632 972 q 637 940 640 954 q 622 904 633 926 l 125 -33 q 97 -72 110 -64 q 64 -69 83 -79 z "},"\\":{"ha":733,"x_min":51,"x_max":622,"o":"m 599 -67 q 576 -71 586 -72 q 558 -59 567 -69 q 539 -29 549 -49 l 68 922 q 53 972 51 956 q 74 997 56 988 q 108 999 93 1008 q 136 960 122 990 l 606 8 q 620 -40 622 -25 q 599 -67 618 -56 z "},"-":{"ha":601,"x_min":7,"x_max":468,"o":"m 49 314 q 24 317 33 314 q 11 330 15 321 q 7 354 7 339 q 10 380 7 371 q 23 393 14 389 q 46 397 32 397 l 429 397 q 453 393 444 397 q 465 380 461 389 q 468 354 468 371 q 464 330 468 339 q 451 317 460 321 q 426 314 442 314 l 49 314 z "},"–":{"ha":779,"x_min":7,"x_max":676,"o":"m 49 314 q 24 317 33 314 q 11 330 15 321 q 7 354 7 339 q 10 380 7 371 q 23 393 14 389 q 46 397 32 397 l 638 397 q 661 393 653 397 q 673 380 669 389 q 676 354 676 371 q 672 330 676 339 q 659 317 668 321 q 635 314 650 314 l 49 314 z "},"—":{"ha":963,"x_min":7,"x_max":857,"o":"m 49 314 q 24 317 33 314 q 11 330 15 321 q 7 354 7 339 q 10 380 7 371 q 23 393 14 389 q 46 397 32 397 l 818 397 q 842 393 833 397 q 853 380 850 389 q 857 354 857 371 q 853 330 857 339 q 840 317 849 321 q 815 314 831 314 l 49 314 z "},"_":{"ha":1147,"x_min":81,"x_max":1069,"o":"m 122 -162 q 98 -159 107 -162 q 85 -147 89 -156 q 81 -122 81 -137 q 84 -97 81 -106 q 97 -83 88 -87 q 119 -79 106 -79 l 1031 -79 q 1054 -83 1046 -79 q 1066 -97 1063 -87 q 1069 -122 1069 -106 q 1065 -147 1069 -137 q 1052 -159 1061 -156 q 1028 -162 1043 -162 l 122 -162 z "},"(":{"ha":533,"x_min":92,"x_max":438,"o":"m 393 -222 q 292 -193 339 -222 q 209 -108 246 -164 q 146 26 172 -53 q 106 203 119 104 q 92 415 92 301 q 106 630 92 531 q 146 808 119 729 q 209 943 172 888 q 293 1028 246 999 q 394 1058 340 1058 q 420 1054 411 1058 q 433 1041 429 1050 q 438 1017 438 1032 q 434 992 438 1001 q 422 979 431 983 q 400 975 414 975 l 393 975 q 281 907 329 975 q 207 715 233 839 q 181 418 181 590 q 196 186 181 289 q 240 11 211 83 q 308 -100 268 -61 q 394 -139 347 -139 q 420 -143 411 -139 q 433 -156 429 -147 q 438 -182 438 -165 q 433 -206 438 -197 q 419 -219 429 -215 q 393 -222 410 -222 z "},")":{"ha":533,"x_min":92,"x_max":438,"o":"m 136 -222 q 110 -219 119 -222 q 96 -206 100 -215 q 92 -182 92 -197 q 96 -156 92 -165 q 110 -143 100 -147 q 135 -139 119 -139 q 222 -100 183 -139 q 290 11 261 -61 q 333 186 318 83 q 349 418 349 289 q 322 715 349 590 q 248 907 296 839 q 136 975 200 975 l 129 975 q 107 979 115 975 q 95 992 99 983 q 92 1017 92 1001 q 96 1041 92 1032 q 110 1054 100 1050 q 135 1058 119 1058 q 236 1028 189 1058 q 320 943 283 999 q 383 808 357 888 q 424 630 410 729 q 438 415 438 531 q 424 203 438 301 q 383 26 410 104 q 320 -108 357 -53 q 237 -193 283 -164 q 136 -222 190 -222 z "},"{":{"ha":529,"x_min":44,"x_max":421,"o":"m 379 -217 q 304 -208 335 -217 q 256 -177 274 -199 q 229 -122 238 -156 q 221 -37 221 -87 l 221 263 q 214 316 221 294 q 192 351 207 338 q 151 370 176 364 q 89 376 125 376 l 68 376 q 49 385 54 376 q 44 417 44 394 q 47 441 44 432 q 53 454 49 450 q 67 458 58 458 l 85 458 q 148 465 122 458 q 190 484 174 471 q 213 519 206 497 q 219 574 219 542 l 221 879 q 229 961 221 928 q 256 1015 238 994 q 304 1044 274 1035 q 378 1053 335 1053 q 403 1049 394 1053 q 417 1037 413 1046 q 421 1013 421 1028 q 417 988 421 997 q 403 975 413 979 q 378 971 394 971 q 333 961 349 971 q 310 929 317 951 q 303 868 303 907 l 303 607 q 297 547 303 576 q 276 491 290 517 q 240 446 263 465 q 188 417 218 426 q 240 387 218 408 q 276 336 263 365 q 297 274 290 307 q 303 210 303 240 l 303 -51 q 310 -101 303 -82 q 333 -128 317 -119 q 378 -136 349 -136 q 403 -140 394 -136 q 417 -152 413 -143 q 421 -176 421 -161 q 417 -201 421 -192 q 403 -213 413 -210 q 379 -217 394 -217 z "},"}":{"ha":529,"x_min":44,"x_max":421,"o":"m 86 -217 q 62 -213 71 -217 q 49 -201 53 -210 q 44 -176 44 -192 q 49 -152 44 -161 q 63 -140 53 -143 q 88 -136 72 -136 q 133 -128 117 -136 q 156 -101 150 -119 q 163 -51 163 -82 l 163 210 q 169 274 163 240 q 189 336 175 307 q 225 387 203 365 q 278 417 247 408 q 225 446 247 426 q 189 491 203 465 q 169 547 175 517 q 163 607 163 576 l 163 868 q 156 929 163 907 q 133 961 149 951 q 88 971 117 971 q 63 975 72 971 q 49 988 53 979 q 44 1013 44 997 q 49 1037 44 1028 q 63 1049 53 1046 q 88 1053 72 1053 q 162 1044 132 1053 q 210 1015 192 1035 q 236 961 228 994 q 244 879 244 928 l 246 574 q 253 519 246 542 q 276 484 260 497 q 317 465 292 471 q 381 458 343 458 l 399 458 q 412 454 407 458 q 419 441 417 450 q 421 417 421 432 q 416 385 421 394 q 397 376 411 376 l 376 376 q 315 370 340 376 q 274 351 289 364 q 251 316 258 338 q 244 263 244 294 l 244 -37 q 236 -122 244 -87 q 210 -177 228 -156 q 161 -208 192 -199 q 86 -217 131 -217 z "},"[":{"ha":483,"x_min":68,"x_max":393,"o":"m 113 -217 q 86 -212 96 -217 q 72 -199 76 -208 q 68 -175 68 -190 l 68 1010 q 72 1034 68 1025 q 86 1047 76 1043 q 113 1051 96 1051 l 354 1051 q 378 1048 369 1051 q 390 1035 386 1044 q 393 1010 393 1026 q 389 985 393 994 q 376 973 385 976 q 351 969 367 969 l 150 969 l 150 -135 l 351 -135 q 376 -138 367 -135 q 389 -151 385 -142 q 393 -175 393 -160 q 390 -200 393 -190 q 378 -213 386 -210 q 354 -217 369 -217 l 113 -217 z "},"]":{"ha":483,"x_min":68,"x_max":393,"o":"m 107 -217 q 84 -213 93 -217 q 72 -200 75 -210 q 68 -175 68 -190 q 72 -151 68 -160 q 85 -138 76 -142 q 110 -135 94 -135 l 311 -135 l 311 969 l 110 969 q 85 973 94 969 q 72 985 76 976 q 68 1010 68 994 q 72 1035 68 1026 q 84 1048 75 1044 q 107 1051 93 1051 l 349 1051 q 375 1047 365 1051 q 389 1034 385 1043 q 393 1010 393 1025 l 393 -175 q 389 -199 393 -190 q 375 -212 385 -208 q 349 -217 365 -217 l 107 -217 z "},"‚":{"ha":206,"x_min":46,"x_max":151,"o":"m 56 -94 q 53 -94 56 -94 q 49 -88 51 -93 q 46 -74 46 -83 q 51 -53 46 -57 q 56 -50 56 -50 q 69 -40 56 -50 q 83 -4 82 -31 q 67 0 74 -3 q 56 8 61 3 q 47 26 49 15 q 46 49 46 38 q 48 74 46 63 q 61 94 50 86 q 99 101 72 101 q 142 89 129 101 q 150 71 149 82 q 151 47 151 60 q 151 36 151 42 q 150 25 151 31 q 134 -33 147 -6 q 101 -78 121 -61 q 56 -94 81 -94 z "},"„":{"ha":336,"x_min":57,"x_max":288,"o":"m 67 -94 q 65 -94 67 -94 q 60 -88 63 -93 q 57 -74 57 -83 q 62 -53 57 -57 q 67 -50 67 -50 q 80 -40 67 -50 q 94 -4 93 -31 q 78 0 85 -3 q 67 8 72 3 q 58 26 60 15 q 57 49 57 38 q 59 74 57 63 q 72 94 61 86 q 110 101 83 101 q 153 89 140 101 q 161 71 160 82 q 163 47 163 60 q 163 36 163 42 q 161 25 163 31 q 145 -33 158 -6 q 112 -78 132 -61 q 67 -94 92 -94 m 192 -94 q 190 -94 192 -94 q 185 -88 188 -93 q 182 -74 182 -83 q 187 -53 182 -57 q 192 -50 192 -50 q 205 -40 192 -50 q 219 -4 218 -31 q 203 0 210 -3 q 192 8 197 3 q 183 26 185 15 q 182 49 182 38 q 184 74 182 63 q 197 94 186 86 q 235 101 208 101 q 278 89 265 101 q 286 71 285 82 q 288 47 288 60 q 288 36 288 42 q 286 25 288 31 q 270 -33 283 -6 q 237 -78 257 -61 q 192 -94 217 -94 z "},"“":{"ha":336,"x_min":53,"x_max":278,"o":"m 268 956 q 271 955 268 956 q 276 950 274 954 q 278 935 278 946 q 273 915 278 918 q 268 911 268 911 q 256 901 268 911 q 240 865 243 892 q 256 861 250 864 q 268 853 263 858 q 276 835 275 846 q 278 813 278 824 q 276 787 278 799 q 263 767 274 775 q 225 760 251 760 q 182 772 194 760 q 174 790 175 779 q 172 814 172 801 q 172 825 172 819 q 174 836 172 831 q 190 895 176 868 q 223 939 203 922 q 268 956 243 956 m 149 956 q 151 955 149 956 q 156 950 154 954 q 158 935 158 946 q 153 915 158 918 q 149 911 149 911 q 136 901 149 911 q 121 865 124 892 q 137 861 131 864 q 149 853 143 858 q 157 835 156 846 q 158 813 158 824 q 156 787 158 799 q 143 767 154 775 q 106 760 132 760 q 63 772 75 760 q 54 790 56 779 q 53 814 53 801 q 53 825 53 819 q 54 836 53 831 q 70 895 57 868 q 103 939 83 922 q 149 956 124 956 z "},"”":{"ha":335,"x_min":47,"x_max":285,"o":"m 57 763 q 55 763 57 763 q 50 769 53 764 q 47 783 47 774 q 52 803 47 800 q 57 807 57 807 q 70 817 57 807 q 85 853 83 826 q 69 857 75 854 q 57 865 63 860 q 49 883 50 872 q 47 906 47 894 q 49 931 47 919 q 63 951 51 943 q 100 958 74 958 q 143 946 131 958 q 151 928 150 939 q 153 904 153 917 q 153 893 153 899 q 151 882 153 888 q 135 824 149 851 q 102 779 122 796 q 57 763 82 763 m 189 763 q 187 763 189 763 q 182 769 185 764 q 179 783 179 774 q 184 803 179 800 q 189 807 189 807 q 202 817 189 807 q 217 853 215 826 q 201 857 207 854 q 189 865 194 860 q 181 883 182 872 q 179 906 179 894 q 181 931 179 919 q 194 951 183 943 q 232 958 206 958 q 275 946 263 958 q 283 928 282 939 q 285 904 285 917 q 285 893 285 899 q 283 882 285 888 q 267 824 281 851 q 234 779 254 796 q 189 763 214 763 z "},"‘":{"ha":206,"x_min":43,"x_max":149,"o":"m 139 956 q 142 955 139 956 q 147 950 144 954 q 149 935 149 946 q 144 915 149 918 q 139 911 139 911 q 126 901 139 911 q 111 865 114 892 q 127 861 121 864 q 139 853 133 858 q 147 835 146 846 q 149 813 149 824 q 147 787 149 799 q 133 767 144 775 q 96 760 122 760 q 53 772 65 760 q 44 790 46 779 q 43 814 43 801 q 43 825 43 819 q 44 836 43 831 q 60 895 47 868 q 94 939 74 922 q 139 956 114 956 z "},"’":{"ha":189,"x_min":49,"x_max":154,"o":"m 58 624 q 56 624 58 624 q 51 630 54 625 q 49 644 49 635 q 53 665 49 661 q 58 668 58 668 q 72 678 58 668 q 86 714 85 688 q 70 718 76 715 q 58 726 64 721 q 50 744 51 733 q 49 767 49 756 q 51 792 49 781 q 64 812 53 804 q 101 819 75 819 q 144 807 132 819 q 153 789 151 800 q 154 765 154 778 q 154 754 154 760 q 153 743 154 749 q 137 685 150 713 q 103 640 124 657 q 58 624 83 624 z "},"«":{"ha":694,"x_min":21,"x_max":675,"o":"m 393 -18 q 373 -33 382 -29 q 355 -34 364 -37 q 335 -21 346 -31 l 36 278 q 25 292 29 285 q 21 306 21 300 q 25 319 21 313 q 36 333 29 326 l 335 632 q 355 646 346 643 q 373 644 364 649 q 393 629 382 640 q 408 609 404 618 q 407 591 411 600 q 392 571 403 582 l 126 306 l 392 40 q 407 20 403 29 q 408 2 411 11 q 393 -18 404 -7 m 657 -18 q 637 -33 646 -29 q 619 -34 628 -37 q 599 -21 610 -31 l 300 278 q 289 292 293 285 q 285 306 285 300 q 289 319 285 313 q 300 333 293 326 l 599 632 q 619 646 610 643 q 637 644 628 649 q 657 629 646 640 q 672 609 668 618 q 671 591 675 600 q 656 571 667 582 l 390 306 l 656 40 q 671 20 667 29 q 672 2 675 11 q 657 -18 668 -7 z "},"»":{"ha":675,"x_min":0,"x_max":654,"o":"m 18 -18 q 3 2 7 -7 q 4 20 0 11 q 19 40 8 29 l 285 306 l 19 571 q 4 591 8 582 q 3 609 0 600 q 18 629 7 618 q 38 644 29 640 q 57 646 47 649 q 76 632 67 643 l 375 333 q 386 319 382 326 q 390 306 390 313 q 386 292 390 300 q 375 278 382 285 l 76 -21 q 57 -34 67 -31 q 38 -33 47 -37 q 18 -18 29 -29 m 282 -18 q 267 2 271 -7 q 268 20 264 11 q 283 40 272 29 l 549 306 l 283 571 q 268 591 272 582 q 267 609 264 600 q 282 629 271 618 q 302 644 293 640 q 321 646 311 649 q 340 632 331 643 l 639 333 q 650 319 646 326 q 654 306 654 313 q 650 292 654 300 q 639 278 646 285 l 340 -21 q 321 -34 331 -31 q 302 -33 311 -37 q 282 -18 293 -29 z "},"‹":{"ha":486,"x_min":49,"x_max":439,"o":"m 421 -18 q 401 -33 410 -29 q 383 -34 392 -37 q 363 -21 374 -31 l 64 278 q 53 292 57 285 q 49 306 49 300 q 53 319 49 313 q 64 333 57 326 l 363 632 q 383 646 374 643 q 401 644 392 649 q 421 629 410 640 q 435 609 432 618 q 435 591 439 600 q 419 571 431 582 l 154 306 l 419 40 q 435 20 431 29 q 435 2 439 11 q 421 -18 432 -7 z "},"›":{"ha":447,"x_min":28,"x_max":418,"o":"m 46 -18 q 31 2 35 -7 q 32 20 28 11 q 47 40 36 29 l 313 306 l 47 571 q 32 591 36 582 q 31 609 28 600 q 46 629 35 618 q 66 644 57 640 q 85 646 75 649 q 104 632 94 643 l 403 333 q 414 319 410 326 q 418 306 418 313 q 414 292 418 300 q 403 278 410 285 l 104 -21 q 85 -34 94 -31 q 66 -33 75 -37 q 46 -18 57 -29 z "},"\"":{"ha":435,"x_min":92,"x_max":343,"o":"m 296 663 q 278 674 286 663 q 265 706 271 685 q 256 755 260 726 q 251 817 253 783 q 249 886 249 850 q 251 913 249 900 q 263 934 253 925 q 297 943 274 943 q 330 934 321 943 q 341 913 339 925 q 343 886 343 900 q 342 817 343 850 q 336 755 340 783 q 326 706 332 726 q 313 674 321 685 q 296 663 306 663 m 138 663 q 120 674 128 663 q 108 706 113 685 q 99 755 103 726 q 93 817 94 783 q 92 886 92 850 q 94 913 92 900 q 106 934 96 925 q 139 943 115 943 q 172 934 163 943 q 183 913 181 925 q 185 886 185 900 q 183 817 185 850 q 178 755 182 783 q 168 706 174 726 q 155 674 163 685 q 138 663 147 663 z "},"'":{"ha":246,"x_min":76,"x_max":169,"o":"m 122 663 q 105 674 113 663 q 92 706 97 685 q 83 755 88 726 q 78 817 79 783 q 76 886 76 850 q 78 913 76 900 q 90 934 81 925 q 124 943 100 943 q 156 934 147 943 q 167 913 165 925 q 169 886 169 900 q 168 817 169 850 q 163 755 167 783 q 153 706 158 726 q 140 674 147 685 q 122 663 132 663 z "},"ƒ":{"ha":658,"x_min":4,"x_max":567,"o":"m 47 -279 q 26 -277 36 -279 q 10 -269 15 -275 q 4 -257 4 -264 q 5 -244 4 -249 q 6 -240 6 -240 q 18 -217 8 -225 q 58 -208 28 -208 q 127 -194 96 -208 q 178 -153 158 -179 q 201 -93 199 -126 l 268 554 l 142 553 q 126 556 132 553 q 118 566 121 560 q 115 579 115 572 q 115 591 115 589 q 115 594 115 593 q 122 618 117 610 q 140 630 128 626 q 169 633 151 633 l 274 622 l 297 797 q 323 869 301 838 q 378 924 344 901 q 453 960 411 947 q 539 972 494 972 q 556 969 550 972 q 564 960 561 967 q 567 942 567 954 q 567 934 567 938 q 565 926 567 931 q 557 908 563 915 q 542 897 551 900 q 515 894 532 894 q 460 887 485 894 q 416 865 435 879 q 385 831 397 851 q 371 783 374 810 l 353 621 l 543 633 q 557 630 551 633 q 565 622 563 626 q 567 614 567 617 q 567 599 567 604 q 567 589 567 594 q 560 563 565 571 q 543 553 554 556 q 515 551 532 551 l 349 556 l 281 -81 q 252 -175 274 -136 q 199 -236 231 -214 q 128 -269 167 -258 q 47 -279 89 -279 z "},"@":{"ha":1144,"x_min":61,"x_max":1083,"o":"m 532 -201 q 282 -138 388 -201 q 119 40 176 -75 q 61 307 61 154 q 98 514 61 421 q 203 674 135 607 q 365 778 271 742 q 572 814 458 814 q 791 779 696 814 q 951 678 886 744 q 1050 519 1017 613 q 1083 311 1083 426 q 1063 155 1083 226 q 1006 31 1043 83 q 917 -49 968 -21 q 806 -78 867 -78 q 690 -36 732 -78 q 654 74 649 6 q 660 124 657 99 q 664 174 663 149 q 629 135 650 153 q 578 108 608 118 q 504 99 547 99 q 435 113 468 99 q 376 152 401 126 q 335 215 350 178 q 322 300 321 253 q 322 318 322 311 q 324 326 322 325 q 348 426 328 382 q 399 500 368 469 q 467 547 429 531 q 547 563 506 563 q 625 549 593 563 q 677 516 657 535 q 704 483 697 497 l 713 540 q 727 560 715 557 q 758 564 739 564 q 781 554 772 564 q 788 525 790 544 l 731 82 q 749 22 729 44 q 813 -1 769 -1 q 891 22 856 -1 q 953 87 926 44 q 994 188 979 129 q 1008 319 1008 247 q 983 492 1008 415 q 906 624 958 569 q 774 709 854 679 q 583 739 693 739 q 352 686 453 739 q 195 539 251 633 q 139 317 139 444 q 187 85 139 185 q 323 -69 235 -14 q 532 -124 411 -124 q 556 -128 547 -124 q 568 -142 564 -133 q 572 -162 572 -150 q 567 -183 572 -174 q 553 -197 563 -192 q 532 -201 544 -201 m 529 179 q 584 189 558 179 q 629 217 610 199 q 661 264 649 236 q 679 326 674 292 l 679 339 q 670 400 679 374 q 644 444 661 426 q 604 472 628 463 q 553 482 581 482 q 497 472 522 482 q 451 443 471 463 q 419 396 432 424 q 403 332 407 368 l 403 319 q 418 244 403 275 q 462 196 433 213 q 529 179 490 179 z "},"&":{"ha":997,"x_min":54,"x_max":903,"o":"m 338 -15 q 185 14 249 -15 q 88 99 122 43 q 54 233 54 156 q 76 321 54 275 q 141 414 99 367 q 242 506 183 461 q 202 590 219 547 q 176 675 185 633 q 167 756 167 717 q 197 869 167 821 q 283 945 228 918 q 414 972 339 972 q 525 948 478 972 q 599 880 572 924 q 625 778 625 836 q 605 721 625 753 q 548 651 585 689 q 461 571 511 614 q 350 479 411 528 q 438 358 392 415 q 531 256 483 301 q 622 181 579 211 q 715 275 690 232 q 747 361 739 318 q 760 383 750 372 q 800 393 769 393 q 821 388 813 393 q 834 373 829 382 q 838 353 839 364 q 795 244 835 299 q 688 132 756 189 q 738 115 715 122 q 789 105 760 108 q 864 101 818 101 q 895 94 888 101 q 903 61 903 86 q 894 21 903 31 q 863 11 886 11 q 781 17 822 11 q 697 37 739 22 q 611 76 656 51 q 528 28 574 49 q 435 -4 483 7 q 338 -15 386 -15 m 335 71 q 449 87 394 71 q 542 129 504 103 q 481 187 514 154 q 413 259 447 219 q 344 342 378 299 q 279 432 310 386 q 215 372 242 399 q 173 324 189 346 q 150 281 157 303 q 143 233 143 258 q 167 147 143 183 q 233 90 190 110 q 335 71 276 71 m 311 547 q 405 620 363 586 q 477 683 447 654 q 524 738 507 713 q 540 781 540 763 q 506 869 540 835 q 414 903 471 903 q 326 885 364 903 q 268 835 289 867 q 247 761 247 804 q 254 703 247 733 q 275 636 261 674 q 311 547 289 599 z "},"¶":{"ha":647,"x_min":47,"x_max":571,"o":"m 367 -350 q 342 -343 351 -350 q 329 -321 333 -336 q 325 -279 325 -306 l 325 428 q 161 444 222 425 q 74 509 100 463 q 47 635 47 556 q 58 733 47 693 q 94 796 69 772 q 159 831 118 819 q 258 842 200 842 l 532 842 q 556 835 547 842 q 567 813 564 828 q 571 772 571 799 l 571 -282 q 567 -322 571 -307 q 555 -343 564 -336 q 531 -350 546 -350 q 506 -343 515 -350 q 494 -321 497 -336 q 490 -279 490 -306 l 490 758 l 407 758 l 407 -282 q 403 -322 407 -307 q 391 -343 400 -336 q 367 -350 382 -350 z "},"§":{"ha":778,"x_min":74,"x_max":706,"o":"m 393 -314 q 308 -303 351 -314 q 222 -271 264 -292 q 147 -222 181 -250 q 92 -158 113 -193 q 76 -121 78 -135 q 96 -92 74 -107 q 138 -85 124 -74 q 169 -122 153 -97 q 231 -181 193 -156 q 310 -219 268 -206 q 388 -232 351 -232 q 511 -214 458 -232 q 594 -159 564 -196 q 624 -67 624 -122 q 593 16 624 -17 q 512 69 563 49 q 402 108 461 90 q 286 146 343 125 q 191 191 235 165 q 121 256 147 217 q 94 351 94 294 q 115 446 94 404 q 172 517 135 488 q 256 561 208 546 q 142 636 190 589 q 94 760 94 683 q 130 883 94 833 q 229 957 165 932 q 378 982 293 982 q 490 965 439 982 q 580 924 542 949 q 639 874 618 899 q 658 841 657 853 q 643 813 658 829 q 614 797 629 797 q 583 814 599 797 q 526 858 561 839 q 453 889 492 878 q 376 900 414 900 q 273 887 318 900 q 202 843 228 874 q 176 758 176 813 q 205 686 176 715 q 281 636 233 657 q 385 597 328 615 q 498 559 442 579 q 601 513 554 539 q 677 447 649 486 q 706 350 706 407 q 661 216 706 269 q 547 133 617 163 q 659 59 613 104 q 706 -62 706 14 q 683 -167 706 -121 q 620 -247 661 -214 q 522 -297 579 -279 q 393 -314 464 -314 m 433 176 q 531 203 489 183 q 599 258 574 222 q 624 346 624 293 q 606 407 624 381 q 555 454 589 433 q 472 492 521 475 q 361 525 424 510 q 225 471 274 511 q 176 350 176 431 q 190 298 176 321 q 229 258 204 275 q 287 228 254 242 q 357 201 319 214 q 433 176 394 189 z "},"©":{"ha":903,"x_min":76,"x_max":826,"o":"m 457 171 q 283 192 356 171 q 165 260 210 214 q 98 380 119 307 q 76 557 76 453 q 97 739 76 664 q 163 862 118 814 q 277 932 207 910 q 447 954 347 954 q 621 932 549 954 q 738 863 693 910 q 805 741 783 815 q 826 561 826 667 q 806 383 826 457 q 740 261 785 308 q 626 192 696 214 q 457 171 556 171 m 465 310 q 338 343 394 310 q 250 434 282 376 q 218 565 218 492 q 250 693 218 638 q 338 781 282 749 q 465 814 394 814 q 526 808 501 814 q 567 793 551 801 q 589 781 583 785 q 620 753 610 767 q 615 717 631 739 q 596 703 606 704 q 577 707 586 701 q 557 718 568 713 q 526 733 551 722 q 463 744 501 744 q 372 721 411 744 q 309 656 332 697 q 286 563 286 615 q 309 467 286 508 q 372 401 332 425 q 463 378 411 378 q 508 384 489 378 q 540 397 528 390 q 557 406 553 404 q 589 419 576 414 q 615 406 601 425 q 619 368 631 383 q 589 342 607 353 q 567 331 583 339 q 526 316 551 322 q 465 310 501 310 m 450 238 q 592 256 533 238 q 688 313 650 274 q 742 413 725 351 q 760 563 760 475 q 742 712 760 650 q 688 813 725 774 q 593 869 651 851 q 451 888 535 888 q 310 869 368 888 q 215 812 251 851 q 160 710 178 772 q 143 561 143 649 q 160 413 143 475 q 215 313 178 351 q 310 256 251 274 q 450 238 368 238 z "},"®":{"ha":903,"x_min":76,"x_max":826,"o":"m 447 954 q 621 932 549 954 q 738 863 693 910 q 805 741 783 815 q 826 561 826 667 q 806 383 826 457 q 740 261 785 308 q 626 192 696 214 q 457 171 556 171 q 283 192 356 171 q 165 260 210 214 q 98 380 119 307 q 76 557 76 453 q 97 739 76 664 q 163 862 118 814 q 277 932 207 910 q 447 954 347 954 m 450 238 q 592 256 533 238 q 688 313 650 274 q 742 413 725 351 q 760 563 760 475 q 742 712 760 650 q 688 813 725 774 q 593 869 651 851 q 451 888 535 888 q 310 869 368 888 q 215 812 251 851 q 160 710 178 772 q 143 561 143 649 q 160 413 143 475 q 215 313 178 351 q 310 256 251 274 q 450 238 368 238 m 553 507 l 639 365 q 646 347 646 356 q 641 331 646 338 q 625 317 636 324 q 601 315 611 311 q 582 333 590 319 l 486 497 l 354 497 l 354 343 q 351 326 354 333 q 340 315 347 318 q 322 311 333 311 q 306 315 313 311 q 295 326 299 318 q 292 343 292 333 l 292 785 q 295 801 292 794 q 306 812 299 808 q 324 815 314 815 l 481 815 q 567 797 532 815 q 619 743 601 779 q 638 654 638 707 q 618 573 638 618 q 553 507 599 528 m 354 751 l 354 558 l 500 558 q 556 585 536 558 q 576 656 576 611 q 552 728 576 704 q 479 751 528 751 l 354 751 z "},"™":{"ha":1153,"x_min":61,"x_max":1092,"o":"m 293 290 q 272 294 281 290 q 259 308 264 299 q 254 331 254 317 l 254 758 l 101 758 q 78 763 88 758 q 65 776 69 768 q 61 797 61 785 q 65 819 61 811 q 78 833 69 828 q 99 838 86 838 l 486 838 q 506 833 499 838 q 518 820 514 829 q 522 797 522 811 q 483 758 522 758 l 332 758 l 332 331 q 328 308 332 317 q 315 294 324 299 q 293 290 306 290 m 608 290 q 588 295 597 290 q 574 309 579 300 q 569 331 569 318 l 569 799 q 574 819 569 810 q 589 833 579 828 q 610 838 599 838 q 633 833 624 838 q 651 819 643 829 l 831 546 l 1011 821 q 1031 836 1019 835 q 1051 838 1042 838 q 1073 833 1064 838 q 1087 819 1082 828 q 1092 797 1092 810 l 1092 329 q 1087 309 1092 318 q 1073 295 1082 300 q 1051 290 1064 290 q 1031 295 1040 290 q 1017 309 1022 300 q 1013 331 1013 318 l 1013 696 l 865 474 q 849 460 860 465 q 831 454 839 454 q 813 459 821 454 q 796 474 804 464 l 647 696 l 647 329 q 642 309 647 318 q 629 295 638 300 q 608 290 621 290 z "},"°":{"ha":436,"x_min":26,"x_max":410,"o":"m 218 571 q 123 597 167 571 q 53 667 79 624 q 26 763 26 711 q 53 859 26 815 q 122 929 79 903 q 217 956 165 956 q 315 930 271 956 q 384 861 358 904 q 410 764 410 818 q 384 667 410 711 q 315 597 358 622 q 218 571 271 571 m 218 642 q 304 678 269 642 q 339 765 339 714 q 304 851 339 817 q 217 885 269 885 q 131 849 167 885 q 96 764 96 814 q 131 677 96 713 q 218 642 167 642 z "},"|":{"ha":301,"x_min":117,"x_max":196,"o":"m 156 -282 q 133 -278 142 -282 q 120 -265 124 -274 q 117 -240 117 -256 l 117 914 q 120 938 117 929 q 133 951 124 947 q 157 954 142 954 q 181 950 172 954 q 192 937 189 946 q 196 911 196 928 l 196 -242 q 192 -266 196 -257 q 180 -278 189 -275 q 156 -282 171 -282 z "},"¦":{"ha":299,"x_min":117,"x_max":196,"o":"m 156 413 q 133 417 142 413 q 120 430 124 421 q 117 454 117 439 l 117 914 q 120 938 117 929 q 133 951 124 947 q 157 954 142 954 q 181 950 172 954 q 192 937 189 946 q 196 911 196 928 l 196 453 q 192 428 196 438 q 180 416 189 419 q 156 413 171 413 m 156 -282 q 133 -278 142 -282 q 120 -265 124 -274 q 117 -240 117 -256 l 117 219 q 120 244 117 235 q 133 256 124 253 q 157 260 142 260 q 181 256 172 260 q 192 242 189 251 q 196 217 196 233 l 196 -242 q 192 -266 196 -257 q 180 -278 189 -275 q 156 -282 171 -282 z "},"†":{"ha":672,"x_min":79,"x_max":610,"o":"m 332 -282 q 309 -278 318 -282 q 297 -265 300 -274 q 293 -240 293 -256 l 293 914 q 297 938 293 929 q 309 951 300 947 q 333 954 318 954 q 357 950 349 954 q 369 937 365 946 q 372 911 372 928 l 372 -242 q 369 -266 372 -257 q 356 -278 365 -275 q 332 -282 347 -282 m 121 568 q 97 572 106 568 q 83 584 88 575 q 79 608 79 593 q 83 635 79 625 q 95 649 86 644 q 118 651 104 653 l 333 644 l 571 651 q 594 649 586 653 q 606 635 603 644 q 610 608 610 625 q 606 584 610 593 q 592 572 601 575 q 568 568 583 568 l 333 574 l 121 568 z "},"‡":{"ha":672,"x_min":79,"x_max":610,"o":"m 332 -282 q 309 -278 318 -282 q 297 -265 300 -274 q 293 -240 293 -256 l 293 914 q 297 938 293 929 q 309 951 300 947 q 333 954 318 954 q 357 950 349 954 q 369 937 365 946 q 372 911 372 928 l 372 -242 q 369 -266 372 -257 q 356 -278 365 -275 q 332 -282 347 -282 m 121 151 q 97 155 106 151 q 83 167 88 158 q 79 192 79 176 q 83 217 79 208 q 95 231 86 226 q 118 235 104 236 l 333 228 l 571 235 q 594 231 586 236 q 606 217 603 226 q 610 192 610 208 q 606 167 610 176 q 592 155 601 158 q 568 151 583 151 l 333 157 l 121 151 m 121 568 q 97 572 106 568 q 83 584 88 575 q 79 608 79 593 q 83 635 79 625 q 95 649 86 644 q 118 651 104 653 l 333 644 l 571 651 q 594 649 586 653 q 606 635 603 644 q 610 608 610 625 q 606 584 610 593 q 592 572 601 575 q 568 568 583 568 l 333 574 l 121 568 z "},"€":{"ha":822,"x_min":76,"x_max":746,"o":"m 560 -15 q 437 2 493 -15 q 337 51 381 19 q 262 128 293 83 q 215 230 231 174 q 199 350 199 286 q 199 443 199 397 q 199 535 199 489 q 199 628 199 582 q 214 736 199 683 q 259 833 229 789 q 333 910 289 878 q 433 962 376 943 q 560 981 490 981 l 713 981 q 732 977 725 981 q 742 965 739 974 q 746 942 746 957 q 742 919 746 928 q 729 906 738 910 q 706 903 721 903 l 560 903 q 465 891 508 903 q 388 857 422 879 q 328 804 353 835 q 292 737 304 774 q 279 658 279 700 q 279 556 279 607 q 279 453 279 504 q 279 350 279 401 q 291 256 279 300 q 326 177 303 213 q 382 115 349 142 q 460 75 415 89 q 560 61 504 61 l 707 61 q 731 58 722 61 q 742 45 739 54 q 746 21 746 36 q 743 0 746 8 q 733 -12 740 -8 q 715 -15 726 -15 l 560 -15 m 118 342 q 94 345 103 342 q 81 358 85 349 q 76 382 76 367 q 80 408 76 399 q 92 421 83 417 q 115 425 101 425 l 638 425 q 661 421 653 425 q 673 408 669 417 q 676 382 676 399 q 672 358 676 367 q 659 345 668 349 q 635 342 650 342 l 118 342 m 118 564 q 94 567 103 564 q 81 580 85 571 q 76 604 76 589 q 80 630 76 621 q 92 643 83 639 q 115 647 101 647 l 638 647 q 661 643 653 647 q 673 630 669 639 q 676 604 676 621 q 672 580 676 589 q 659 567 668 571 q 635 564 650 564 l 118 564 z "},"¢":{"ha":603,"x_min":31,"x_max":565,"o":"m 325 -99 q 302 -94 311 -99 q 290 -81 293 -90 q 286 -57 286 -72 l 286 57 q 147 108 204 67 q 60 215 90 150 q 31 357 31 279 q 60 501 31 436 q 147 608 90 565 q 286 658 204 650 l 286 779 q 290 803 286 794 q 302 816 293 813 q 326 819 311 819 q 350 815 342 819 q 362 802 358 811 q 365 776 365 793 l 365 660 q 446 640 410 656 q 509 604 482 625 q 551 560 536 583 q 562 534 563 543 q 554 517 561 525 q 535 501 546 507 q 517 496 525 496 q 485 515 500 496 q 441 557 465 542 q 389 579 417 572 q 329 586 361 586 q 210 555 258 586 q 137 472 161 524 q 113 357 113 421 q 137 243 113 294 q 209 160 161 192 q 326 129 257 129 q 387 134 358 129 q 441 151 415 139 q 488 185 467 164 q 506 201 499 194 q 525 207 514 207 q 541 201 533 207 q 557 183 549 194 q 565 163 564 175 q 554 139 565 150 q 499 96 529 114 q 435 68 468 78 q 365 56 401 58 l 365 -58 q 362 -83 365 -74 q 349 -95 358 -92 q 325 -99 340 -99 z "},"¤":{"ha":940,"x_min":67,"x_max":861,"o":"m 89 -15 q 71 0 75 -8 q 69 18 67 8 q 110 91 82 57 q 176 151 139 125 q 250 186 214 176 q 173 253 208 213 q 117 349 138 294 q 96 468 96 404 q 136 638 96 554 q 257 772 176 721 q 140 835 181 797 q 81 914 100 874 q 73 947 71 935 q 92 968 75 958 q 117 973 107 976 q 139 951 126 969 q 158 925 149 938 q 178 899 168 913 q 254 847 204 864 q 360 826 304 831 q 461 821 417 821 l 481 821 q 588 826 532 821 q 690 849 644 832 q 758 899 736 865 q 776 924 767 911 q 793 950 785 938 q 813 969 804 965 q 839 965 822 972 q 860 947 858 957 q 853 917 861 938 q 788 831 833 868 q 660 769 742 793 q 790 647 747 729 q 833 472 833 565 q 814 362 833 418 q 760 259 794 306 q 681 186 726 213 q 756 152 721 176 q 817 97 792 128 q 853 31 843 65 q 856 3 858 13 q 838 -15 854 -7 q 813 -20 822 -24 q 793 1 803 -17 q 775 35 783 21 q 756 65 767 49 q 703 103 739 89 q 610 123 668 117 q 471 129 553 129 l 440 129 q 334 125 378 129 q 262 113 290 121 q 215 92 233 104 q 182 65 196 81 q 151 24 160 40 q 138 -4 143 7 q 117 -23 128 -21 q 89 -15 107 -25 m 457 192 q 614 227 547 192 q 718 326 681 263 q 756 474 756 389 q 719 621 756 558 q 618 719 683 683 q 465 754 553 754 q 315 719 379 754 q 214 622 250 685 q 178 475 178 560 q 213 326 178 390 q 310 227 247 263 q 457 192 374 192 z "},"$":{"ha":660,"x_min":47,"x_max":565,"o":"m 565 271 q 549 189 565 226 q 503 124 533 151 q 431 78 472 96 q 338 56 389 61 l 338 -58 q 334 -83 338 -74 q 322 -95 331 -92 q 297 -99 313 -99 q 274 -94 283 -99 q 262 -81 265 -90 q 258 -57 258 -72 l 258 57 q 180 78 218 63 q 112 119 142 94 q 64 172 82 143 q 51 205 54 190 q 68 235 47 219 q 99 246 86 247 q 121 234 111 244 q 139 210 131 224 q 203 155 161 175 q 294 135 246 135 q 397 151 354 135 q 461 197 439 167 q 483 268 483 226 q 457 348 483 318 q 388 397 431 378 q 296 432 344 415 q 214 463 254 446 q 141 503 174 479 q 89 562 108 526 q 69 650 69 597 q 83 724 69 690 q 121 783 96 757 q 181 825 146 808 q 258 847 215 842 l 258 956 q 262 980 258 971 q 274 993 265 989 q 297 997 283 997 q 322 994 313 997 q 334 981 331 990 q 338 957 338 972 l 338 847 q 442 814 397 840 q 510 763 488 788 q 527 733 526 746 q 513 704 528 719 q 494 691 504 694 q 475 691 485 688 q 454 706 465 694 q 410 739 436 725 q 355 761 383 753 q 299 769 326 769 q 236 761 264 769 q 190 737 208 753 q 160 699 171 721 q 150 649 150 676 q 175 583 150 608 q 240 540 200 557 q 325 506 279 522 q 409 473 367 490 q 487 430 451 456 q 544 366 522 404 q 565 271 565 328 z "},"₪":{"ha":1301,"x_min":107,"x_max":1194,"o":"m 779 -17 q 562 36 653 -17 q 423 184 471 89 q 375 408 375 279 l 375 488 q 380 509 375 500 q 394 523 385 518 q 415 528 403 528 q 437 523 428 528 q 451 509 446 518 q 456 486 456 500 l 456 408 q 478 267 456 331 q 542 157 500 203 q 646 86 585 111 q 783 61 707 61 q 962 105 888 61 q 1076 227 1036 149 q 1115 410 1115 306 l 1115 774 q 1120 790 1115 783 q 1134 801 1125 797 q 1156 806 1143 806 q 1177 801 1168 806 q 1190 787 1186 796 q 1194 764 1194 778 l 1194 406 q 1167 232 1194 310 q 1085 99 1139 154 q 954 13 1031 43 q 779 -17 878 -17 m 147 -14 q 126 -9 135 -14 q 112 5 117 -4 q 107 26 107 14 l 107 765 q 112 787 107 778 q 126 800 117 796 q 147 804 135 804 l 461 806 q 620 780 551 806 q 735 703 689 754 q 806 575 782 651 q 829 397 829 499 l 829 306 q 825 283 829 292 q 812 269 821 274 q 790 264 803 264 q 769 267 778 264 q 755 278 760 271 q 750 296 750 286 l 750 393 q 718 576 750 503 q 623 688 686 650 q 465 725 560 725 l 188 725 l 188 28 q 183 5 188 14 q 169 -9 178 -4 q 147 -14 161 -14 z "},"£":{"ha":938,"x_min":44,"x_max":879,"o":"m 172 -15 q 140 -3 149 -15 q 132 32 132 8 q 146 101 132 76 q 178 147 160 126 q 210 201 196 168 q 224 292 224 233 q 220 347 224 308 q 200 424 217 385 l 86 424 q 62 427 71 424 q 49 440 53 431 q 44 464 44 449 q 48 490 44 481 q 60 503 51 499 q 83 507 69 507 l 183 507 l 183 621 q 192 706 183 672 q 221 778 201 739 q 294 875 249 832 q 406 943 340 918 q 558 968 472 968 q 642 957 601 968 q 719 927 683 946 q 785 885 756 908 q 836 836 815 861 q 856 799 856 814 q 840 768 857 783 q 803 747 818 749 q 774 764 789 746 q 719 819 750 793 q 649 861 689 844 q 557 878 610 878 q 410 845 474 878 q 313 753 347 813 q 278 615 278 694 l 278 507 l 510 507 q 533 503 525 507 q 545 490 542 499 q 549 464 549 481 q 544 440 549 449 q 531 427 540 431 q 507 424 522 424 l 296 424 q 310 351 307 388 q 314 292 314 314 q 303 219 314 258 q 276 142 293 179 q 238 79 258 104 l 832 79 q 860 74 850 79 q 874 59 869 69 q 879 29 879 49 q 874 3 879 13 q 859 -11 869 -7 q 831 -15 849 -15 l 172 -15 z "},"¥":{"ha":940,"x_min":79,"x_max":872,"o":"m 849 956 q 869 930 867 942 q 861 903 872 918 l 518 381 l 518 26 q 514 2 518 11 q 501 -11 510 -7 q 476 -15 492 -15 q 452 -11 461 -15 q 439 3 443 -7 q 435 29 435 13 l 435 381 l 89 900 q 83 927 79 915 q 104 953 86 939 q 136 967 124 968 q 160 947 149 965 l 476 451 l 792 947 q 815 965 803 964 q 849 956 828 967 m 278 221 q 253 224 263 221 q 240 237 244 228 q 236 261 236 246 q 240 287 236 278 q 252 300 243 296 q 275 304 261 304 l 658 304 q 682 300 674 304 q 694 287 690 296 q 697 261 697 278 q 693 237 697 246 q 680 224 689 228 q 656 221 671 221 l 278 221 m 278 374 q 253 377 263 374 q 240 390 244 381 q 236 414 236 399 q 244 447 236 438 q 275 457 253 457 l 658 457 q 689 447 681 457 q 697 414 697 438 q 693 390 697 399 q 680 377 689 381 q 656 374 671 374 l 278 374 z "},"+":{"ha":767,"x_min":63,"x_max":704,"o":"m 385 35 q 360 38 369 35 q 346 51 350 42 q 342 74 342 60 l 342 638 q 346 661 342 653 q 360 673 350 669 q 385 676 369 676 q 409 672 400 676 q 422 659 418 668 q 425 635 425 650 l 425 76 q 422 52 425 61 q 409 39 418 43 q 385 35 400 35 m 104 314 q 80 317 89 314 q 67 330 71 321 q 63 354 63 339 q 66 380 63 371 q 78 393 69 389 q 101 397 88 397 l 665 397 q 689 393 681 397 q 701 380 697 389 q 704 354 704 371 q 700 330 704 339 q 687 317 696 321 q 663 314 678 314 l 104 314 z "},"−":{"ha":794,"x_min":63,"x_max":732,"o":"m 104 314 q 80 317 89 314 q 67 330 71 321 q 63 354 63 339 q 66 380 63 371 q 78 393 69 389 q 101 397 88 397 l 693 397 q 717 393 708 397 q 728 380 725 389 q 732 354 732 371 q 728 330 732 339 q 715 317 724 321 q 690 314 706 314 l 104 314 z "},"×":{"ha":614,"x_min":61,"x_max":553,"o":"m 365 356 l 533 188 q 549 168 544 178 q 549 149 553 158 q 535 129 546 140 q 515 114 524 118 q 497 113 506 110 q 476 126 488 117 l 307 297 l 139 129 q 119 114 129 118 q 101 113 110 110 q 81 128 92 117 q 65 148 69 139 q 65 167 61 157 q 78 186 68 176 l 247 356 l 78 525 q 65 545 68 536 q 65 563 61 554 q 81 583 69 572 q 101 598 92 594 q 119 597 110 601 q 139 582 129 593 l 307 415 l 476 585 q 497 599 488 596 q 515 597 506 601 q 535 582 524 593 q 549 562 546 571 q 549 544 553 553 q 533 524 544 535 l 365 356 z "},"÷":{"ha":642,"x_min":63,"x_max":579,"o":"m 104 314 q 80 317 89 314 q 67 330 71 321 q 63 354 63 339 q 66 380 63 371 q 78 393 69 389 q 101 397 88 397 l 540 397 q 564 393 556 397 q 576 380 572 389 q 579 354 579 371 q 575 330 579 339 q 562 317 571 321 q 538 314 553 314 l 104 314 m 317 74 q 274 85 286 74 q 263 126 263 97 q 274 170 263 158 q 317 182 286 182 q 359 170 347 182 q 371 128 371 158 q 359 85 371 97 q 317 74 347 74 m 317 528 q 274 540 286 528 q 263 581 263 551 q 274 624 263 613 q 317 636 286 636 q 359 624 347 636 q 371 582 371 613 q 359 540 371 551 q 317 528 347 528 z "},"=":{"ha":656,"x_min":63,"x_max":593,"o":"m 104 453 q 80 456 89 453 q 67 469 71 460 q 63 493 63 478 q 66 519 63 510 q 78 532 69 528 q 101 536 88 536 l 554 536 q 578 532 569 536 q 590 519 586 528 q 593 493 593 510 q 589 469 593 478 q 576 456 585 460 q 551 453 567 453 l 104 453 m 104 175 q 80 178 89 175 q 67 191 71 182 q 63 215 63 200 q 66 241 63 232 q 78 254 69 250 q 101 258 88 258 l 554 258 q 578 254 569 258 q 590 241 586 250 q 593 215 593 232 q 589 191 593 200 q 576 178 585 182 q 551 175 567 175 l 104 175 z "},">":{"ha":681,"x_min":47,"x_max":632,"o":"m 124 -4 q 101 -16 111 -12 q 83 -16 92 -19 q 65 -1 75 -12 q 51 22 56 11 q 51 40 47 32 q 67 57 54 49 l 531 364 l 67 671 q 51 688 54 679 q 51 707 47 697 q 65 729 56 717 q 85 746 76 743 q 103 744 94 749 q 124 732 113 740 l 615 396 q 628 381 625 390 q 632 364 632 372 q 628 347 632 356 q 615 332 625 339 l 124 -4 z "},"<":{"ha":681,"x_min":49,"x_max":633,"o":"m 557 -4 l 65 332 q 52 347 56 339 q 49 364 49 356 q 52 381 49 372 q 65 396 56 390 l 557 732 q 578 744 569 740 q 595 746 586 749 q 615 729 604 743 q 630 707 626 717 q 630 688 633 697 q 614 671 626 679 l 150 364 l 614 57 q 630 40 626 49 q 629 22 633 32 q 615 -1 625 11 q 597 -16 606 -12 q 580 -16 589 -19 q 557 -4 571 -12 z "},"±":{"ha":711,"x_min":35,"x_max":676,"o":"m 76 314 q 52 317 61 314 q 39 330 43 321 q 35 354 35 339 q 38 380 35 371 q 51 393 42 389 q 74 397 60 397 l 638 397 q 661 393 653 397 q 673 380 669 389 q 676 354 676 371 q 672 330 676 339 q 659 317 668 321 q 635 314 650 314 l 76 314 m 357 146 q 332 149 342 146 q 318 162 322 153 q 314 185 314 171 l 314 526 q 318 550 314 542 q 332 562 322 558 q 357 565 342 565 q 381 561 372 565 q 394 548 390 557 q 397 524 397 539 l 397 188 q 394 163 397 172 q 381 150 390 154 q 357 146 372 146 m 76 -15 q 52 -12 61 -15 q 39 1 43 -8 q 35 25 35 10 q 38 51 35 42 q 51 64 42 60 q 74 68 60 68 l 638 68 q 661 64 653 68 q 673 51 669 60 q 676 25 676 42 q 672 1 676 10 q 659 -12 668 -8 q 635 -15 650 -15 l 76 -15 z "},"~":{"ha":765,"x_min":76,"x_max":686,"o":"m 264 479 q 323 468 296 479 q 374 441 350 457 q 419 409 397 425 q 464 382 442 393 q 508 371 486 371 q 536 378 522 371 q 564 396 550 385 q 589 421 578 407 q 607 449 600 435 q 632 469 614 464 q 667 464 650 474 q 682 449 678 458 q 686 426 686 440 q 671 383 686 407 q 630 337 656 358 q 572 301 604 315 q 507 288 540 288 q 444 298 471 288 q 394 324 417 308 q 352 356 372 340 q 310 383 332 372 q 264 393 289 393 q 233 388 250 393 q 201 372 217 382 q 174 349 186 361 q 156 322 163 336 q 143 310 151 314 q 124 306 135 306 q 101 313 113 307 q 82 334 88 319 q 82 361 76 349 q 112 406 92 385 q 158 443 132 426 q 210 469 183 460 q 264 479 238 479 z "},"¬":{"ha":731,"x_min":69,"x_max":669,"o":"m 629 185 q 604 188 614 185 q 590 201 594 192 q 586 224 586 210 l 586 397 l 111 397 q 87 401 96 397 q 74 413 78 404 q 69 438 69 422 q 73 463 69 454 q 85 476 76 472 q 108 481 94 481 l 631 481 q 661 471 653 481 q 669 438 669 461 l 669 226 q 666 202 669 211 q 653 189 663 193 q 629 185 644 185 z "},"^":{"ha":717,"x_min":43,"x_max":674,"o":"m 358 719 q 372 715 365 719 q 386 704 379 711 l 657 433 q 671 414 668 424 q 669 395 674 404 q 654 375 665 386 q 634 360 643 364 q 616 361 625 357 q 596 376 607 365 l 358 614 l 121 376 q 101 361 110 365 q 83 360 92 357 q 63 375 74 364 q 47 395 51 386 q 47 414 43 404 q 60 433 50 424 l 331 704 q 345 715 338 711 q 358 719 353 719 z "},"µ":{"ha":835,"x_min":103,"x_max":679,"o":"m 142 -287 q 121 -283 129 -287 q 108 -269 113 -278 q 103 -247 103 -260 l 103 608 q 108 633 103 625 q 123 644 114 642 q 143 647 132 647 q 167 643 158 647 q 180 630 176 639 q 183 606 183 621 l 183 279 q 206 162 183 213 q 272 83 228 111 q 383 56 317 56 q 500 83 451 56 q 575 162 549 111 q 601 279 601 213 l 601 607 q 605 631 601 622 q 617 644 608 640 q 642 647 626 647 q 664 643 656 647 q 676 630 672 639 q 679 606 679 621 l 679 22 q 676 1 679 10 q 664 -10 672 -7 q 640 -14 656 -14 q 624 -12 631 -14 q 613 -6 617 -10 q 606 6 608 -1 q 604 22 604 13 l 604 104 q 564 59 586 81 q 515 20 542 38 q 454 -7 488 3 q 381 -17 421 -17 q 270 3 321 -17 q 182 63 219 24 l 182 -249 q 177 -269 182 -261 q 164 -283 172 -278 q 142 -287 156 -287 z "},"%":{"ha":1164,"x_min":43,"x_max":1128,"o":"m 300 -69 q 283 -53 288 -62 q 281 -30 278 -44 q 296 6 285 -15 l 792 943 q 812 974 803 964 q 832 985 821 983 q 856 979 843 986 q 872 963 868 972 q 873 940 876 954 q 858 904 869 926 l 361 -33 q 342 -63 351 -53 q 322 -75 332 -74 q 300 -69 313 -76 m 296 435 q 113 506 182 435 q 43 694 43 578 q 113 883 43 811 q 296 954 182 954 q 475 883 407 954 q 543 696 543 813 q 475 506 543 578 q 296 435 407 435 m 296 510 q 419 562 372 510 q 465 699 465 614 q 419 830 465 781 q 296 879 372 879 q 169 829 217 879 q 121 697 121 779 q 169 561 121 613 q 296 510 217 510 m 881 -15 q 697 56 767 -15 q 628 244 628 128 q 697 433 628 361 q 881 504 767 504 q 1060 433 992 504 q 1128 246 1128 363 q 1060 56 1128 128 q 881 -15 992 -15 m 881 60 q 1003 112 957 60 q 1050 249 1050 164 q 1003 380 1050 331 q 881 429 957 429 q 753 379 801 429 q 706 247 706 329 q 753 111 706 163 q 881 60 801 60 z "},"‰":{"ha":1726,"x_min":43,"x_max":1683,"o":"m 300 -69 q 283 -53 288 -62 q 281 -30 278 -44 q 296 6 285 -15 l 792 943 q 812 974 803 964 q 832 985 821 983 q 856 979 843 986 q 872 963 868 972 q 873 940 876 954 q 858 904 869 926 l 361 -33 q 342 -63 351 -53 q 322 -75 332 -74 q 300 -69 313 -76 m 296 435 q 113 506 182 435 q 43 694 43 578 q 113 883 43 811 q 296 954 182 954 q 475 883 407 954 q 543 696 543 813 q 475 506 543 578 q 296 435 407 435 m 296 510 q 419 562 372 510 q 465 699 465 614 q 419 830 465 781 q 296 879 372 879 q 169 829 217 879 q 121 697 121 779 q 169 561 121 613 q 296 510 217 510 m 881 -15 q 697 56 767 -15 q 628 244 628 128 q 697 433 628 361 q 881 504 767 504 q 1060 433 992 504 q 1128 246 1128 363 q 1060 56 1128 128 q 881 -15 992 -15 m 881 60 q 1003 112 957 60 q 1050 249 1050 164 q 1003 380 1050 331 q 881 429 957 429 q 753 379 801 429 q 706 247 706 329 q 753 111 706 163 q 881 60 801 60 m 1436 -15 q 1253 56 1322 -15 q 1183 244 1183 128 q 1253 433 1183 361 q 1436 504 1322 504 q 1615 433 1547 504 q 1683 246 1683 363 q 1615 56 1683 128 q 1436 -15 1547 -15 m 1436 60 q 1559 112 1513 60 q 1606 249 1606 164 q 1559 380 1606 331 q 1436 429 1513 429 q 1309 379 1357 429 q 1261 247 1261 329 q 1309 111 1261 163 q 1436 60 1357 60 z "},"ׁ":{"ha":0,"x_min":63,"x_max":157,"o":"m 110 824 q 76 839 90 824 q 63 876 63 854 q 77 911 63 896 q 110 926 92 926 q 142 911 128 926 q 157 876 157 896 q 143 839 157 854 q 110 824 129 824 z "},"ְ":{"ha":0,"x_min":63,"x_max":157,"o":"m 110 -300 q 76 -285 90 -300 q 63 -250 63 -271 q 77 -213 63 -229 q 110 -197 92 -197 q 143 -212 129 -197 q 157 -250 157 -228 q 143 -285 157 -271 q 110 -300 129 -300 m 110 -125 q 76 -110 90 -125 q 63 -75 63 -96 q 76 -40 63 -54 q 110 -25 90 -25 q 143 -40 129 -25 q 157 -75 157 -54 q 143 -110 157 -96 q 110 -125 129 -125 z "},"ֱ":{"ha":0,"x_min":90,"x_max":563,"o":"m 515 -300 q 482 -285 496 -300 q 468 -250 468 -271 q 483 -213 468 -229 q 515 -197 497 -197 q 549 -212 535 -197 q 563 -250 563 -228 q 549 -285 563 -271 q 515 -300 535 -300 m 226 -300 q 191 -285 206 -300 q 176 -250 176 -271 q 192 -214 176 -231 q 226 -197 207 -197 q 258 -213 244 -197 q 271 -250 271 -229 q 258 -285 271 -271 q 226 -300 244 -300 m 140 -125 q 105 -110 119 -125 q 90 -75 90 -96 q 105 -40 90 -54 q 140 -25 119 -25 q 172 -39 160 -25 q 185 -75 185 -53 q 172 -111 185 -97 q 140 -125 160 -125 m 315 -125 q 282 -110 296 -125 q 268 -75 268 -96 q 282 -40 268 -54 q 315 -25 296 -25 q 349 -40 335 -25 q 363 -75 363 -54 q 349 -110 363 -96 q 315 -125 335 -125 m 515 -125 q 482 -110 496 -125 q 468 -75 468 -96 q 482 -40 468 -54 q 515 -25 496 -25 q 549 -40 535 -25 q 563 -75 563 -54 q 549 -110 563 -96 q 515 -125 535 -125 z "},"ֲ":{"ha":0,"x_min":132,"x_max":540,"o":"m 167 -103 q 132 -68 132 -103 l 132 -62 q 141 -37 132 -46 q 167 -28 150 -28 l 328 -28 q 353 -37 344 -28 q 363 -62 363 -46 l 363 -68 q 328 -103 363 -103 l 167 -103 m 493 -300 q 460 -285 474 -300 q 446 -250 446 -271 q 460 -213 446 -229 q 493 -197 475 -197 q 526 -212 513 -197 q 540 -250 540 -228 q 526 -285 540 -271 q 493 -300 513 -300 m 493 -125 q 460 -110 474 -125 q 446 -75 446 -96 q 460 -40 446 -54 q 493 -25 474 -25 q 526 -40 513 -25 q 540 -75 540 -54 q 526 -110 540 -96 q 493 -125 513 -125 z "},"ֳ":{"ha":0,"x_min":104,"x_max":540,"o":"m 231 -256 q 204 -245 213 -256 q 197 -218 196 -235 l 213 -103 l 139 -103 q 104 -68 104 -103 l 104 -62 q 113 -37 104 -46 q 139 -28 122 -28 l 328 -28 q 353 -37 344 -28 q 363 -62 363 -46 l 363 -68 q 328 -103 363 -103 l 254 -103 l 267 -219 q 260 -246 269 -236 q 235 -256 251 -256 l 231 -256 m 493 -300 q 460 -285 474 -300 q 446 -250 446 -271 q 460 -213 446 -229 q 493 -197 475 -197 q 526 -212 513 -197 q 540 -250 540 -228 q 526 -285 540 -271 q 493 -300 513 -300 m 493 -125 q 460 -110 474 -125 q 446 -75 446 -96 q 460 -40 446 -54 q 493 -25 474 -25 q 526 -40 513 -25 q 540 -75 540 -54 q 526 -110 540 -96 q 493 -125 513 -125 z "},"ִ":{"ha":0,"x_min":63,"x_max":157,"o":"m 110 -132 q 76 -117 90 -132 q 63 -82 63 -103 q 76 -47 63 -61 q 110 -32 90 -32 q 143 -47 129 -32 q 157 -82 157 -61 q 143 -117 157 -103 q 110 -132 129 -132 z "},"ֵ":{"ha":0,"x_min":90,"x_max":368,"o":"m 321 -132 q 288 -117 301 -132 q 274 -82 274 -103 q 288 -47 274 -61 q 321 -32 301 -32 q 354 -47 340 -32 q 368 -82 368 -61 q 354 -117 368 -103 q 321 -132 340 -132 m 140 -132 q 105 -117 119 -132 q 90 -82 90 -103 q 105 -47 90 -61 q 140 -32 119 -32 q 172 -47 158 -32 q 185 -82 185 -61 q 172 -117 185 -103 q 140 -132 158 -132 z "}}}
